<?xml version="1.0" encoding="UTF-8"?>
<svg id="Capa_1" data-name="Capa 1" xmlns="http://www.w3.org/2000/svg" viewBox="0 0 1080 1080">
  <defs>
    <style>
      .cls-1 {
        fill: #8b9f80;
      }

      .cls-2 {
        fill: #fcfcfb;
      }
    </style>
  </defs>
  <path class="cls-2" d="M587,407.4c-.7.1-1.4.2-2.1.4.3.1.5.2.8.3.1,0,.2,0,.3.1.7.3,1.3.6,2,.9,7.1,3.7,12.1,9.6,14.2,17.2,14.4,4.4,28.7,8.8,43.1,13.2l72.9,13.7c-.1-1.5,0-3,.6-4.5,1-2.9,3.3-5.1,6.2-6.3,6.5-2.5,14,0,20.1,2.7.3.1.7.3,1,.4-3.5-4.1-7-8.4-10.3-12.7-38.8-6.2-77.6-12.5-116.5-18.7-7.9-1.3-15.9-2.5-23.8-3.8l-.3-4.7c-1.8.4-3.5.8-5.3,1.1-1,.2-1.9.4-2.9.5Z"/>
  <path class="cls-2" d="M545.7,409.9c0-.1,0-.2,0-.3-4.6,0-9.3-.2-13.9-.3-.1,2.9,0,5.8.1,8.7,4.6.3,9.2.5,13.8.8,0-3,0-5.9,0-8.9Z"/>
  <path class="cls-2" d="M206,661.5c21.2-17.8,43.9-36.3,70.9-44.2,12.1-3.5,27.1-5.1,37.8,3.1,8.2,6.4,12.7,18.4,7.5,27.9,7.5,0,15,.5,22.5,1.5,9.1,1.2,19.3,2.7,26,9.6,5.3,5.5,7.4,13.6,3.6,20.4,26.7,9.5,54.4,15.7,82.2,21.1,12.7,2.4,25.5,4.7,38.2,7,6.2,1.1,12.4,2.2,18.6,3.4,3.2.6,6.4,1.2,9.5,1.8,2.3.5,4.8.8,6.9,1.8,2.6,1.2,3.9,3,4.3,4.9,5,0,10.1,0,15.1,0,43,.8,86,6.5,127.8,17.2,10.4,2.7,20.8,5.6,31.1,8.9,7.6,2.4,15.7,5.8,20.3,12.5.3.2.6.5.8.9,6,9.9,4.8,21.6,1.8,32.3-2.5,8.8-5.7,17.4-9.3,25.9,3.6.8,7.2,1.7,10.8,2.8,4.8,1.5,9.5,3.3,14.2,5.3-7.9-38.6-14.3-77.4-19.2-116.5-.4-3.4,5-3.4,5.4,0,2.7,21.7,5.9,43.3,9.6,64.9,18.3-4.8,36.5-10.1,54.6-15.8-5.9-13.1-11.8-26.2-17.8-39.3-17.7-38.2-36.2-76.1-55.6-113.5-9.7-18.8-19.6-37.5-29.7-56.1-4.2-7.8-9.8-16.5-8.7-25.7,1.1-8.6,8.5-13.9,16.7-14.8,5-.5,10,.6,14.8,2.3-3.2-3.5-6.3-7-9.3-10.6-5.1-6.1-10-14-6.7-22.2.6-1.4,1.3-2.5,2.1-3.5h0s0,0,0,0l-39.9-19.7c-10.1,31.1-30,58.5-56.4,77.9-.3.3-.7.4-1,.5.2,10.7.3,21.3.4,32,.3,22.7.7,45.4.3,68.1-.2,8.9-1.7,18.7-9.3,24.4-5.2,3.9-12.2,4.2-17.2.6-.2,6.2-.4,12.5-.7,18.7-.4,8.6,0,18.7-5.1,26.1-4.1,5.8-11.7,9.6-18.6,6.5-6.5-3-8.6-10.4-9.2-17-1-9.3-.3-19-.3-28.3v-69.7c-4.7.9-9.2-1.9-11.3-6.1-2.7-5.3-1.7-11.8-1.5-17.6.3-8,.6-16.1.8-24.1,0,0,0,0,0,0-17,.5-34-2.3-50-7.9-9.8-3.4-19.1-7.8-28-13-1.7-1-3.4-2-5-3.1-15.1-9.6-28.7-21.5-40.5-35-14.1-16.2-25.5-34.3-34.9-53.5-21.2,10.2-41.9,21.6-61.8,34.2-4.7,3-9.3,6-13.8,9.1-1.5,1-3,2-4.5,3-27.4,18.9-53.3,40-77.2,63.2-29.6,28.7-56.1,60.6-79,94.9-2.2,3.3-4.3,6.6-6.5,9.9,14.7,12.9,29.3,25.7,44,38.6,9.5-9,19.3-17.8,29.4-26.2Z"/>
  <path class="cls-2" d="M994.1,665.2c-22.4-41.2-47.2-81.1-75.1-118.8-14-18.8-28.7-37-44.2-54.5-4.4-4.9-8.8-9.8-13.2-14.6,1.2,0,2.5-.1,3.7-.2-13.3-12.5-27.1-24.6-41.3-36-.2,0-.4,0-.6-.1-16.8-13.7-35.8-26.1-56.6-32.4-8.4-2.5-19.2-3.7-26.5,2.2-3.8,3.1-5.5,7.1-5.8,11.2,3.4,4.6,6.9,9.2,10.5,13.7,4.3,5.2,8.7,10.4,13.3,15.3,14.8,6.9,29.4,14.2,43.8,21.8,6.6,3.5,17.7,7.7,18.7,16.4,1,8.5-8.7,12-15.5,9.4-4.3-1.6-7.9-4.8-11.5-7.6-3.8-3-7.6-6-11.2-9.2-7.2-6.2-14.2-12.7-20.9-19.4-2.3-2.3-4.5-4.7-6.7-7.1-4.2-1.9-8.3-3.8-12.5-5.7-4.4-2-12.2-4.9-16.7-1.6-3.2,2.4-1.9,6.8-.3,9.8,2,3.8,4.5,7.3,6.8,10.9,2.1,3.2,4.3,6.4,6.6,9.5,11.1,5,21.7,11.4,31.3,18.4,7.4,5.4,14.5,11.3,21,17.7,4.5,4.5,10.6,12.7,6.2,19.2-5.7,8.4-15.7.4-20.7-4.3-7.1-6.6-14-13.6-20.5-20.9-6.5-7.3-12.8-14.9-18.6-22.8-.7-.9-1.3-1.8-2-2.7-1.8-.8-3.7-1.6-5.5-2.3-3.7-1.5-7.4-3-11.3-4-3.4-.9-7.7-1.6-10.7.8-6.9,5.5,0,15.2,4,20,5.6,6.6,11.5,13,17.5,19.2,8.7,4,17.1,8.5,25.3,13.4,8.3,5,16.3,10.5,24,16.5,5.2,4,16.6,10.8,14.2,19-1.1,3.8-5.3,5.2-8.8,4.1-4.4-1.3-8.3-5-11.9-7.8-7.8-6-15.4-12.2-22.8-18.7-8-7.1-15.9-14.4-23.4-22.1-.7-.3-1.4-.7-2.2-1-7.5-3.4-16.4-7.7-24.8-5.2-3.6,1.1-6.8,3.4-8,7.1-1.4,3.8-.4,8,1,11.7,1.5,4.1,3.7,7.9,5.8,11.7,2.3,4.2,4.6,8.5,6.9,12.7,17.7,32.9,34.7,66.1,51.2,99.6,16.4,33.5,32.2,67.3,47.4,101.4,15,33.7,29.3,67.6,43,101.8,43.4.5,86.9.5,130.3.1,34.4-.3,68.9-1,103.3-1.9v-9.4c-7.8-19-15.8-38-24.1-56.9-18.9-43.3-39.2-86-61.8-127.5Z"/>
  <path class="cls-2" d="M769.1,552.4c3.5,2.8,7.1,5.5,10.7,8.2,1.7,1.3,3.5,2.9,5.5,3.6,2,.7,3,0,2.3-2-1.3-3.6-5.1-6-7.9-8.2-3.5-2.9-7.2-5.6-10.9-8.3-7-5-14.3-9.7-21.7-14-1.7-1-3.3-1.9-5-2.8,2.3,2.2,4.6,4.3,7,6.4,6.5,5.9,13.2,11.6,20.1,17.1Z"/>
  <path class="cls-2" d="M540.1,423.8c.2,12.6.3,25.3.4,37.9,0,4.4,0,8.9,0,13.3,0,.6,0,1.3,0,1.9,0,17.7-.3,35.3-.7,53-.3,11.3-.6,22.5-1,33.8-.2,5.5-.7,11.1-.6,16.6,0,3.7,1.7,10.6,6.9,9.2.2,0,.5,0,.7-.1v-52.1c0-37.7-.1-75.4-.1-113.1-1.9-.1-3.7-.2-5.6-.3Z"/>
  <path class="cls-2" d="M783.5,528.4c2,1.7,7.6,5.8,9.5,1.8,1.2-2.6-1.1-6.4-2.6-8.4-2.2-3.1-5.4-5.7-8.1-8.2-3-2.8-6.1-5.4-9.3-8-8.4-6.6-17.4-12.5-26.9-17.5.6.8,1.2,1.5,1.8,2.3,10.7,13.5,22.5,26.8,35.6,38Z"/>
  <path class="cls-2" d="M874.2,472.5c1.2-3,.3-6.7-.3-9.8-1.4-7.2-5.3-12-12.6-13.9-8.6-2.2-17.4-3.6-26.1-5.4,0,0,0,0,0,0,12.5,10.3,24.6,21.1,36.3,32.2,1.2-.7,2.1-1.7,2.7-3.2Z"/>
  <path class="cls-2" d="M603.4,432.3c.5,4.4.4,8.9.5,13.3.1,5.8.2,11.5.4,17.3.2,11.5.5,23,.7,34.5.2,9.9.4,19.8.5,29.7,24.7-18.6,43.2-45,52.6-74.5l-19.2-9.5c-11.9-3.6-23.7-7.3-35.6-10.9Z"/>
  <path class="cls-2" d="M580.4,551.3c.8,33.5.6,67.1-.3,100.6.5.2,1,.5,1.4,1,2.4,3.2,7.2,3.5,10.5,1.9,4.1-2,6.6-6.3,7.7-10.5,1.4-5.1,1.3-10.5,1.3-15.8,0-5.8,0-11.5,0-17.3,0-41-.8-82-1.6-123-.2-10.3-.4-20.5-.6-30.8-.1-5.2-.2-10.4-.3-15.6-.1-4.7,0-9.6-1.3-14.2-3.2-12.1-13.8-16.2-25.1-17.1.5,4.9.9,9.9,1.4,14.8,3.7,41.9,6,83.9,6.9,125.9Z"/>
  <path class="cls-2" d="M551.2,546.9c0,40.8,0,81.7.1,122.5,0,5,0,10.1,0,15.1,0,3.6,0,7.3.6,10.8.6,3.1,1.6,6.5,4,8.5,2.7,2.3,6.3,2.1,9.3.4,7.8-4.4,7.9-14.8,8.2-22.7.4-10,.8-19.9,1.1-29.9,1.2-40.4,1.1-80.9-.3-121.3-1.3-40.1-3.9-80.2-7.7-120.1-5,0-10,.4-14.3.8-.5,0-.9,0-1.2-.2,0,4.7,0,9.3,0,14,0,40.7,0,81.3.1,122Z"/>
  <path class="cls-2" d="M799.6,488.9c3.1,2.4,6.9,5.7,11.1,5.4,3.4-.3,5.9-3,4-6.3-1.9-3.3-5.7-5.3-9-7-4.1-2.2-8.2-4.4-12.4-6.6-8.1-4.2-16.3-8.3-24.5-12.3,3.6,3.6,7.3,7.1,11.1,10.5,6.3,5.7,12.9,11.1,19.6,16.3Z"/>
  <path class="cls-2" d="M451.3,517.1c1.4.9,2.8,1.8,4.2,2.7,1.7,1,3.4,2,5.1,3,22.3,12.5,47.5,19.7,73.2,18.9,0,0,.2,0,.3,0,.6-20.6.9-41.2,1-61.8,0-2,0-3.9,0-5.9,0-16.8,0-33.7-.4-50.5-1.8,0-3.5-.2-5.3-.3-1.6,0-2.5-1.2-2.7-2.7-.5-4.5-.6-8.9-.2-13.4,0-.6.3-1.1.6-1.5.3-1,1.1-1.8,2.5-1.8,13.4.3,26.8.5,40.2.8,9.7-1.3,19.7-2.7,29.2-5.4,18-14.4,30.4-35.1,34.7-57.9,7.3,5.9,16.5,9.3,26,9.4,13.2.2,25.4-6.6,33.2-17.1,16.9-22.7,4.5-57.1-23-63.9-11.4-2.8-23.2-.3-32.3,6.4-.2-.7-.4-1.3-.5-2-2.7.8-5.4,1.5-8.2,2.1-10.8,2.1-22.2,1.8-32.8-1.2-10.5-3-19.6-8.7-27.7-15.8-8.5-7.5-16-16.2-23.7-24.5-8.1-8.7-16.1-17.5-24.2-26.2-6.2,8.7-13.2,16.8-20.9,24.2-15.8,15-34.6,26.9-55,34.5-12.2,4.5-26.3,7-39.1,4.5-.4,1.4-.8,2.8-1.2,4.2-17.7-12.8-44.8-11.7-59,6.1-18.1,22.6-.8,57.2,25,64.2,9.6,2.6,20.2,1.4,28.9-3.2,1.5-.8,2.9-1.7,4.3-2.6.7,1.7,1.4,3.4,2.2,5.1,13.1,28.6,35.9,52.2,64.5,65.7,7.2,3.4,14.7,6.2,22.4,8.3-.5.6-1.1,1-2,.9-29.4-2.4-58.1-11.9-83.1-27.5.4,9.1.7,18.1,1.1,27.2-9.5,3.8-18.9,8-28.2,12.3,3.6,7.3,7.5,14.4,11.7,21.3,15.2,24.9,34.9,47.4,59.4,63.4ZM647.4,290.6c9.6-1.3,18.6,5,19.4,15,.9,9.8-7.3,17.9-16.9,17.9-3.5,0-3.5-5.4,0-5.4,6.4,0,11.9-5.1,11.5-11.7-.3-6.4-6.2-11.4-12.7-10.6-3.4.5-4.9-4.7-1.4-5.2ZM386.3,294.8c-6.5-.9-12.3,4.1-12.7,10.6-.3,6.6,5.1,11.7,11.5,11.7,3.5,0,3.5,5.4,0,5.4-9.6,0-17.8-8.1-16.9-17.9.9-9.9,9.8-16.3,19.4-15,3.4.5,2,5.7-1.4,5.2ZM562.6,299.3c0-.4,0-.8,0-1.2.1-2.2.2-4.4.5-6.6.2-1.9.8-3.7,2.7-4.6,5.5-2.4,5.7,5.2,5.5,8.5-.2,3.2-.8,11.4-6.2,9.2-1.2-.5-2-1.5-2.3-2.7-.3-.4-.4-.9-.4-1.6,0-.4,0-.7,0-1.1ZM511.8,299.6c12.2,1,24.3,2.1,36.5,3.1,2.4.2,3.5,2.8,1.9,4.6-7.3,8.6-14.6,17.2-21.9,25.8-2.3,2.7-6.1-1.2-3.8-3.8,6.1-7.2,12.3-14.5,18.4-21.7-10.4-.9-20.7-1.8-31.1-2.7-3.4-.3-3.5-5.7,0-5.4ZM483.9,293.5c-.2,3.2-.8,11.4-6.2,9.2-1.2-.5-2-1.5-2.3-2.7-.3-.4-.4-.9-.4-1.6,0-.4,0-.7,0-1.1,0-.4,0-.8,0-1.2.1-2.2.2-4.4.5-6.6.2-1.9.8-3.7,2.7-4.6,5.5-2.4,5.7,5.2,5.5,8.5ZM488.4,346.1c-3.1-1.5-.4-6.1,2.7-4.7,23.6,11.2,51.5,9.1,73.4-5.1,2.9-1.9,5.6,2.8,2.7,4.7-23.6,15.3-53.5,17.1-78.8,5.1Z"/>
  <path class="cls-2" d="M172.7,691.4c-14.3-12.6-28.7-25.1-43-37.7-19.3,31-35.7,63.7-49.1,97.7-12.9,32.8-22.8,66.7-29.6,101.3,13-24.4,27.6-48,43.7-70.6,23.2-32.5,49.3-62.9,78.1-90.7Z"/>
  <path class="cls-2" d="M270,698.6c-4.9.8-9.7,1.7-14.5,2.7-2.6.5-9.3,1.8-8.3,5.9.7,3.1,7.8,2.2,10.1,2.2,4.6,0,9.1,0,13.7-.3,9-.5,18-1.4,26.9-3,14.6-2.6,29-6.6,42.9-12-13.7-2-28.1-.7-41.6.6-9.7.9-19.4,2.2-29.1,3.8Z"/>
  <path class="cls-2" d="M240.7,752.7c-1.7.6-4.7,1.1-6,2.5-1.6,1.9,1.8,3.1,3.2,3.1,4.5,0,9.4-1.8,13.7-2.9,4.8-1.2,9.5-2.4,14.3-3.7,9.3-2.5,18.6-5.2,27.9-7.9,1.2-.3,2.3-.7,3.5-1-5.8.1-11.6.5-17.4,1.1-9,1-17.9,2.7-26.6,5-4.3,1.1-8.5,2.4-12.6,3.8Z"/>
  <path class="cls-2" d="M366.9,833.7c11.9-8.3,25.9-13.1,39.6-17.5,0-.2-.2-.5-.3-.7-6.5-18.1-11.7-39.7-2.4-57.8.2-.5.5-.8.9-1,.8-1.4,1.8-2.7,3-3.9,5.2-5.5,12.3-8.8,19.2-11.5-2-1.2-3.9-2.5-5.9-3.8-20.9-13.6-40.7-28.8-59.2-45.5-.3-.3-.5-.6-.7-.9-1.3.7-2.6,1.3-3.9,1.9,6.6,2.7,12.7,7.1,14.4,14.4,2,8.2-3.4,14.8-10.1,18.8-8.3,4.9-18,7.9-27.1,10.9-2.3.8-4.7,1.5-7.1,2.3,7.6,1.1,15.1,2.6,22.4,4.6,7.5,2,16.5,4.7,19.1,12.9,2.7,8.7-3.3,16.8-10,21.5-3.9,2.7-8.2,4.7-12.4,6.8-4.7,2.4-9.5,4.7-14.3,6.9-3.3,1.5-6.7,3.1-10.1,4.5,4.4.6,8.7,1.3,13,2.2,7.1,1.5,15.2,4.3,18.5,11.4,3.8,8.1,0,17.4-6.4,23-7,6.2-16.4,9.8-25,13-18.9,6.9-39.2,9.8-59.3,8.6-3.5-.2-3.5-5.6,0-5.4,8.8.5,17.6.3,26.4-.8,9-1.1,17.9-3.1,26.5-5.9,8.2-2.7,16.7-5.9,24.1-10.6,6.2-4,12.9-12,8.9-19.8-3.1-6.1-11.4-7.7-17.5-8.8-6.3-1.1-12.7-2-19-2.7-12.1,4.9-24.5,9-37.2,12.1-4.8,1.2-9.6,2.2-14.5,3.1-4,.7-8.1,1.6-12.1.7-3-.7-5.6-2.7-6.1-5.8-.7-4.1,2.5-7.2,5.9-8.8,8.5-4.2,18.6-6,28-7,10-1.1,20.1-1,30.1-.2,1.7.1,3.4.3,5.1.5.4-.1.7-.3,1.1-.4,8.5-3.5,16.9-7.3,25.1-11.3,4-1.9,7.9-3.9,11.8-5.9,3.7-1.9,7.4-3.9,10.3-6.9,2.7-2.7,4.8-6.5,4.5-10.5-.3-4-3.2-6.5-6.5-8.2-3.4-1.7-7.3-2.6-11-3.6-4.3-1.1-8.5-2.1-12.9-2.9-6.4-1.2-12.8-2-19.2-2.5-3.6,1.1-7.1,2.1-10.7,3.2-10.4,3.1-20.9,6.2-31.4,9.1-10.3,2.8-20.9,6.1-31.4,7.8-4.1.7-8.8.1-11.1-3.8-2.1-3.5-.7-7.4,2.7-9.5,3.9-2.3,8.9-3.4,13.2-4.7,4.8-1.5,9.7-2.7,14.7-3.8,17.6-3.8,35.7-5.1,53.7-3.8,11.5-3.4,22.9-7,34-11.4,6.1-2.4,15-5.4,17.9-12,3.7-8.2-5.1-14.7-11.9-17-1.4-.5-2.7-.9-4.1-1.3-17.5,7.5-35.8,12.9-54.7,15.9-9.9,1.6-19.9,2.5-29.9,2.8-4.8.1-9.8.3-14.6-.1-3.6-.3-7.5-1.6-8.8-5.4-1.3-3.7.5-7.7,3.5-9.9,3.7-2.8,8.7-3.3,13.1-4.2,10.6-2,21.3-3.6,32-4.9,19.2-2.2,39.9-4.5,58.9.2,6.5-2.9,14.7-5.9,19.1-11.9,4.9-6.6.8-14.6-5.6-18.4-7.7-4.5-17.8-5.2-26.5-6-9.4-.8-18.9-.8-28.4-.2-19.2,1.2-37.9,5.1-56.7,8.5-7.3,1.3-16,1.2-20.7-5.5-1.5-2.2-2-4.9-1.7-7.4-1.7,1.3-3.5,2.7-5.2,4-10.2,8.1-20.2,16.5-30,25.2-19.4,17.4-37.8,36-55,55.7-34.1,39-63.4,82.1-87.1,128.1,15.1.2,30.2.5,45.2.6,43.5.4,87,.4,130.5-.1,42.9-.5,85.7-1.4,128.6-2.8-2.7-3.5-3.4-8.3-2-12.6,2.1-6.2,7.6-10.5,12.7-14.1Z"/>
  <path class="cls-2" d="M251.6,806.4c-2.4,1-6.2,4-1.8,5.1,3.4.8,7.3-.3,10.6-.9,13.3-2.4,26.4-6.2,39.1-10.7-7.3-.3-14.7-.3-22,.5-8.7.9-17.9,2.6-26,6.1Z"/>
  <path class="cls-2" d="M658.8,897.6c-33.3,3.7-66.9,3.6-100.4,2.6-34.3-1-68.6-2.7-102.6-7.5-27.5-3.9-54.7-10.2-80.6-20.2,20,18.8,42.8,34.4,67.4,46.6,26.5,13.1,55,22,84.2,26.2,29.1,4.2,58.9,3.6,87.8-1.8,28.9-5.4,56.9-15.3,82.8-29.2,21.6-11.7,41.7-26.1,59.5-43-1.1.5-2.2,1-3.3,1.5-29.9,13.9-62.2,21.3-94.9,24.9Z"/>
  <path class="cls-2" d="M763.3,840.8c-13.2-9-28.1-15.2-43.8-18.4-11.4,24.9-27.2,48-45.9,67.7,0,0,0,0,0,.1,26.6-4,53-10.9,77.4-22.3,6.3-2.9,13.8-5.8,18.3-11.3,5.4-6.6-.5-12.1-6-15.9Z"/>
  <path class="cls-2" d="M434.1,864.8c-10.7-13.2-19.3-27.9-25.6-43.6-11.4,3.7-22.9,7.5-33.3,13.6-4.8,2.8-10.1,6.1-13.6,10.5-2.7,3.5-4.5,9.8-.1,12.8.3.2.5.4.6.6,2.7,1.9,5.5,3.8,8.2,5.6.2.2.4.3.6.5.3.1.6.3.9.4,27,11,55.5,17.7,84.3,21.9-8-6.8-15.4-14.3-22.1-22.4Z"/>
  <path class="cls-2" d="M799.3,763.1c-18.5,5.8-37.1,11.2-55.9,16.1,2.8,16,5.8,32,9.1,47.9,0,.4,0,.8,0,1.1,1,.5,2,1,2.9,1.5,6.5,3.5,14.3,7.5,18.8,13.6,3.9,5.2,3.2,11.3-.3,16.2,22.2.5,44.4.9,66.6,1.2-3.5-8.6-6.9-17.2-10.5-25.7-9.9-24.1-20.2-48-30.8-71.8Z"/>
  <path class="cls-2" d="M724.3,784c-7.4,6.2-17.5,8.5-26.5,11.2-39.5,11.8-80.8,17.8-122,18.4-41.3.6-82.7-4.2-122.8-14.2-9.8-2.4-19.9-4.9-29.4-8.5-7.8-2.9-15.3-7.4-19.2-14.8-.4,5.4.1,10.8,1.1,16.1,6.4,35,26.8,67.4,53.6,90.4,0,0,0,0,0,0,2.7,2,5.4,4,8.1,6,32.3,4,64.9,5.3,97.4,6.2,31.7.9,63.6.8,95.2-2.8,1.6-.2,3.2-.4,4.8-.6,0,0,.1-.2.2-.3,1.5-1.4,3-2.8,4.4-4.2,0-.1.2-.3.3-.4,7.1-7.5,13.7-15.4,19.8-23.7,10.7-14.7,19.8-30.6,27.1-47.2,3.7-8.5,7-17.2,9.5-26.1.9-3.1,1.6-6.2,1.9-9.4-1,1.4-2.2,2.7-3.6,3.8Z"/>
  <path class="cls-2" d="M266.6,643c-2.2.6-6.1,1.7-6.5,4.4-.3,2.6,2.5,5,4.2,6.6.2.2.4.4.5.7,5.3-1,10.6-2.1,15.9-2.9,10.4-1.6,20.9-2.8,31.4-3.3-8.9-4-18.7-5.8-28.5-6.3-5.6-.3-11.6-.6-17,.8Z"/>
  <path class="cls-2" d="M236.6,655.5c3.4,3,8.3,2.8,12.5,2.1,3.2-.5,6.4-1.1,9.5-1.7-3.7-4.3-5.9-10-.9-14.5,5-4.4,13-4.7,19.3-4.7,14,0,28.2,2.1,40.7,8.6,2.3-4.8,1.4-10.4-1.3-14.9-3.5-5.8-9.4-9-16-10.1-14.5-2.4-30.3,4.2-42.9,10.9-6.6,3.5-12.9,7.5-19,11.8,0,0-3.7,3.4-3.9,6.7h0c-.6,2,.4,4.6,1.9,6Z"/>
  <path class="cls-2" d="M542.8,806.9c4.5,1.1,9.9.9,14.5.7,4.4-.2,8.6-1,12.8-2.3,7.7-2.4,15-6,23-7.3,3.5-.6,8-1.3,11.4,0,1.7.7,2.8,2,3.5,3.6.3.7.6,1.5.8,2.3.2.5.5,1,.7,1.5,0,0,0,0,0,.1h0c0,.1.2.7.2.7l4-.3c11.7-1.1,23.3-2.7,34.9-4.8-2-.5-4-1-6-1.7-6.2-2.2-11.5-7.2-18.3-7.6-6.2-.3-12.6,1-18.7,1.7-6.5.8-13.1,1.7-19.6,2.6-5.3.7-10.8,2.1-16.2,1.7-5.3-.4-8.9-2.7-11.5-7.3-1.4-2.4-2.8-3.9-5.6-4.4-2.2-.4-4.5-.1-6.7.2-6.1.9-12.1,2.3-18.1,4-10.6,3-20.7,7.2-30.3,12.5,3.4.5,6.9,1,10.3,1.4l.9-.6c0,0,.2-.1.3-.2,0,0,.1,0,.2-.1h0s0,0,0,0c4.3-2.7,8.7-5.1,13.3-7.1,3.8-1.7,8.3-4.2,12.6-4.4,3.4-.2,6.3,2.1,6.3,5.6,0,1.9-.7,3.5-1.4,5.2-.9,2.4.2,3.6,2.6,4.2Z"/>
  <path class="cls-2" d="M522.7,737.9c-9.4,7.3-21.1,10.2-32.5,12.7-12.3,2.7-24.8,5.4-37.3,2.5-7-1.6-13.6-4.7-19.9-8.2-.2.2-.5.3-.7.3-.8.2-1.7.5-2.5.7-.1,0-.2,0-.3,0,0,0-.1,0-.2.1-3.4,1.3-6.8,2.8-10,4.7-5.9,3.4-12.1,8.5-12.1,16,0,9.3,8.8,15.5,16.5,18.6,2.9,1.1,5.8,2.1,8.8,3.1,0-.1.1-.2.2-.4,4.5-7.1,12.7-9.7,20.6-11.1,10.9-2,21.8-3.5,32.7-5,39.2-5.3,78.7-8,118.2-7.3,19.8.3,39.6,1.5,59.2,3.6,4.9.5,9.7,1.1,14.6,1.7,4.3.6,8.6,1,12.7,2.4,7,2.4,12.9,7.5,13.9,15,.8-.3,1.6-.5,2.4-.8,7.8-2.6,17.8-6.7,19.3-15.9,1.6-9.5-8.3-15.5-15.8-18.3-18.5-6.7-38-11.4-57.2-15.4-39.5-8.3-79.8-12.3-120.2-11.9-2.2,5.1-7.4,10.3-10.5,12.7Z"/>
  <path class="cls-2" d="M368.3,686.5c-.8.6-1.6,1.2-2.4,1.7,19.3,17.4,40.1,33.2,62,47.2,9.4,6,19.6,11.9,30.9,13.2,11.8,1.4,23.9-1.8,35.3-4.5,10.4-2.5,21.1-5.8,28.7-13.6,1.3-1.3,2.5-2.8,3.5-4.3-11.1.9-22.2,1.1-33.3.5-43.9-2.3-87-15.9-124-39.6-.3-.2-.6-.4-.7-.7Z"/>
  <path class="cls-2" d="M528.7,720.6c-.4-.7-1.5-1.1-2.2-1.3-5.1-1.7-10.8-2.2-16-3.2-43.9-8.2-88.4-14.7-130.9-28.9,7.9,4.7,16.1,8.9,24.5,12.7,38.9,17.4,82.2,24.6,124.7,20.7Z"/>
  <path class="cls-1" d="M444.5,267.2c20.4-7.6,39.2-19.5,55-34.5,7.8-7.4,14.7-15.5,20.9-24.2,8.1,8.7,16.1,17.5,24.2,26.2,7.7,8.3,15.2,17,23.7,24.5,8.1,7.1,17.3,12.9,27.7,15.8,10.7,3,22,3.3,32.8,1.2,2.8-.5,5.5-1.2,8.2-2.1-.5-1.8-1-3.5-1.6-5.2-3.9-11.8-9.6-22.9-16.8-33,18.5-5.4,36-16.7,46.8-32.6,6.4-9.4,9.5-21.5,3.9-32-5.1-9.7-15.5-15.2-26-16.3-7.9-.9-15.6.5-23,2.9,4.1-5.5,7.2-11.6,8.7-18.4,2.8-12.6-.3-26.6-11-34.5-12.5-9.2-29-7.6-42.9-3-12.6,4.2-24.4,10.5-34.9,18.6-7.4,5.7-14,12.2-19.8,19.5-1-4-2.5-7.9-4.7-11.5-5.1-8.5-13.5-13.7-23.2-15.2-10.2-1.5-20.6.2-30.5,2.5-10,2.4-19.7,5.9-28.9,10.3-18.6,8.9-35.8,22-48.7,38.2-6.4,8-11.9,17.1-13.6,27.3-1.6,9.7-.2,20.2,5.9,28.2,6.6,8.8,17.6,12.8,28.3,13.1,8.1.3,16-1.6,23.7-4.2-9.3,11.2-16.6,23.9-21.4,37.6-.6,1.7-1.2,3.4-1.7,5.1,12.8,2.5,26.9,0,39.1-4.5Z"/>
  <path class="cls-1" d="M648.9,295.8c6.5-.9,12.3,4.1,12.7,10.6.3,6.6-5.1,11.7-11.5,11.7-3.5,0-3.5,5.4,0,5.4,9.6,0,17.8-8.1,16.9-17.9-.9-9.9-9.8-16.3-19.4-15-3.4.5-2,5.7,1.4,5.2Z"/>
  <path class="cls-1" d="M387.7,289.6c-9.6-1.3-18.6,5-19.4,15-.9,9.8,7.3,17.9,16.9,17.9,3.5,0,3.5-5.4,0-5.4-6.4,0-11.9-5.1-11.5-11.7.3-6.4,6.2-11.4,12.7-10.6,3.4.5,4.9-4.7,1.4-5.2Z"/>
  <path class="cls-1" d="M511.8,305c10.4.9,20.7,1.8,31.1,2.7-6.1,7.2-12.3,14.5-18.4,21.7-2.2,2.6,1.6,6.5,3.8,3.8,7.3-8.6,14.6-17.2,21.9-25.8,1.6-1.8.5-4.4-1.9-4.6-12.2-1-24.3-2.1-36.5-3.1-3.5-.3-3.4,5.1,0,5.4Z"/>
  <path class="cls-1" d="M567.2,341c2.9-1.9.2-6.6-2.7-4.7-21.9,14.2-49.7,16.3-73.4,5.1-3.1-1.5-5.9,3.2-2.7,4.7,25.4,12,55.2,10.2,78.8-5.1Z"/>
  <path class="cls-1" d="M565.2,304.6c5.4,2.2,6-6,6.2-9.2.2-3.3,0-10.9-5.5-8.5-1.9.8-2.5,2.6-2.7,4.6-.2,2.2-.3,4.4-.5,6.6,0,.4,0,.8,0,1.2,0,.4,0,.7,0,1.1,0,.6.1,1.2.4,1.6.4,1.2,1.1,2.1,2.3,2.7Z"/>
  <path class="cls-1" d="M478.4,285c-1.9.8-2.5,2.6-2.7,4.6-.2,2.2-.3,4.4-.5,6.6,0,.4,0,.8,0,1.2,0,.4,0,.7,0,1.1,0,.6.1,1.2.4,1.6.4,1.2,1.1,2.1,2.3,2.7,5.4,2.2,6-6,6.2-9.2.2-3.3,0-10.9-5.5-8.5Z"/>
  <path class="cls-1" d="M492.5,419.5c-7.7-2.1-15.2-4.9-22.4-8.3-28.6-13.6-51.4-37.2-64.5-65.7.1,2.8.2,5.6.3,8.4.4,10.8.8,21.6,1.3,32.5,0,2.2.2,4.4.3,6.6,25,15.6,53.6,25.1,83.1,27.5.9,0,1.6-.3,2-.9Z"/>
  <path class="cls-1" d="M846.4,860.7c-13.7-34.2-28.1-68.2-43-101.8-15.2-34.1-31-67.9-47.4-101.4-16.4-33.5-33.5-66.7-51.2-99.6-2.3-4.2-4.6-8.5-6.9-12.7-2.1-3.8-4.3-7.6-5.8-11.7-1.3-3.7-2.3-7.9-1-11.7,1.3-3.6,4.5-6,8-7.1,8.4-2.5,17.3,1.8,24.8,5.2.7.3,1.4.7,2.2,1,7.5,7.7,15.3,15,23.4,22.1,7.4,6.5,15,12.7,22.8,18.7,3.6,2.7,7.4,6.5,11.9,7.8,3.5,1,7.7-.4,8.8-4.1,2.4-8.2-9-14.9-14.2-19-7.7-5.9-15.7-11.4-24-16.5-8.2-4.9-16.6-9.4-25.3-13.4-6.1-6.2-11.9-12.6-17.5-19.2-4-4.7-10.9-14.5-4-20,3-2.4,7.3-1.7,10.7-.8,3.8,1,7.6,2.5,11.3,4,1.9.7,3.7,1.5,5.5,2.3.7.9,1.3,1.8,2,2.7,5.9,7.9,12.1,15.5,18.6,22.8,6.5,7.3,13.3,14.2,20.5,20.9,5,4.7,14.9,12.7,20.7,4.3,4.4-6.5-1.7-14.7-6.2-19.2-6.5-6.4-13.6-12.4-21-17.7-9.6-7-20.2-13.4-31.3-18.4-2.2-3.1-4.4-6.3-6.6-9.5-2.4-3.5-4.8-7.1-6.8-10.9-1.5-3-2.9-7.4.3-9.8,4.5-3.3,12.3-.4,16.7,1.6,4.2,1.9,8.4,3.8,12.5,5.7,2.2,2.4,4.4,4.7,6.7,7.1,6.7,6.8,13.6,13.3,20.9,19.4,3.7,3.1,7.4,6.2,11.2,9.2,3.6,2.8,7.2,5.9,11.5,7.6,6.7,2.6,16.4-.9,15.5-9.4-1-8.7-12.1-12.9-18.7-16.4-14.4-7.6-29-14.9-43.8-21.8-4.6-5-9-10.1-13.3-15.3-3.6-4.5-7.1-9-10.5-13.7-.3,3.6.5,7.4,2,10.9-.2,0-.4,0-.6,0,3.3,4.3,6.8,8.5,10.3,12.7-.3-.1-.7-.3-1-.4-6-2.7-13.6-5.2-20.1-2.7-2.9,1.1-5.1,3.3-6.2,6.3-.5,1.5-.7,3-.6,4.5.2,2.9,1.4,5.8,2.8,8.3,2.5,4.4,5.2,8.7,8.1,12.9-2.8-1-5.6-2-8.4-2.8-5.4-1.6-11.7-1.8-16,1.3-.7.5-1.3,1.1-1.9,1.8-.8,1-1.5,2.1-2.1,3.5-3.3,8.2,1.6,16.1,6.7,22.2,3,3.6,6.1,7.1,9.3,10.6-4.8-1.7-9.8-2.8-14.8-2.3-8.2.9-15.7,6.2-16.7,14.8-1.1,9.2,4.5,18,8.7,25.7,10.1,18.6,20,37.3,29.7,56.1,19.3,37.4,37.8,75.3,55.6,113.5,6,13,12,26.1,17.8,39.3-18.1,5.7-36.3,11-54.6,15.8-3.7-21.6-6.9-43.2-9.6-64.9-.4-3.4-5.8-3.4-5.4,0,4.9,39.1,11.3,77.9,19.2,116.5-4.6-2-9.3-3.8-14.2-5.3-3.6-1.1-7.1-2-10.8-2.8,3.6-8.4,6.7-17.1,9.3-25.9,3.1-10.6,4.2-22.4-1.8-32.3-.2-.4-.5-.7-.8-.9-4.6-6.7-12.7-10-20.3-12.5-10.3-3.3-20.7-6.2-31.1-8.9-41.7-10.6-84.7-16.4-127.8-17.2-5,0-10.1-.1-15.1,0-.4-1.9-1.7-3.7-4.3-4.9-2.2-1-4.6-1.4-6.9-1.8-3.2-.6-6.4-1.2-9.5-1.8-6.2-1.2-12.4-2.3-18.6-3.4-12.7-2.3-25.5-4.5-38.2-7-27.8-5.3-55.5-11.6-82.2-21.1,3.8-6.8,1.7-14.9-3.6-20.4-6.7-6.9-16.9-8.4-26-9.6-7.5-1-15-1.4-22.5-1.5,5.2-9.5.7-21.5-7.5-27.9-10.7-8.2-25.7-6.7-37.8-3.1-27,7.9-49.7,26.4-70.9,44.2-10.1,8.4-19.8,17.2-29.4,26.2-14.7-12.9-29.3-25.7-44-38.6-1,1.5-2,3.1-2.9,4.6,14.3,12.6,28.7,25.1,43,37.7-28.7,27.7-54.9,58.1-78.1,90.7-16.1,22.6-30.6,46.1-43.7,70.6-.9,4.6-1.7,9.1-2.5,13.7v1.7c35.2.6,70.5.9,105.8.9,43.5,0,87-.4,130.5-1.3,24.6-.5,49.2-1.2,73.8-1.9.2,0,.4,0,.5,0,1,.5,2,.9,3,1.4,20,20.7,43.3,38.2,68.6,51.9,26.4,14.2,55,24.4,84.5,29.9,29.5,5.4,59.7,6.1,89.4,1.8,29.6-4.2,58.4-13.2,85.2-26.3,26.9-13.1,51.9-30.5,73.3-51.4,2.7-2.6,5.3-5.3,7.9-8,.2,0,.4,0,.7,0,43.9,1,87.7,1.6,131.6,1.7,43.7,0,87.4-.3,131.1-1.1,15.2-.3,30.4-.6,45.6-1v-5.4c-34.4.9-68.9,1.5-103.3,1.9-43.4.4-86.9.4-130.3-.1ZM747.1,531.7c7.5,4.3,14.7,9,21.7,14,3.7,2.7,7.3,5.4,10.9,8.3,2.8,2.3,6.6,4.7,7.9,8.2.7,1.9-.4,2.6-2.3,2-2-.7-3.8-2.3-5.5-3.6-3.6-2.7-7.2-5.4-10.7-8.2-6.9-5.5-13.6-11.2-20.1-17.1-2.3-2.1-4.7-4.3-7-6.4,1.7.9,3.4,1.9,5,2.8ZM772.9,505.7c3.2,2.5,6.3,5.2,9.3,8,2.8,2.5,5.9,5.1,8.1,8.2,1.5,2,3.8,5.8,2.6,8.4-1.9,4-7.5,0-9.5-1.8-13.1-11.2-24.9-24.5-35.6-38-.6-.7-1.2-1.5-1.8-2.3,9.5,5,18.5,10.9,26.9,17.5ZM793.3,474.4c4.1,2.2,8.3,4.3,12.4,6.6,3.3,1.8,7.1,3.7,9,7,1.9,3.3-.6,6-4,6.3-4.2.3-8-3-11.1-5.4-6.8-5.2-13.3-10.6-19.6-16.3-3.8-3.4-7.5-6.9-11.1-10.5,8.2,4,16.4,8.1,24.5,12.3ZM725.9,789.6c-2.5,8.9-5.8,17.6-9.5,26.1-7.3,16.7-16.4,32.6-27.1,47.2-6.1,8.3-12.7,16.2-19.8,23.7-.1.1-.2.3-.3.4-1.5,1.4-3,2.8-4.4,4.2,0,0-.2.2-.2.3-1.6.2-3.2.4-4.8.6-31.6,3.6-63.4,3.7-95.2,2.8-32.5-.9-65.1-2.2-97.4-6.2-2.7-2-5.4-4-8.1-6,0,0,0,0,0,0-26.9-22.9-47.3-55.4-53.6-90.4-1-5.3-1.5-10.7-1.1-16.1,4,7.4,11.5,11.9,19.2,14.8,9.5,3.5,19.5,6,29.4,8.5,40.1,10,81.5,14.8,122.8,14.2,41.2-.6,82.5-6.7,122-18.4,9-2.7,19.2-5,26.5-11.2,1.4-1.1,2.6-2.4,3.6-3.8-.4,3.2-1.1,6.4-1.9,9.4ZM535.3,791.8c-4.2.3-8.7,2.7-12.6,4.4-4.6,2.1-9.1,4.5-13.3,7.1h0s0,0,0,0c0,0-.1,0-.2.1,0,0-.2.1-.3.2l-.9.6c-3.4-.4-6.9-.9-10.3-1.4,9.6-5.3,19.8-9.5,30.3-12.5,5.9-1.7,12-3.1,18.1-4,2.2-.3,4.5-.5,6.7-.2,2.9.5,4.3,2,5.6,4.4,2.6,4.6,6.2,6.9,11.5,7.3,5.3.4,10.9-1,16.2-1.7,6.5-.9,13.1-1.7,19.6-2.6,6.1-.8,12.5-2.1,18.7-1.7,6.8.4,12.1,5.4,18.3,7.6,2,.7,4,1.3,6,1.7-11.6,2.1-23.2,3.6-34.9,4.8l-4,.3-.2-.6h0c0-.1,0-.2,0-.2-.2-.5-.5-1-.7-1.5-.3-.8-.5-1.5-.8-2.3-.7-1.6-1.9-3-3.5-3.6-3.4-1.4-7.9-.7-11.4,0-8,1.3-15.3,4.9-23,7.3-4.2,1.3-8.4,2.2-12.8,2.3-4.6.2-10,.4-14.5-.7-2.4-.6-3.5-1.8-2.6-4.2.7-1.7,1.4-3.3,1.4-5.2,0-3.5-2.9-5.9-6.3-5.6ZM533.2,725.2c40.4-.4,80.7,3.5,120.2,11.9,19.2,4.1,38.8,8.7,57.2,15.4,7.5,2.7,17.3,8.8,15.8,18.3-1.5,9.2-11.5,13.3-19.3,15.9-.8.3-1.6.5-2.4.8-.9-7.5-6.9-12.7-13.9-15-4.1-1.4-8.4-1.9-12.7-2.4-4.9-.6-9.7-1.2-14.6-1.7-19.7-2.1-39.5-3.3-59.2-3.6-39.5-.7-79.1,2-118.2,7.3-10.9,1.5-21.9,3-32.7,5-7.9,1.4-16.1,4-20.6,11.1,0,.1-.1.2-.2.4-3-.9-5.9-1.9-8.8-3.1-7.8-3.1-16.5-9.3-16.5-18.6,0-7.4,6.1-12.6,12.1-16,3.2-1.8,6.6-3.3,10-4.7,0,0,.1,0,.2-.1.1,0,.2,0,.3,0,.8-.2,1.7-.5,2.5-.7.3,0,.5-.2.7-.3,6.3,3.6,12.8,6.6,19.9,8.2,12.5,2.9,25.1.2,37.3-2.5,11.4-2.5,23.1-5.4,32.5-12.7,3.1-2.4,8.4-7.6,10.5-12.7ZM510.4,716.1c5.3,1,10.9,1.5,16,3.2.7.2,1.8.6,2.2,1.3-42.4,3.9-85.8-3.3-124.7-20.7-8.4-3.8-16.6-8-24.5-12.7,42.5,14.2,87,20.7,130.9,28.9ZM493.1,726.8c11.1.6,22.2.4,33.3-.5-1,1.5-2.2,3-3.5,4.3-7.7,7.8-18.4,11.1-28.7,13.6-11.4,2.7-23.5,5.9-35.3,4.5-11.3-1.3-21.4-7.2-30.9-13.2-22-13.9-42.7-29.8-62-47.2.8-.5,1.6-1.1,2.4-1.7.2.2.4.5.7.7,37,23.6,80.2,37.3,124,39.6ZM234.6,649.5c.3-3.3,3.9-6.7,3.9-6.7,6.1-4.3,12.4-8.3,19-11.8,12.6-6.7,28.3-13.2,42.9-10.9,6.6,1.1,12.5,4.3,16,10.1,2.7,4.6,3.7,10.1,1.3,14.9-12.5-6.4-26.7-8.5-40.7-8.6-6.3,0-14.3.3-19.3,4.7-5.1,4.5-2.8,10.2.9,14.5-3.2.6-6.3,1.2-9.5,1.7-4.2.7-9.1.8-12.5-2.1-1.6-1.4-2.5-4-1.9-6h0ZM312.1,648.5c-10.5.5-21,1.7-31.4,3.3-5.3.8-10.6,1.9-15.9,2.9-.1-.2-.3-.4-.5-.7-1.7-1.6-4.5-3.9-4.2-6.6.4-2.7,4.3-3.8,6.5-4.4,5.5-1.4,11.4-1.1,17-.8,9.8.5,19.5,2.3,28.5,6.3ZM356.1,860.4c-42.8,1.4-85.7,2.3-128.6,2.8-43.5.5-87,.5-130.5.1-15.1-.1-30.2-.3-45.2-.6,23.8-46,53.1-89.1,87.1-128.1,17.2-19.6,35.6-38.2,55-55.7,9.7-8.7,19.7-17.1,30-25.2,1.7-1.4,3.5-2.7,5.2-4-.4,2.5.2,5.2,1.7,7.4,4.7,6.8,13.4,6.9,20.7,5.5,18.9-3.4,37.5-7.4,56.7-8.5,9.5-.6,18.9-.6,28.4.2,8.7.7,18.8,1.4,26.5,6,6.4,3.8,10.4,11.7,5.6,18.4-4.4,5.9-12.5,9-19.1,11.9-19.1-4.7-39.7-2.4-58.9-.2-10.7,1.2-21.4,2.8-32,4.9-4.4.8-9.5,1.4-13.1,4.2-2.9,2.3-4.7,6.3-3.5,9.9,1.3,3.8,5.1,5.1,8.8,5.4,4.8.4,9.8.3,14.6.1,10-.3,20-1.2,29.9-2.8,18.8-3,37.2-8.3,54.7-15.9,1.4.4,2.7.8,4.1,1.3,6.7,2.3,15.5,8.8,11.9,17-2.9,6.6-11.8,9.5-17.9,12-11.1,4.4-22.5,8-34,11.4-17.9-1.3-36.1,0-53.7,3.8-4.9,1.1-9.8,2.3-14.7,3.8-4.3,1.3-9.3,2.4-13.2,4.7-3.4,2-4.8,5.9-2.7,9.5,2.4,3.9,7,4.5,11.1,3.8,10.6-1.7,21.1-5,31.4-7.8,10.5-2.9,20.9-6,31.4-9.1,3.6-1.1,7.1-2.1,10.7-3.2,6.4.5,12.9,1.3,19.2,2.5,4.3.8,8.6,1.7,12.9,2.9,3.7,1,7.6,1.9,11,3.6,3.4,1.7,6.3,4.2,6.5,8.2.3,4-1.8,7.7-4.5,10.5-2.9,2.9-6.6,5-10.3,6.9-3.9,2-7.8,4-11.8,5.9-8.3,4-16.6,7.8-25.1,11.3-.4.1-.7.3-1.1.4-1.7-.2-3.4-.3-5.1-.5-10-.8-20.1-1-30.1.2-9.4,1.1-19.5,2.8-28,7-3.4,1.6-6.5,4.7-5.9,8.8.5,3.1,3.1,5.1,6.1,5.8,4,1,8.1,0,12.1-.7,4.9-.9,9.7-1.9,14.5-3.1,12.7-3.1,25.1-7.3,37.2-12.1,6.4.7,12.7,1.6,19,2.7,6.1,1.1,14.4,2.6,17.5,8.8,4,7.8-2.7,15.8-8.9,19.8-7.3,4.7-15.8,8-24.1,10.6-8.6,2.8-17.5,4.8-26.5,5.9-8.7,1.1-17.6,1.3-26.4.8-3.5-.2-3.5,5.2,0,5.4,20.1,1.2,40.4-1.7,59.3-8.6,8.6-3.2,18.1-6.8,25-13,6.3-5.6,10.2-14.9,6.4-23-3.3-7.1-11.4-10-18.5-11.4-4.3-.9-8.6-1.6-13-2.2,3.4-1.5,6.7-3,10.1-4.5,4.8-2.2,9.6-4.5,14.3-6.9,4.2-2.1,8.5-4.1,12.4-6.8,6.8-4.7,12.7-12.8,10-21.5-2.6-8.3-11.6-10.9-19.1-12.9-7.4-2-14.9-3.5-22.4-4.6,2.4-.7,4.7-1.5,7.1-2.3,9.1-3,18.9-6,27.1-10.9,6.7-4,12.1-10.6,10.1-18.8-1.7-7.3-7.8-11.7-14.4-14.4,1.3-.6,2.6-1.2,3.9-1.9.1.3.4.6.7.9,18.5,16.7,38.3,31.9,59.2,45.5,1.9,1.3,3.9,2.5,5.9,3.8-6.9,2.7-14.1,6-19.2,11.5-1.2,1.2-2.2,2.6-3,3.9-.3.2-.7.5-.9,1-9.3,18.1-4.1,39.7,2.4,57.8,0,.2.2.5.3.7-13.7,4.4-27.7,9.2-39.6,17.5-5.2,3.6-10.6,7.9-12.7,14.1-1.5,4.4-.8,9.1,2,12.6ZM340.7,694.2c-13.8,5.4-28.3,9.4-42.9,12-8.9,1.6-17.9,2.6-26.9,3-4.6.2-9.1.3-13.7.3-2.3,0-9.3.9-10.1-2.2-1-4.1,5.7-5.4,8.3-5.9,4.8-1,9.7-1.9,14.5-2.7,9.6-1.6,19.3-2.9,29.1-3.8,13.5-1.3,27.9-2.6,41.6-.6ZM297.3,742.8c-1.2.3-2.3.7-3.5,1-9.3,2.7-18.5,5.4-27.9,7.9-4.7,1.3-9.5,2.5-14.3,3.7-4.3,1.1-9.2,2.9-13.7,2.9-1.4,0-4.8-1.2-3.2-3.1,1.2-1.4,4.3-1.9,6-2.5,4.2-1.4,8.4-2.7,12.6-3.8,8.7-2.3,17.6-4,26.6-5,5.8-.6,11.6-1,17.4-1.1ZM299.6,799.8c-12.8,4.6-25.8,8.3-39.1,10.7-3.4.6-7.2,1.7-10.6.9-4.5-1.1-.6-4.1,1.8-5.1,8.1-3.5,17.2-5.2,26-6.1,7.3-.7,14.7-.8,22-.5ZM370.9,864.9c-.2-.2-.3-.4-.6-.5-2.7-1.9-5.5-3.8-8.2-5.6-.2-.2-.4-.4-.6-.6-4.4-3.1-2.6-9.4.1-12.8,3.5-4.4,8.8-7.7,13.6-10.5,10.4-6.1,21.9-9.9,33.3-13.6,6.3,15.7,15,30.4,25.6,43.6,6.6,8.2,14,15.7,22.1,22.4-28.8-4.2-57.3-10.9-84.3-21.9-.3-.1-.6-.3-.9-.4ZM697.6,914.1c-25.9,14-53.9,23.9-82.8,29.2-28.9,5.4-58.7,6-87.8,1.8-29.2-4.3-57.8-13.2-84.2-26.2-24.6-12.1-47.4-27.8-67.4-46.6,25.9,9.9,53.1,16.2,80.6,20.2,34,4.9,68.3,6.5,102.6,7.5,33.5,1,67.1,1.2,100.4-2.6,32.6-3.6,65-11,94.9-24.9,1.1-.5,2.2-1,3.3-1.5-17.8,16.9-37.8,31.4-59.5,43ZM769.3,856.7c-4.5,5.5-12.1,8.4-18.3,11.3-24.4,11.4-50.8,18.3-77.4,22.3,0,0,0,0,0-.1,18.6-19.7,34.5-42.8,45.9-67.7,15.7,3.2,30.5,9.4,43.8,18.4,5.5,3.7,11.4,9.3,6,15.9ZM773.9,859.5c3.6-4.9,4.2-11,.3-16.2-4.5-6-12.3-10.1-18.8-13.6-1-.5-1.9-1-2.9-1.5,0-.3,0-.7,0-1.1-3.3-15.9-6.3-31.9-9.1-47.9,18.8-4.9,37.4-10.3,55.9-16.1,10.6,23.8,20.8,47.8,30.8,71.8,3.5,8.6,7,17.1,10.5,25.7-22.2-.3-44.4-.7-66.6-1.2Z"/>
  <path class="cls-1" d="M866.9,477c1.7-.1,3.3-.5,4.6-1.3-11.7-11.2-23.8-21.9-36.3-32.2-3.8-.8-7.6-1.6-11.3-2.3,14.3,11.4,28,23.5,41.3,36,.6,0,1.1,0,1.7-.1Z"/>
  <path class="cls-1" d="M450.8,523.2c1.7,1.1,3.3,2.1,5,3.1,8.9,5.2,18.2,9.6,28,13,16,5.6,33,8.4,50,7.9,0,0,0,0,0,0-.2,8-.5,16.1-.8,24.1-.2,5.7-1.2,12.2,1.5,17.6,2.1,4.2,6.6,6.9,11.2,6.1v69.7c0,9.4-.6,19,.3,28.3.7,6.5,2.7,14,9.2,17,6.9,3.1,14.5-.7,18.6-6.5,5.2-7.4,4.7-17.5,5.1-26.1.3-6.2.5-12.5.7-18.7,5,3.5,12.1,3.2,17.2-.6,7.6-5.7,9.1-15.5,9.3-24.4.4-22.7,0-45.4-.3-68.1-.1-10.7-.3-21.3-.4-32,.3,0,.7-.2,1-.5,26.4-19.4,46.3-46.8,56.4-77.9l-4.9-2.4c-9.4,29.5-27.9,55.8-52.6,74.5-.2-9.9-.3-19.8-.5-29.7-.2-11.5-.5-23-.7-34.5-.1-5.8-.2-11.5-.4-17.3,0-4.4,0-8.9-.5-13.3,11.9,3.6,23.7,7.3,35.6,10.9l-15.9-7.9,22.4,4.2c-14.4-4.4-28.7-8.8-43.1-13.2-2.1-7.6-7.1-13.5-14.2-17.2-.6-.3-1.3-.7-2-.9-.1,0-.2,0-.3-.1-.3-.1-.5-.2-.8-.3.7-.1,1.4-.2,2.1-.4,1-.2,1.9-.4,2.9-.5,1.8-.4,3.6-.7,5.3-1.1l-.2-3.5c1.3-1,2.7-2,3.9-3-9.5,2.7-19.4,4.1-29.2,5.4-13.4-.3-26.8-.5-40.2-.8-1.4,0-2.2.8-2.5,1.8-.3.4-.5.9-.6,1.5-.3,4.5-.2,8.9.2,13.4.2,1.5,1.1,2.6,2.7,2.7,1.8,0,3.5.2,5.3.3.3,16.8.4,33.7.4,50.5,0,2,0,3.9,0,5.9,0,20.6-.4,41.2-1,61.8,0,0-.2,0-.3,0-25.7.8-50.9-6.4-73.2-18.9-1.7-1-3.5-2-5.1-3-1.4-.9-2.8-1.8-4.2-2.7-24.5-16-44.2-38.5-59.4-63.4-4.2-6.9-8.1-14-11.7-21.3-1.6.8-3.2,1.5-4.8,2.3,9.4,19.2,20.9,37.3,34.9,53.5,11.8,13.5,25.4,25.4,40.5,35ZM597.1,427.7c1.2,4.6,1.2,9.5,1.3,14.2.1,5.2.2,10.4.3,15.6.2,10.3.4,20.5.6,30.8.8,41,1.5,82,1.6,123,0,5.8,0,11.5,0,17.3,0,5.3.1,10.6-1.3,15.8-1.2,4.2-3.7,8.5-7.7,10.5-3.4,1.6-8.2,1.2-10.5-1.9-.4-.5-.9-.8-1.4-1,1-33.5,1.1-67.1.3-100.6-1-42-3.3-84-6.9-125.9-.4-4.9-.9-9.9-1.4-14.8,11.3.9,21.9,5,25.1,17.1ZM552.3,411.2c4.3-.4,9.3-.9,14.3-.8,3.8,39.9,6.4,80,7.7,120.1,1.3,40.4,1.4,80.9.3,121.3-.3,10-.7,19.9-1.1,29.9-.4,7.9-.4,18.3-8.2,22.7-3,1.7-6.6,1.9-9.3-.4-2.5-2.1-3.5-5.5-4-8.5-.7-3.6-.6-7.2-.6-10.8,0-5,0-10.1,0-15.1,0-40.8,0-81.7-.1-122.5,0-40.7,0-81.3-.1-122,0-4.7,0-9.3,0-14,.3.1.8.2,1.2.2ZM545.9,589.3c-.2,0-.4,0-.7.1-5.2,1.4-6.8-5.5-6.9-9.2-.1-5.5.4-11.1.6-16.6.4-11.3.7-22.5,1-33.8.4-17.7.6-35.3.7-53,0-.6,0-1.3,0-1.9,0-4.4,0-8.9,0-13.3,0-12.6-.2-25.3-.4-37.9,1.9.1,3.7.2,5.6.3,0,37.7,0,75.4,0,113.1v52.1ZM531.9,418c-.2-2.9-.3-5.8-.1-8.7,4.6,0,9.3.2,13.9.3,0,.1,0,.2,0,.3,0,3,0,5.9,0,8.9-4.6-.3-9.2-.5-13.8-.8Z"/>
</svg>