<?xml version="1.0" encoding="UTF-8"?>
<svg id="Capa_1" data-name="Capa 1" xmlns="http://www.w3.org/2000/svg" viewBox="0 0 1080 1080">
  <defs>
    <style>
      .cls-1 {
        fill: #8b9f80;
      }

      .cls-2 {
        fill: #fcfcfb;
      }
    </style>
  </defs>
  <path class="cls-2" d="M222.6,706.3c-1.4-7.1-2.9-15.1-6-21.6-1.1-2.4-3-4.5-5.8-3.5-2.7.9-4.4,3.4-5.2,6-1.9,6.2,0,13.1,1.5,19.1,3.1,12.4,7.5,24.7,14.8,35.3,1.2-3.7,1.9-7.6,2.3-11.4.7-8,0-16-1.5-23.8Z"/>
  <path class="cls-2" d="M268.8,545.3c.8-11.5,2.8-22.9,6.1-34.2,3.1-10.5,7.2-21,14.3-29.5,6.1-7.3,14.8-13.4,24.8-12.1,9.6,1.2,16.7,8.6,21.8,16.3,6.2,9.4,10.2,20,14.4,30.4,19.5,49,33,100.2,52.2,149.3,1.8,4.6,3.6,9.1,5.5,13.6,2.7,4.8,5.4,9.7,8.2,14.5,13.2-10.7,27.1-20.6,41.5-29.6,9.8-6.1,19.9-11.8,30.2-17.1,5.1-2.6,10.2-5.1,15.3-7.5,4.3-2,8.7-4.3,13.4-5.1,3.9-.7,8.2-.4,11.1,2.5,3.7,3.6,3.3,8.8,1.5,13.2-2.2,5.2-5.3,10-8,14.9-2.8,5.2-5.4,10.4-8,15.7-14.5,29.7-26,60.8-34.3,92.8,7.3,1.8,14.7,3.5,22.2,4.9,2.7-2.3,5.4-4.5,8.2-6.7,3.5-2.8,7.1-5.6,10.8-8.2,2.8-2,5.9-5,9.5-4.7,7.6.4,6.9,10.1,6.6,15.4-.2,3.2-.4,6.4-.7,9.6,25.6,2.9,51.5,3.5,77.2,1.9-.5-23.1-2.1-46.1-6.1-68.9-6.2-35.3-20.3-69.1-23-105.1-2.6-34.5,6.2-68.4,12-102.2,2.9-16.9,5.1-34.1,4.7-51.3-.4-14.6-2-30.8-10.3-43.4-3.8-5.7-9.3-10.1-16-12-6.9-2-14.2-1.7-21.2-1.1-14,1.2-28.5,3.8-41.6-2.8-.1,0-.2-.1-.4-.2-16,4.5-33,6.3-49.1,4.2-22.3-2.9-42.3-15-56.9-32-1-1.2-2-2.3-2.9-3.5-5.9,6.5-14,10.3-22.8,11-18.2,1.3-33.4-13.8-34.2-31.7-.7-17.6,14.5-32.5,31.7-33.3-.4-1.8-.9-3.6-1.3-5.4-.1-.6-.1-1.1,0-1.5,0,0,0,0,0,0-.5-.2-1-.7-1.3-1.3-7.9-13.6-15.7-27.2-23.6-40.8-42.7,6.1-85.7,13.5-125.8,29.6-21.3,8.6-41.6,19.6-59.6,33.9-17.8,14.1-32.8,31.3-44.7,50.6-23.7,38.4-34.9,84.2-34.7,129.1,0,6.1.3,12.1.7,18.1,9.5-1.4,19.1-2.4,28.7-3.1,52.1-3.5,104.9,4.4,153.8,22.7ZM385.1,488.8c.8-4.8,1.9-9.4,3.4-14,.7-2.1,2.7-2.6,4.3-2,.2,0,.4,0,.6.1,23.8,7.7,48.7,10.8,73.7,9.1,1.8-.1,2.8,1,3.1,2.4.2.4.4.9.4,1.5.2,5,.5,10,.7,15,.5,1.8-.5,4.3-3,4.4-27.5,1.9-55.3-2.3-81-12.4-.9-.3-1.5-1-1.8-1.7-.4-.6-.6-1.4-.4-2.3ZM112.8,471.7c.1-.2.3-.3.4-.5,3.8-4.7,10.8-4.9,14.8-.2,3.8,4.6,3.6,11.7,0,16.3-3.7,4.7-11.2,6-15.7,1.6-5-4.9-3.1-12.2.5-17.2Z"/>
  <path class="cls-2" d="M211.9,737.7c-3.8-7-6.7-14.5-9-22.2-2.3-7.6-4.8-16-4.5-24,.3-6.8,3.4-14.1,10.3-16.5,6.8-2.3,12,2.3,14.4,8.4,3.1,7.8,5.1,16.5,6.5,24.8,1.4,8.5,1.9,17.2.7,25.8-.7,4.7-1.9,9.3-3.6,13.7,2.7,3,5.9,5.5,9.9,6.1,6.1,1,12.2-2.1,16.3-6.4,3.3-3.5,5.8-7.8,7.6-12.6-2.1-3.1-4-6.4-5.7-9.6-8.3-15.5-18.1-34-14.5-52.2,1.3-6.8,6.2-13.4,13.7-13.6,7.1-.2,11,6.1,13.1,12,5.6,16.1,6.4,34.2,3.3,50.9-.7,3.7-1.6,7.6-2.8,11.4,5,6.9,11.5,13.1,19.5,15.5,5.1-2.6,9.3-7.4,11.6-12.7,5-11.2,2.8-23.5-.3-34.9-3.5-12.8-7.4-25.5-11.1-38.2-10.4-35.9-20.1-73.9-18.7-111.4-6-2.3-12-4.4-18.2-6.4-52.5-16.9-108.8-21.6-163.4-13.5,3.9,41.1,16.9,81.2,34.9,118.3,11.1,22.8,24.2,44.6,38.7,65.4,12.5,18,28.6,42,53.9,39,.4,0,.9-.1,1.3-.2,1.3-1.9,2.4-3.8,3.4-5.9-2.8-3.5-5.2-7.3-7.2-11Z"/>
  <path class="cls-2" d="M265.2,710.3c.5-7,.3-14.2-.8-21.1-.9-6.2-2.1-13.3-5.1-18.9-1.3-2.5-3.3-4.9-6.5-4.2-2.8.6-4.7,3-5.7,5.5-2.3,6.1-1.3,13.7.1,19.9,2.9,12.3,9,24.3,15.5,35.2,1.3-5.6,2-11.2,2.4-16.4Z"/>
  <path class="cls-2" d="M272.7,843.5c-.1-5-.3-10.1-.4-15.1-.7-.4-1.3-1.1-1.6-1.8-1.6-1.8-3.3-3.5-4.9-5.3l-2.6,4.8c-1.5,3.5-2.9,6.9-4.3,10.4-.9,2.9-1.7,5.7-2.4,8.6,5.4-.6,10.7-1.1,16.1-1.6Z"/>
  <path class="cls-2" d="M247.9,852.6c-6.8.8-13.5,1.8-20.2,2.9-1.5.8-3,1.6-4.5,2.4-11.6,6.4-24.5,13.8-25.6,28.5,0,.8,0,1.6,0,2.4,12.6,11.2,26.8,20.7,41.9,28.3.6-21.7,3.5-43.4,8.5-64.5Z"/>
  <path class="cls-2" d="M288.7,765.5c-.5-.9-1.1-1.8-1.6-2.7-2-3-4-5.9-5.9-8.8-6.4-2.9-11.9-7.7-16.4-13.3-3.8,8.3-9.5,15.3-18.4,18.4-9,3.1-16.5,0-22.5-5.4,0,.2-.2.3-.3.5,11.9,17.6,24.2,34.9,37.1,51.8,1.3,1.4,2.6,2.8,3.9,4.2,8.1-14.9,16.2-29.8,24.2-44.7Z"/>
  <path class="cls-2" d="M854.4,853.6c2.8-3,2-8.6-1.4-10.9-2.1-1.4-4.8-1.4-7.1-.4-.2.2-.4.5-.7.7-3,2.4-4.2,7-1.8,10.3,2.5,3.3,8.1,3.3,10.9.3Z"/>
  <path class="cls-2" d="M393.4,272.2c0-.1-.2-.2-.3-.3l-94.1-128.8c2.6,6.8,5.4,13.6,8.3,20.3,4.8,11.4,10,22.6,15.3,33.8,7.8,16.3,16.1,32.4,24.5,48.5l12,20.7c10.7,5.3,22.6,7,34.3,5.9Z"/>
  <path class="cls-2" d="M344.6,194.5c-1.3-11.8-.7-23.7,1.2-35.5.9-5.4,2.1-10.8,3.4-16.2-.2-.3-.5-.6-.6-1-12.9-32.6,1-70.4,31.8-87,.4-.2.7-.3,1-.4,2.9-6.3,6.2-12.4,10-18.1-14.7-2.7-29.7-2.9-44.3.5-18.7,4.5-35.8,15.6-46.6,31.6-11.3,16.7-12.3,36.1-7.8,55,6.2,8.5,12.4,17,18.7,25.6,11.1,15.1,22.1,30.3,33.2,45.4Z"/>
  <path class="cls-2" d="M123.9,477c-.6-1.8-3.6-4.6-5.4-2.2,0,0-.1.2-.2.3-1.6,2.2-3.6,5.4-2.3,8.2,1.1,2.4,4.3,2.4,6.2.8,1.9-1.7,2.5-4.7,1.7-7.1Z"/>
  <path class="cls-2" d="M448.4,254.5c-12.7,10.3-27.8,18.6-43.7,22.3,9.5,13,19,25.9,28.4,38.9,22.9-4.8,44.2-19,60.3-35.3,19.4-19.6,33.1-44,43.3-69.4.7-3.9,3.1-8,4.5-11.6.3-.8,1.1-1.1,1.8-1.1,0,0,.2,0,.3-.1-9.2-14.1-18.4-28.2-27.7-42.2-2.3,6.5-4.9,12.8-7.8,19.1-13.7,29.9-33.8,58.5-59.4,79.4Z"/>
  <path class="cls-2" d="M377.1,83.3c-4.8,13.2-10.1,26.2-14.7,39.5-9.3,26.6-16.1,55.4-9.1,83.4,0,0,0,.2,0,.3,15.8,21.6,31.6,43.2,47.3,64.8,3.8-.7,7.5-1.7,11.1-2.9,3.1-1.1,6.1-2.3,9.1-3.7-20.9-30.1-41.8-60.3-62.7-90.4-2.4-3.4,3.2-6.7,5.6-3.3,21,30.3,41.9,60.5,62.9,90.8,8.4-4.6,16.2-10.4,23.4-16.9-27.3-36.7-53.4-74.3-78.3-112.6-2.3-3.5,3.3-6.8,5.6-3.3,24.6,37.9,50.5,75.1,77.4,111.4,6.9-6.7,13.2-14.1,19-21.6,0,0,0,0,0-.1-28.6-40.6-57.2-81.3-85.9-121.9-2.4-3.4,3.2-6.7,5.6-3.3,28.1,39.9,56.3,79.9,84.4,119.8,1.5-2.1,3-4.2,4.4-6.3,4.1-6,8-12.3,11.5-18.7,0-.1-.2-.2-.3-.4-29.5-42-59.1-83.9-88.6-125.9-2.4-3.4,3.2-6.7,5.6-3.3,28.9,41.1,57.8,82.1,86.7,123.2,5.5-10.6,10.1-21.5,13.9-32.8-12.2-18.7-24.5-37.3-36.7-56-5.9-9-11.8-18-17.7-27-5.2-7.9-10.1-16.1-15.8-23.7-4.6-6.2-10.2-12.1-17.8-14.6-5.8-1.9-11.9-1.2-17.3,1.5-5.1,4.9-9.5,10.7-13.1,16.9-6.8,11.7-11.1,24.5-15.7,37.1Z"/>
  <path class="cls-2" d="M464.7,498.9c-.2-3.4-.3-6.9-.5-10.3-23.8,1.3-47.7-1.7-70.4-8.8-.7,2.6-1.4,5.2-1.9,7.8,23.3,8.7,48,12.5,72.8,11.3Z"/>
  <path class="cls-2" d="M594.8,270.3c3,29.4-4.1,59.4-19.8,84.4-.5.9-1.3,1.3-2.1,1.5-9.6,16.2-25.2,28-42.4,35.4-3.2,1.4-6.5,2.7-9.9,3.9,13.5,3.6,28.6-1,42.2-.8,7.7.1,15.5,1.6,22,5.9,6.4,4.2,11.1,10.4,14.2,17.3,6.5,14.2,7.8,30.5,7.7,46-.1,17.4-2.7,34.8-5.8,51.9-6.2,34.8-14.7,69.8-10,105.4,2.4,18.1,7.5,35.7,12.3,53.3,4.9,17.8,9.1,35.7,11.6,54,2.6,18.8,3.7,37.7,4.1,56.6,17.4-1.4,34.8-3.8,51.9-7.2,12.7-12,25.6-23.8,38.6-35.4,12.5-11.3,25.1-22.5,37.6-33.7-6-11.4-12.1-22.8-18.1-34.2l-65.3-123.6c-2-3.7,3.7-7,5.6-3.3,6.3,11.8,12.5,23.6,18.8,35.5l64.1,121.2c20.9-18.7,41.8-37.3,62.6-55.9,3.1-2.8,7.7,1.8,4.6,4.6-33.4,29.8-66.8,59.6-100.1,89.5,9.7,10.9,19.1,22.1,28.1,33.6,32.5,41.6,59.9,86.9,81.6,135,25.7-15.9,50.7-33.2,73.6-53,6.4-5.5,12.6-11.3,18.6-17.2,15.2-27.1,25.9-56.7,32-87.2,10.7-53.1,7.8-108.2-7.5-160.1-15.6-53.2-43.2-102.2-78.1-145.1-36.3-44.7-80.6-82.2-129-113.2-43.2-27.7-89.5-50.1-137.3-68.9-2.1,1.4-4.2,2.8-6.5,4,0,0,0,.1,0,.2ZM836.7,842.2c4.1-6.8,13.7-9.4,20.3-4.6,6.2,4.5,7.5,14.2,2.6,20-4.9,5.8-14.7,6.3-20.1.9-3.5-3.5-4.4-8.9-3-13.6-.3-.8-.3-1.7.3-2.7Z"/>
  <path class="cls-2" d="M620.1,965.6c-.6.2-1.3.5-2,.7-8.2,2.4-17.8-.5-20.6-9.2-2.3-7,.3-14.5,3.4-21-7.7,1.4-16.8,2.3-23.7-2-7.9-4.8-8.7-14.3-6.6-22.6,2.4-9.4,7.3-18.4,11.9-26.9,8.5-15.8,18.7-30.5,29.9-44.5.2-16,.5-32.1.2-48.2-26,1.6-52.1,1-77.9-2-1.3,12.2-3.2,24.3-5.8,36.3-4.1,18.8-9.7,37.3-16.9,55.2,1.4,1.5,2.6,3.2,3.8,4.9.2.4.5.7.7,1.1,0,0,.1.2.2.3.2.4.4.7.6,1.1,0,0,0,0,0,.1.2.4.4.7.6,1.1,0,0,0,.2.1.2.2.4.4.8.5,1.2,0,0,0,0,0,.1.2.4.3.7.4,1.1,0,0,0,.1,0,.2.2.4.3.8.4,1.2,0,0,0,.1,0,.2.1.4.2.8.3,1.2,0,0,0,0,0,0,.1.4.2.9.3,1.3,0,0,0,0,0,.1.2.9.3,1.8.4,2.7,0,0,0,0,0,.1,0,.9.1,1.8,0,2.7,0,0,0,0,0,0,0,.9-.1,1.8-.3,2.8,0,0,0,0,0,0-.1.9-.3,1.7-.6,2.5,0,0,0,.1,0,.2,0,0,0,0,0,0,0,.2,0,.4-.1.5,0,.1-.1.3-.2.4h0c-.1.4-.3.9-.5,1.3,0,0,0,0,0,0-4.1,10.8-9.5,21-16.3,30.4-22.2,31-54.7,51.3-89.2,66.5-.7,7.6-1.4,15.1-2,22.7-1.3,16.6-2.3,33.3-3,50h210.3c.1-37.5.3-75,.4-112.5,0-.8.2-1.5.6-2Z"/>
  <path class="cls-2" d="M505.8,924.1s0,0,0,0c-.5.3-.9.5-1.4.7,0,0,0,0,0,0-.5.2-.9.5-1.4.7,0,0,0,0,0,0-.4.2-.9.4-1.3.6,0,0-.1,0-.2,0-.4.2-.9.4-1.3.6,0,0-.2,0-.3.1-.4.2-.8.3-1.2.5-.1,0-.3.1-.4.2-.4.1-.7.3-1.1.4-.2,0-.5.2-.7.2-.3,0-.5.2-.8.3-.5.2-1,.3-1.5.5-11.8,3.9-24.1,6.5-36.1,9.2-13,2.9-26.2,5.4-39.4,7.4-48.9,7.2-99.6,7.2-147-8.1-26.4-8.5-51.4-21.5-72.8-39.1.8,3.1,1.8,6.2,2.9,9.2,2.4,6.5,4.8,12.9,7.6,19.3,5.4,12.5,12.3,24.8,22.5,34,10.3,9.2,23.1,15.1,36.1,19.4,14.5,4.8,29.5,8.3,44.4,11.2,30.8,6,62.2,8.9,93.5,8.5,2.9,0,5.7-.1,8.6-.2,0,0,0,.2,0,.3,4.1-1.8,8.1-3.7,12.1-5.7,31.8-15.9,62-38.7,79.2-70.1Z"/>
  <path class="cls-2" d="M249.7,845.4c-.6.2-1.2.5-1.7.7.5,0,1.1-.1,1.6-.2,0-.2,0-.3.1-.5Z"/>
  <path class="cls-2" d="M495.2,876.2c-19.7-12-43.6-15.9-66-19.7-25.1-4.3-50.4-7-75.8-8.1-32.9-1.5-65.9-.3-98.6,3.4-4.7,19.2-7.6,38.8-8.6,58.6,1.8-2.9,4.4-5.4,7.4-7.1,8.2-4.6,18.7-5,27.9-6.2,36.8-4.5,74.1-4.7,110.9-.5,18.3,2.1,36.5,5.2,54.4,9.4,9.1,2.1,18.2,4.6,27.1,7.3,3.8,1.1,8,2.4,10.4,5.8.5.8.9,1.6,1.2,2.4,7.1-12.4,13.5-25.3,18.9-38.5-2.9-2.6-6.2-4.9-9.3-6.8Z"/>
  <path class="cls-2" d="M455.8,914.9c-8.7-2.3-17.4-4.3-26.2-6-31.7-6.3-64-9.2-96.3-8.8-16.3.2-32.6,1.3-48.8,3.1-7.7.9-16,1.5-23.4,3.8-6.1,2-12.9,7.4-10.4,14.6.1.3.2.6.2.9,11.7,5.2,23.9,9.3,36.2,12.5,47,12.3,96.6,10.2,144,1.8,12.5-2.2,25-4.9,37.4-7.9,3.4-.8,7-1.6,10.5-2.5,0-.5.1-1,.4-1.5,2.4-4.8-20.4-9.4-23.6-10.2Z"/>
  <path class="cls-2" d="M315.7,816c-7.2-14.9-15-29.5-23.3-43.9-7.8,14.4-15.6,28.8-23.4,43.1,2.1,2.2,4.2,4.5,6.2,6.7,13.4-2.5,26.9-4.4,40.4-6Z"/>
  <path class="cls-2" d="M658.2,924.9c.3-.6.6-1.2.7-1.9.2-.8,0-1-.8-.7-.6,0-1.6.5-2.1.8-1.9.9-3.7,2.1-5.3,3.3-6.9,5-11.9,12.2-15.5,19.9-.6,1.3-1.2,2.6-1.7,4,6.1-4,11.6-8.8,16.5-14.3,3-3.3,6.2-7.1,8.2-11.2Z"/>
  <path class="cls-2" d="M279.1,843c14.2-1.1,28.5-1.6,42.8-1.7,0,0,0,0,0,0-.3-6.5-1.4-12.8-3.3-19,0,0,0,0,0,0-13.3,1.4-26.6,3.3-39.8,5.7l.4,15Z"/>
  <path class="cls-2" d="M492.2,922.9c2.5-.9,5-1.8,7.4-3,7.9-3.7,15.7-10.1,14.8-19.7-.4-4.5-2.3-8.6-5.1-12.1-5.1,11.9-10.8,23.5-17.1,34.8Z"/>
  <path class="cls-2" d="M529.4,765.5c-.7-.7-.4-.3-1.2,0-1.6.6-3.1,2.1-4.5,3.1-4.9,3.6-9.8,7.3-14.5,11.2.8.1,1.5.3,2.3.4,5.8,1,11.7,1.9,17.5,2.6.1-1.4.2-2.8.3-4.2.3-3.6,1-7.6.5-11.2,0-.5,0-1.5-.4-1.8Z"/>
  <path class="cls-2" d="M647.5,920.8c4.6-3.4,16.2-9.3,17.9.4.7,4.2-2.1,8-4.4,11.3-2.5,3.6-5.2,6.9-8.2,10.1-6.1,6.5-13.3,12-21,16.5-.3.2-.6.3-.9.4,0,0-.1,0-.2.1-.9,3.9-1.3,7.9-1,11.9.6,8.3,5.4,14.8,12.9,18.1,8.3,3.7,17.8,2.8,26.5,1,17.9-3.7,35.1-10.6,51.5-18.7,16.3-8,32-17,47.9-25.8,15.6-8.7,31.1-17.5,46.5-26.6,2.8-1.7,5.6-3.4,8.4-5-5.9-13.1-12.3-26.1-19-38.8-24.7-46.4-54.9-89.7-90-128.8-28.2,25.4-56.3,51.2-81.6,79.5-12,13.4-23.3,27.5-33.2,42.5-4.9,7.4-9.4,15.1-13.5,23.1-3.8,7.4-8,15.2-9.6,23.4-.8,3.9-.8,8.3,1.9,11.5,2.3,2.7,5.9,3.6,9.2,3.9,5.7.5,11.6-.4,17.2-1.9,3.9-6.8,8.7-13.3,14.1-19,3.2-3.5,6.7-6.7,10.3-9.7,3.4-2.7,7-5.9,11.3-7,3.7-1,7.7-.3,9.8,3.2,2.2,3.7.6,8.2-1.7,11.4-5.3,7.4-12.8,13.5-20.5,18.3-5.9,3.6-12.3,6.4-18.9,8.4-.4.7-.8,1.4-1.1,2.1-2.9,5.7-7.8,15.4-3.1,21.4,5.1,6.4,13.9,1.9,19.9-2,1.6-5.9,4.1-11.7,6.7-16.5,3.9-7.1,9.2-13.5,15.8-18.3Z"/>
  <path class="cls-2" d="M470.3,817.7c-1,1.1-2.1,1.3-3.1.9-2,.2-4.4-1.4-3.9-4.1,2.1-12.3,4.6-24.5,7.6-36.6-1-.3-2-.5-3-.8-10,24.4-18,49.7-23.9,75.5,4.1.8,8.2,1.7,12.3,2.6,17,3.8,36.9,9.4,50.7,21.3.6-1.4,1.1-2.9,1.7-4.3,10-26.7,16.6-54.7,19.6-83-8.6-1.1-17.1-2.4-25.6-4-11.6,10.1-22.4,20.9-32.5,32.5Z"/>
  <path class="cls-2" d="M662.4,786c-11.6,2-23.3,3.6-35,4.8-2.7.3-5.5.5-8.2.7.2,13.5,0,27.1,0,40.6,13.6-16.1,28.2-31.4,43.3-46.1Z"/>
  <path class="cls-2" d="M373.5,74.3c1.2-3.3,2.4-6.6,3.7-9.9-9.8,6.9-17.6,16.4-22.3,27.5-5.3,12.7-6,26.9-2.6,40.1,6-19.6,14.2-38.6,21.2-57.8Z"/>
  <path class="cls-2" d="M642.3,905.1c1-1.2,2.5-2.8,2.6-4.4.1-2.3-1.8-1.9-3.4-1.3-3.7,1.4-7,4.6-10,7.1-3.2,2.7-6.2,5.7-9,8.8-2.9,3.2-5.5,6.5-7.9,10,6.6-2.7,12.8-6.4,18.3-10.9,3.4-2.8,6.6-5.9,9.4-9.3Z"/>
  <path class="cls-2" d="M912.5,857.4c-8.2,7.5-16.7,14.7-25.6,21.5-31.1,24-64.8,44.3-99,63.6-17.4,9.8-34.8,19.7-52.4,29-17.5,9.2-35.7,17.6-54.8,22.9-16.7,4.6-39,8.4-51.5-7-1.3-1.6-2.4-3.4-3.3-5.2,0,10,0,20-.1,29.9,0,22.6-.2,45.2-.2,67.9h254.2c10.3-61.9,19.7-124,28-186.2,1.6-12.1,3.2-24.3,4.8-36.4Z"/>
  <path class="cls-2" d="M379.5,301.3c10,11.8,25.3,16.7,40.4,16.1,2,0,4-.3,6-.5-9.4-12.9-18.9-25.8-28.3-38.7-11.1,1.6-22.4,1-33.3-2.7l14.7,25.3c.2.1.3.3.5.5Z"/>
  <path class="cls-2" d="M378.1,319.7c-9.1,0-17.8,4.8-22.7,12.5-4.9,7.7-5.1,17.2-1,25.3,4.2,8.1,11.9,13.8,21.2,14.2,8.4.4,17.2-3.1,22.5-9.8-8.9-12.8-15.3-27.2-19.6-42.2-.1,0-.2,0-.3,0ZM382.1,352.2c4-1.2,5.7,5.1,1.7,6.3-6.8,2-14.5-1.2-17.5-7.8-3-6.6-.1-14.4,5.8-18.2,3.5-2.3,6.8,3.3,3.3,5.6-7.8,5.1-2.1,16.7,6.7,14.2Z"/>
  <path class="cls-2" d="M471.2,806.9c7.5-8.2,15.3-16,23.6-23.4-5.9-1.2-11.8-2.6-17.6-4-2.2,9.1-4.3,18.2-6,27.4Z"/>
  <path class="cls-2" d="M467.4,770.2c1.7.5,3.4.9,5.1,1.4,2.6-10.1,5.6-20.1,8.8-30.1,6.9-21.1,15.3-41.8,24.9-61.8,4.8-9.9,9.9-19.5,15.2-29.2,1.8-3.3,4.9-10-1.2-10.4-4.3-.3-8.6,2.1-12.3,3.9-31.7,14.5-61.5,33-88.5,55,14.5,24.4,30.1,48.1,46.9,71,.3,0,.7,0,1.1.1Z"/>
  <path class="cls-1" d="M562.4,235.5c1.1-6.6,9.3-7.8,12.9-2.3,3.8,5.9-.5,13.1-6.3,15.4-3.8,1.6-2.1,7.9,1.7,6.3,10.1-4.2,16.9-16.7,9.2-26.4-6.9-8.5-21.8-6.3-23.7,5.3-.7,4.1,5.6,5.9,6.3,1.7Z"/>
  <path class="cls-1" d="M375.5,338c3.5-2.3.2-7.9-3.3-5.6-5.9,3.9-8.8,11.6-5.8,18.2,3,6.6,10.7,9.7,17.5,7.8,4-1.2,2.3-7.4-1.7-6.3-8.8,2.5-14.5-9.1-6.7-14.2Z"/>
  <path class="cls-1" d="M467.4,340.6c-9.1,1-18.3,1.3-27.5.9,6.1-6.2,12.3-12.3,18.7-18.4,3-2.9-1.6-7.5-4.6-4.6-8,7.6-15.9,15.5-23.6,23.4-2.1,2.1-.4,5.3,2.3,5.5,11.6,1,23.2.9,34.7-.4,4.1-.5,4.2-7,0-6.5Z"/>
  <path class="cls-1" d="M496.8,327.9c-4.8,15.1-19.1,26.4-34.9,27.5-4.1.3-4.2,6.8,0,6.5,18.8-1.4,35.4-14.3,41.2-32.3,1.3-4-5-5.7-6.3-1.7Z"/>
  <path class="cls-1" d="M250.2,545.6c6.1,2,12.2,4.1,18.2,6.4,0-2.3.2-4.5.4-6.7-48.9-18.4-101.6-26.2-153.8-22.7-9.6.6-19.2,1.7-28.7,3.1.2,2.2.3,4.3.5,6.5,54.5-8.1,110.8-3.4,163.4,13.5Z"/>
  <path class="cls-1" d="M128,487.3c3.6-4.6,3.8-11.7,0-16.3-4-4.8-11-4.6-14.8.2-.1.1-.3.3-.4.5-3.5,5-5.5,12.4-.5,17.2,4.5,4.4,12,3.1,15.7-1.6ZM116.1,483.3c-1.3-2.8.7-6,2.3-8.2,0,0,.1-.2.2-.3,1.8-2.4,4.8.4,5.4,2.2.8,2.3.2,5.4-1.7,7.1-1.8,1.6-5,1.6-6.2-.8Z"/>
  <path class="cls-1" d="M839.4,858.4c5.4,5.5,15.2,5,20.1-.9,5-5.9,3.6-15.6-2.6-20-6.6-4.8-16.2-2.2-20.3,4.6-.6,1-.6,1.9-.3,2.7-1.4,4.6-.5,10,3,13.6ZM845.3,843c.3-.2.5-.5.7-.7,2.3-1,4.9-1,7.1.4,3.4,2.3,4.2,7.9,1.4,10.9-2.7,2.9-8.4,3-10.9-.3-2.5-3.3-1.2-7.9,1.8-10.3Z"/>
  <path class="cls-1" d="M402.4,713.7c0,0-.1.1-.2.2,0,0,.1-.1.2-.2h0Z"/>
  <path class="cls-1" d="M625.9,982.2c.9,1.8,1.9,3.5,3.3,5.2,12.5,15.4,34.9,11.6,51.5,7,19.2-5.3,37.3-13.7,54.8-22.9,17.7-9.3,35.1-19.1,52.4-29,34.2-19.3,67.9-39.6,99-63.6,8.9-6.9,17.3-14.1,25.6-21.5.1-1,.3-2.1.4-3.1,2.8-4.4,5.5-9,8.1-13.6-6,5.9-12.2,11.7-18.6,17.2-22.9,19.8-47.8,37.1-73.6,53-21.7-48.1-49.1-93.4-81.6-135-9-11.5-18.4-22.7-28.1-33.6,33.3-29.9,66.8-59.7,100.1-89.5,3.1-2.8-1.5-7.4-4.6-4.6-20.9,18.7-41.8,37.3-62.6,55.9l-64.1-121.2c-6.3-11.8-12.5-23.6-18.8-35.5-2-3.7-7.6-.4-5.6,3.3l65.3,123.6c6,11.4,12.1,22.8,18.1,34.2-12.5,11.2-25.1,22.4-37.6,33.7-12.9,11.6-25.9,23.4-38.6,35.4-17.1,3.4-34.5,5.8-51.9,7.2-.4-18.9-1.6-37.8-4.1-56.6-2.5-18.3-6.8-36.2-11.6-54-4.8-17.6-9.8-35.2-12.3-53.3-4.7-35.6,3.7-70.6,10-105.4,3.1-17.1,5.7-34.4,5.8-51.9.1-15.4-1.2-31.8-7.7-46-3.2-6.9-7.9-13.1-14.2-17.3-6.5-4.3-14.3-5.8-22-5.9-13.6-.2-28.8,4.4-42.2.8,3.4-1.2,6.6-2.5,9.9-3.9,17.2-7.4,32.8-19.3,42.4-35.4.8-.2,1.5-.6,2.1-1.5,15.8-25,22.9-55,19.8-84.4,0,0,0-.1,0-.2,2.2-1.2,4.4-2.5,6.5-4-.3-.1-.6-.2-.8-.3,2.8-3,5.1-6.4,6.8-10.1-2.1,3.9-4.9,7.5-8.4,10.4-7,5.8-15.7,9.1-24.7,9.3.9,4.6,1.6,9.3,2,13.9,3,16.6,2.9,33.8-2.5,49.8-6.5,19.7-21.4,34.3-39.6,43.6-18.9,9.7-41.6,14.9-62.9,14.2-21.8-.6-41.6-10.1-56.8-25.6-15.7-15.8-25.2-36.4-30.8-57.7,7.7,5.6,16.7,8.6,26.1,9.5-.2,2.4.3,4.9,1.4,7.1,1.4,2.7,4.5,4.5,7.3,2.4,2.1-1.6,2.1-4.4,1.3-6.7-.3-.9-.8-1.8-1.3-2.5,13.3-.3,27-4,38.7-9.4,9.9-4.5,19-10.3,27.4-17,.5,4,3.4,7.4,7.3,8.6,2.1.7,4-1.1,4.1-3.1.2-3.4-.5-7.1-2.3-10-.4-.7-1-1.3-1.7-1.8,11.1-10.1,20.8-21.8,28.9-34.3,7.8-11.9,14.2-24.6,19.7-37.6,0,0,.2,0,.3,0,2.6-4.7,6.2-8.9,10.5-12.1,0,0,0,0,0,0,0-.3-.2-.5-.4-.8-2-2.5-4-5-6-7.5-.4-.5-1-.6-1.5-.5,0,0-.2,0-.3.1-.7,0-1.4.3-1.8,1.1-1.5,3.7-3.8,7.7-4.5,11.6-10.2,25.4-23.9,49.8-43.3,69.4-16.1,16.3-37.4,30.5-60.3,35.3-9.5-13-19-25.9-28.4-38.9,15.9-3.7,31-12,43.7-22.3,25.6-20.9,45.7-49.6,59.4-79.4,2.9-6.3,5.5-12.6,7.8-19.1-1.5-2.3-3-4.6-4.5-6.9-3.8,11.3-8.5,22.2-13.9,32.8-28.9-41.1-57.8-82.1-86.7-123.2-2.4-3.4-8-.2-5.6,3.3,29.5,42,59.1,83.9,88.6,125.9,0,.1.2.2.3.4-3.5,6.4-7.4,12.6-11.5,18.7-1.4,2.1-2.9,4.2-4.4,6.3-28.1-39.9-56.3-79.9-84.4-119.8-2.4-3.4-8-.1-5.6,3.3,28.6,40.6,57.2,81.3,85.9,121.9,0,0,0,0,0,.1-5.8,7.5-12.1,14.9-19,21.6-27-36.3-52.8-73.5-77.4-111.4-2.3-3.5-7.9-.2-5.6,3.3,24.9,38.3,51,75.9,78.3,112.6-7.2,6.5-15,12.3-23.4,16.9-21-30.3-41.9-60.5-62.9-90.8-2.4-3.4-8-.2-5.6,3.3,20.9,30.1,41.8,60.3,62.7,90.4-3,1.4-6,2.6-9.1,3.7-3.6,1.2-7.4,2.2-11.1,2.9-15.8-21.6-31.6-43.2-47.3-64.8,0,0,0-.2,0-.3-7-28-.2-56.8,9.1-83.4,4.6-13.3,9.9-26.3,14.7-39.5,4.6-12.6,9-25.4,15.7-37.1,3.6-6.2,8-12,13.1-16.9-1.3.6-2.5,1.3-3.6,2.1-2.5,1.8-4.6,3.7-6.4,5.9-1.5-.3-3-.6-4.4-.9-3.9,5.6-7.1,11.8-10,18.1-.3,0-.7.2-1,.4-30.8,16.7-44.7,54.4-31.8,87,.2.4.4.7.6,1-1.4,5.3-2.5,10.7-3.4,16.2-1.9,11.8-2.6,23.7-1.2,35.5-11.1-15.1-22.1-30.3-33.2-45.4-6.2-8.5-12.4-17-18.7-25.6.5,1.9,1,3.8,1.5,5.6,1.4,4.7,3,9.3,4.7,13.9l94.1,128.8c0,.1.2.2.3.3-11.7,1.1-23.6-.6-34.3-5.9l-12-20.7c3.1,5.9,6.3,11.9,9.4,17.8-2,.3-4.1.6-6.1.9,7.9,13.6,15.7,27.2,23.6,40.8.4.6.8,1,1.3,1.3,0,0,0,0,0,0-.1.5-.1,1,0,1.5.4,1.8.8,3.6,1.3,5.4-17.2.7-32.5,15.6-31.7,33.3.7,17.9,16,33,34.2,31.7,8.9-.6,16.9-4.5,22.8-11,.9,1.2,1.9,2.4,2.9,3.5,14.6,16.9,34.6,29.1,56.9,32,16.1,2.1,33.1.2,49.1-4.2.1,0,.2.1.4.2,13.1,6.6,27.6,4,41.6,2.8,7.1-.6,14.4-1,21.2,1.1,6.7,1.9,12.2,6.3,16,12,8.3,12.5,10,28.7,10.3,43.4.4,17.2-1.8,34.4-4.7,51.3-5.8,33.7-14.6,67.7-12,102.2,2.7,36,16.8,69.8,23,105.1,4,22.8,5.6,45.8,6.1,68.9-25.7,1.6-51.6,1-77.2-1.9.3-3.2.5-6.4.7-9.6.3-5.3,1-14.9-6.6-15.4-3.7-.2-6.8,2.7-9.5,4.7-3.7,2.7-7.3,5.4-10.8,8.2-2.8,2.2-5.5,4.4-8.2,6.7-7.4-1.5-14.8-3.1-22.2-4.9,8.3-32,19.8-63.1,34.3-92.8,2.6-5.3,5.2-10.5,8-15.7,2.6-4.9,5.8-9.7,8-14.9,1.8-4.4,2.2-9.6-1.5-13.2-2.9-2.9-7.3-3.2-11.1-2.5-4.7.8-9.1,3.1-13.4,5.1-5.2,2.4-10.3,4.9-15.3,7.5-10.3,5.3-20.3,11-30.2,17.1-14.4,9-28.3,18.9-41.5,29.6-2.8-4.8-5.5-9.6-8.2-14.5,2.7,6.4,5.5,12.8,8.5,19.1-1.1,1.1-2.1,2.3-3.2,3.4l1.2,1.8c14.6,24.6,30.5,48.5,47.5,71.6-10.2,24.8-18.3,50.3-24.2,76.4-19.4-3.6-39.1-6.1-58.7-7.8-16.8-1.5-33.7-2.2-50.5-2.3,0,0,0,0,0,0-.4-8-1.8-15.9-4.4-23.5-.2-.6-.5-1-.9-1.4,0-.1-.1-.3-.2-.4-8.3-17.2-17.2-34.1-26.8-50.6.7-1.2,1.3-2.4,2-3.7-2,3-3.9,5.9-5.8,8.9-1.7-2.6-3.5-5.2-5.2-7.8.5.9,1.1,1.8,1.6,2.7-8.1,14.9-16.2,29.8-24.2,44.7-1.3-1.4-2.6-2.8-3.9-4.2,2.4,3.2,4.9,6.4,7.4,9.6-1.6,3.5-3.1,7-4.6,10.5l2.6-4.8c1.6,1.8,3.3,3.5,4.9,5.3.3.8.8,1.4,1.6,1.8.1,5,.3,10.1.4,15.1-5.4.5-10.8,1-16.1,1.6.8-2.9,1.6-5.7,2.4-8.6-.2.5-.4,1-.6,1.5-.6,1.6-1.2,3.2-1.8,4.8-2.3.8-4.6,1.7-6.8,2.6,0,.2,0,.3-.1.5-.5,0-1.1.1-1.6.2-6.9,2.8-13.7,5.9-20.3,9.4,6.7-1.1,13.5-2,20.2-2.9-5,21.1-7.8,42.8-8.5,64.5-15.1-7.7-29.2-17.1-41.9-28.3,0,3.2.5,6.4,1.3,9.6,21.3,17.5,46.4,30.5,72.8,39.1,47.4,15.3,98.1,15.4,147,8.1,13.2-2,26.3-4.5,39.4-7.4,12.1-2.7,24.4-5.3,36.1-9.2.5-.2,1-.3,1.5-.5.3,0,.5-.2.8-.3.2,0,.5-.2.7-.2.4-.1.7-.3,1.1-.4.1,0,.3-.1.4-.2.4-.2.8-.3,1.2-.5,0,0,.2,0,.3-.1.4-.2.9-.4,1.3-.6,0,0,.1,0,.2,0,.4-.2.9-.4,1.3-.6,0,0,0,0,0,0,.5-.2.9-.4,1.4-.7,0,0,0,0,0,0,.5-.2.9-.5,1.4-.7,0,0,0,0,0,0-17.3,31.4-47.4,54.3-79.2,70.1-4,2-8,3.9-12.1,5.7-.3,2.5-.5,4.9-.7,7.4,34.5-15.1,66.9-35.4,89.2-66.5,6.7-9.4,12.2-19.6,16.3-30.4,0,0,0,0,0,0,.2-.4.3-.8.5-1.3h0c0-.1.1-.3.2-.4,0-.2.1-.4.1-.5,0,0,0,0,0,0,0,0,0-.1,0-.2.2-.8.4-1.7.6-2.5,0,0,0,0,0,0,.1-.9.2-1.8.3-2.8,0,0,0,0,0,0,0-.9,0-1.8,0-2.7,0,0,0,0,0-.1,0-.9-.2-1.8-.4-2.7,0,0,0,0,0-.1,0-.4-.2-.9-.3-1.3,0,0,0,0,0,0-.1-.4-.2-.8-.3-1.2,0,0,0-.1,0-.2-.1-.4-.3-.8-.4-1.2,0,0,0-.1,0-.2-.1-.4-.3-.8-.4-1.1,0,0,0,0,0-.1-.2-.4-.3-.8-.5-1.2,0,0,0-.2-.1-.2-.2-.4-.4-.7-.6-1.1,0,0,0,0,0-.1-.2-.4-.4-.8-.6-1.1,0,0-.1-.2-.2-.3-.2-.4-.5-.7-.7-1.1-1.2-1.7-2.4-3.4-3.8-4.9,7.2-17.9,12.8-36.3,16.9-55.2,2.6-12,4.5-24.1,5.8-36.3,25.9,2.9,52,3.6,77.9,2,.2,16.1,0,32.1-.2,48.2-11.2,14-21.4,28.7-29.9,44.5-4.6,8.5-9.5,17.5-11.9,26.9-2.1,8.2-1.3,17.7,6.6,22.6,6.9,4.2,16,3.3,23.7,2-3.1,6.5-5.7,14-3.4,21,2.8,8.7,12.4,11.6,20.6,9.2.7-.2,1.3-.4,2-.7-.4.5-.6,1.1-.6,2-.1,37.5-.3,75-.4,112.5h6.5c0-22.6.2-45.2.2-67.9,0-10,0-20,.1-29.9ZM355,92c4.6-11.1,12.5-20.6,22.3-27.5-1.3,3.3-2.5,6.6-3.7,9.9-7,19.1-15.2,38.2-21.2,57.8-3.4-13.2-2.7-27.4,2.6-40.1ZM364.4,275.5c10.9,3.7,22.2,4.3,33.3,2.7,9.4,12.9,18.9,25.8,28.3,38.7-2,.2-4,.4-6,.5-15.1.6-30.4-4.3-40.4-16.1-.1-.2-.3-.3-.5-.5l-14.7-25.3ZM375.5,371.8c-9.2-.4-17-6.1-21.2-14.2-4.1-8.1-3.9-17.6,1-25.3,4.9-7.7,13.6-12.5,22.7-12.5.1,0,.2,0,.3,0,4.3,15,10.7,29.5,19.6,42.2-5.3,6.7-14,10.2-22.5,9.8ZM494.8,783.6c-8.3,7.4-16.1,15.2-23.6,23.4,1.7-9.2,3.8-18.3,6-27.4,5.8,1.5,11.7,2.8,17.6,4ZM419.4,699.1c27-22,56.8-40.5,88.5-55,3.8-1.7,8.1-4.1,12.3-3.9,6.1.4,3.1,7.1,1.2,10.4-5.3,9.6-10.5,19.3-15.2,29.2-9.6,20-18,40.7-24.9,61.8-3.3,9.9-6.2,20-8.8,30.1-1.7-.5-3.4-.9-5.1-1.4-.4-.1-.7-.1-1.1-.1-16.8-22.9-32.5-46.6-46.9-71ZM318.6,822.2c1.9,6.2,3,12.5,3.3,19,0,0,0,0,0,0-14.3,0-28.5.7-42.8,1.7l-.4-15c13.2-2.4,26.5-4.3,39.8-5.7,0,0,0,0,0,0ZM269.1,815.2c7.8-14.4,15.6-28.8,23.4-43.1,8.3,14.4,16,29,23.3,43.9-13.5,1.5-27,3.5-40.4,6-2.1-2.2-4.2-4.5-6.2-6.7ZM479.4,925.2c-.3.5-.4,1-.4,1.5-3.5.8-7,1.6-10.5,2.5-12.4,3-24.8,5.6-37.4,7.9-47.5,8.4-97,10.4-144-1.8-12.3-3.2-24.5-7.4-36.2-12.5,0-.3,0-.6-.2-.9-2.5-7.2,4.3-12.6,10.4-14.6,7.5-2.4,15.7-2.9,23.4-3.8,16.2-1.9,32.5-2.9,48.8-3.1,32.3-.4,64.6,2.5,96.3,8.8,8.8,1.8,17.5,3.8,26.2,6,3.2.8,26,5.4,23.6,10.2ZM484.3,919.1c-2.4-3.4-6.6-4.6-10.4-5.8-9-2.7-18-5.1-27.1-7.3-17.9-4.2-36.1-7.3-54.4-9.4-36.8-4.2-74.2-4-110.9.5-9.2,1.1-19.7,1.5-27.9,6.2-3,1.7-5.6,4.2-7.4,7.1,1-19.8,3.9-39.4,8.6-58.6,32.7-3.7,65.7-4.9,98.6-3.4,25.4,1.1,50.8,3.8,75.8,8.1,22.4,3.8,46.3,7.7,66,19.7,3.1,1.9,6.3,4.1,9.3,6.8-5.5,13.2-11.8,26.1-18.9,38.5-.3-.8-.7-1.6-1.2-2.4ZM514.5,900.2c.8,9.7-6.9,16-14.8,19.7-2.4,1.1-4.9,2.1-7.4,3,6.4-11.3,12.1-22.9,17.1-34.8,2.8,3.6,4.7,7.6,5.1,12.1ZM508.7,872.2c-.5,1.4-1.1,2.9-1.7,4.3-13.8-11.9-33.7-17.6-50.7-21.3-4.1-.9-8.2-1.8-12.3-2.6,5.8-25.8,13.8-51,23.9-75.5,1,.3,2,.5,3,.8-3,12.1-5.5,24.3-7.6,36.6-.4,2.6,1.9,4.3,3.9,4.1,1,.4,2.2.2,3.1-.9,10.1-11.6,20.9-22.5,32.5-32.5,8.5,1.6,17,2.9,25.6,4-3,28.4-9.6,56.3-19.6,83ZM529.3,778.5c-.1,1.4-.2,2.8-.3,4.2-5.9-.8-11.7-1.6-17.5-2.6-.8-.1-1.5-.3-2.3-.4,4.7-3.9,9.5-7.6,14.5-11.2,1.3-1,2.9-2.6,4.5-3.1.8-.3.6-.6,1.2,0,.3.4.4,1.4.4,1.8.5,3.6-.2,7.6-.5,11.2ZM619.1,791.5c2.7-.2,5.5-.4,8.2-.7,11.7-1.1,23.4-2.7,35-4.8-15.1,14.7-29.7,30-43.3,46.1.2-13.5.3-27.1,0-40.6ZM624.9,955.6c-6,3.9-14.8,8.4-19.9,2-4.8-6,.1-15.7,3.1-21.4.4-.7.7-1.4,1.1-2.1,6.6-1.9,13-4.8,18.9-8.4,7.7-4.7,15.2-10.9,20.5-18.3,2.3-3.2,3.9-7.7,1.7-11.4-2.1-3.5-6.1-4.2-9.8-3.2-4.3,1.2-7.9,4.3-11.3,7-3.7,3-7.1,6.2-10.3,9.7-5.4,5.8-10.1,12.2-14.1,19-5.6,1.5-11.5,2.4-17.2,1.9-3.4-.3-7-1.2-9.2-3.9-2.7-3.2-2.7-7.6-1.9-11.5,1.6-8.2,5.8-16,9.6-23.4,4.1-7.9,8.6-15.6,13.5-23.1,9.9-15.1,21.2-29.1,33.2-42.5,25.3-28.3,53.4-54.1,81.6-79.5,35,39.1,65.3,82.4,90,128.8,6.8,12.7,13.1,25.7,19,38.8-2.8,1.7-5.6,3.4-8.4,5-15.3,9.1-30.9,17.9-46.5,26.6-15.8,8.8-31.6,17.8-47.9,25.8-16.4,8-33.5,15-51.5,18.7-8.7,1.8-18.2,2.7-26.5-1-7.5-3.3-12.3-9.9-12.9-18.1-.3-3.9.1-7.9,1-11.9,0,0,.1,0,.2-.1.3,0,.6-.2.9-.4,7.8-4.4,14.9-9.9,21-16.5,3-3.2,5.7-6.5,8.2-10.1,2.3-3.2,5.1-7.1,4.4-11.3-1.7-9.7-13.3-3.8-17.9-.4-6.6,4.8-11.9,11.1-15.8,18.3-2.7,4.9-5.1,10.6-6.7,16.5ZM614.6,925.3c2.4-3.5,5-6.9,7.9-10,2.8-3.1,5.8-6.1,9-8.8,2.9-2.6,6.3-5.7,10-7.1,1.6-.6,3.6-1,3.4,1.3,0,1.6-1.6,3.2-2.6,4.4-2.8,3.4-6,6.5-9.4,9.3-5.5,4.5-11.7,8.2-18.3,10.9ZM633.5,950.3c.5-1.4,1.1-2.7,1.7-4,3.6-7.7,8.6-14.8,15.5-19.9,1.7-1.2,3.5-2.4,5.3-3.3.5-.3,1.5-.9,2.1-.8.7-.3,1,0,.8.7-.1.7-.4,1.3-.7,1.9-2,4-5.3,7.8-8.2,11.2-4.9,5.5-10.4,10.3-16.5,14.3Z"/>
  <path class="cls-1" d="M246.3,759.2c8.9-3.1,14.7-10.2,18.4-18.4,4.6,5.6,10,10.4,16.4,13.3-.6-.9-1.2-1.8-1.8-2.7,2.7-.1,5.2-.9,7.6-2.1-8.1-2.5-14.5-8.6-19.5-15.5,1.2-3.8,2.1-7.6,2.8-11.4,3.1-16.7,2.3-34.8-3.3-50.9-2.1-5.9-6-12.2-13.1-12-7.4.2-12.4,6.8-13.7,13.6-3.5,18.2,6.3,36.7,14.5,52.2,1.7,3.2,3.6,6.5,5.7,9.6-1.8,4.7-4.3,9.1-7.6,12.6-4.1,4.3-10.2,7.4-16.3,6.4-4-.7-7.2-3.1-9.9-6.1,1.7-4.4,3-9,3.6-13.7,1.2-8.6.7-17.3-.7-25.8-1.4-8.3-3.3-16.9-6.5-24.8-2.4-6.1-7.6-10.6-14.4-8.4-7,2.3-10,9.7-10.3,16.5-.3,8,2.2,16.4,4.5,24,2.3,7.6,5.2,15.2,9,22.2,2,3.7,4.4,7.6,7.2,11-1,2-2.1,4-3.4,5.9,2.3-.4,4.6-1,6.7-2,.4.5.7,1.1,1.1,1.6,0-.2.2-.3.3-.5,6,5.5,13.5,8.6,22.5,5.4ZM247.3,691.5c-1.5-6.2-2.5-13.8-.1-19.9,1-2.5,2.9-4.9,5.7-5.5,3.1-.7,5.2,1.6,6.5,4.2,2.9,5.6,4.1,12.7,5.1,18.9,1.1,7,1.3,14.1.8,21.1-.4,5.2-1.1,10.8-2.4,16.4-6.5-10.9-12.6-22.9-15.5-35.2ZM221.9,741.6c-7.3-10.6-11.7-22.8-14.8-35.3-1.5-6-3.5-13-1.5-19.1.8-2.6,2.5-5.1,5.2-6,2.9-.9,4.7,1.2,5.8,3.5,3.1,6.5,4.6,14.5,6,21.6,1.5,7.8,2.3,15.9,1.5,23.8-.3,3.8-1.1,7.7-2.3,11.4Z"/>
  <path class="cls-1" d="M387.3,492.8c25.7,10.1,53.4,14.3,81,12.4,2.5-.2,3.5-2.6,3-4.4-.2-5-.5-10-.7-15,0-.6-.2-1-.4-1.5-.2-1.4-1.3-2.5-3.1-2.4-24.9,1.7-49.9-1.4-73.7-9.1-.2,0-.4-.1-.6-.1-1.6-.6-3.7,0-4.3,2-1.5,4.6-2.6,9.3-3.4,14-.2.9,0,1.7.4,2.3.3.7.9,1.3,1.8,1.7ZM393.8,479.8c22.7,7.1,46.6,10.1,70.4,8.8.2,3.4.3,6.9.5,10.3-24.8,1.2-49.5-2.6-72.8-11.3.5-2.6,1.2-5.2,1.9-7.8Z"/>
  <path class="cls-2" d="M413,701.7c-3.6,3.9-7.1,7.9-10.5,11.9h0c0,0,0,0,0,0h0c0,0-.1.1-.2.2-16.6,19.7-30.8,41.3-42.3,64.4,5.3-31.2,10.6-62.5,15.9-93.7.6-3.3-2.9-5.3-5.4-3.2-27.8,23.2-52.1,50.3-72.3,80.4-.7,1.2-1.3,2.4-2,3.7,9.6,16.5,18.5,33.4,26.8,50.6,0,.1.1.3.2.4.4.3.7.8.9,1.4,2.6,7.6,4.1,15.5,4.4,23.5,0,0,0,0,0,0,16.9,0,33.7.8,50.5,2.3,19.6,1.7,39.3,4.2,58.7,7.8,5.9-26.1,14-51.7,24.2-76.4-17-23.1-32.9-47-47.5-71.6l-1.2-1.8h0s0,.1,0,.1Z"/>
  <path class="cls-2" d="M540.8,219.1c0,0-.2,0-.3,0-5.5,13.1-12,25.7-19.7,37.6-8.2,12.5-17.8,24.2-28.9,34.3.7.5,1.3,1.1,1.7,1.8,1.8,2.9,2.4,6.6,2.3,10,0,2-2,3.8-4.1,3.1-3.9-1.3-6.8-4.6-7.3-8.6-8.4,6.7-17.6,12.5-27.4,17-11.8,5.4-25.4,9.1-38.7,9.4.5.8.9,1.6,1.3,2.5.8,2.3.8,5.1-1.3,6.7-2.7,2.1-5.9.2-7.3-2.4-1.1-2.2-1.6-4.7-1.4-7.1-9.4-1-18.3-3.9-26.1-9.5,5.6,21.3,15.2,41.9,30.8,57.7,15.2,15.4,35.1,24.9,56.8,25.6,21.3.6,43.9-4.5,62.9-14.2,18.2-9.3,33-24,39.6-43.6,5.3-16.1,5.4-33.3,2.5-49.8-.4-4.7-1.1-9.3-2-13.9,9-.2,17.7-3.4,24.7-9.3,3.5-2.9,6.3-6.4,8.4-10.4,3.7-6.8,5.2-14.8,4.3-22.5-1.4-12.1-8.2-22.8-19-28.8-10.5-5.8-23.3-6.6-34.3-1.6-2.5,1.1-4.8,2.5-7,4.2-4.3,3.3-7.8,7.4-10.5,12.1ZM432.6,347.5c-2.7-.2-4.4-3.4-2.3-5.5,7.7-8,15.6-15.8,23.6-23.4,3-2.9,7.6,1.7,4.6,4.6-6.3,6-12.5,12.1-18.7,18.4,9.2.4,18.3.1,27.5-.9,4.2-.5,4.1,6,0,6.5-11.6,1.3-23.2,1.4-34.7.4ZM503,329.6c-5.8,18-22.3,30.9-41.2,32.3-4.2.3-4.1-6.2,0-6.5,15.8-1.2,30.1-12.4,34.9-27.5,1.3-4,7.5-2.3,6.3,1.7ZM556.1,233.7c1.9-11.6,16.8-13.8,23.7-5.3,7.8,9.7,1,22.3-9.2,26.4-3.9,1.6-5.5-4.7-1.7-6.3,5.8-2.4,10.1-9.5,6.3-15.4-3.5-5.5-11.8-4.4-12.9,2.3-.7,4.1-6.9,2.4-6.3-1.7Z"/>
</svg>