<?xml version="1.0" encoding="UTF-8"?>
<svg id="Capa_1" data-name="Capa 1" xmlns="http://www.w3.org/2000/svg" viewBox="0 0 1080 1080">
  <defs>
    <style>
      .cls-1 {
        fill: #8b9f80;
      }

      .cls-2 {
        fill: #fcfcfb;
      }

      .cls-3 {
        fill: #bcb600;
      }
    </style>
  </defs>
  <path class="cls-2" d="M622.9,961.8c-13.5,1-27.1,1.5-40.7,1.4,13.6,0,27.1-.4,40.7-1.4Z"/>
  <path class="cls-2" d="M457.8,670.9c.2.9.4,1.7.5,2.6-.1-.9-.3-1.7-.5-2.6Z"/>
  <path class="cls-2" d="M540.8,686.7c2.2.4,4.5.8,6.8,1.2-2.3-.4-4.6-.8-6.8-1.2Z"/>
  <path class="cls-2" d="M685.3,385.6c-.3-.8-.7-1.6-1.2-2.4.4.8.8,1.6,1.2,2.4Z"/>
  <path class="cls-2" d="M393.9,835.6c-.6-.3-1.2-.7-1.8-1.2.6.4,1.2.8,1.8,1.2Z"/>
  <path class="cls-2" d="M535,920.7c.5,0,1.1,0,1.6,0-.5,0-1.1,0-1.6,0h0Z"/>
  <path class="cls-2" d="M764,695.9c-13.9,6.3-27.7,12.8-41.5,19.5,13.8-6.7,27.6-13.1,41.5-19.5Z"/>
  <path class="cls-2" d="M617.1,399.3c2.5.4,5,1,7.6,1.5-2.5-.6-5-1.1-7.6-1.5Z"/>
  <path class="cls-2" d="M783.9,378.3c2.2-.8,4.4-1.6,6.6-2.6-2.2.9-4.4,1.8-6.6,2.6Z"/>
  <path class="cls-2" d="M576,916.8c-2.4.7-4.8,1.2-7.2,1.7,2.4-.5,4.8-1.1,7.2-1.7Z"/>
  <path class="cls-2" d="M636.9,301.4c.3,3.2.7,6.5,1.2,9.7,1,6.5,2.6,12.9,4.6,19.1.4,1.2.8,2.5,1.3,3.7s.5,1.2.7,1.8c.5,1.2,1,2.4,1.5,3.6.3.6.5,1.2.8,1.8,2.7,5.9,6.1,11.5,10.1,16.7.4.5.8,1,1.2,1.5,2.5,3.1,5.3,6,8.3,8.7,1,.9,2,1.8,3.1,2.6,1.1.8,2.2,1.6,3.3,2.4,1.7,1.2,3.4,2.3,5.1,3.6.5.4,1.1.8,1.6,1.3.5.4,1,.9,1.5,1.4.5.5.9,1,1.4,1.5.6.8,1.1,1.5,1.6,2.3.4.8.8,1.6,1.2,2.4,1.1,2.8,1.5,5.7,1.4,8.7,0,.6,0,1.2,0,1.8,0,.9-.2,1.8-.3,2.7-.2,1.2-.4,2.4-.7,3.6-.3,1.2-.6,2.4-.9,3.5-.2.6-.3,1.2-.5,1.7,0,.3-.2.6-.3.9,1.1.3,2.1.6,3.2.8,3.2.9,6.5,1.8,9.9,2.5,1.1.2,2.2.4,3.3.6,2.2.3,4.4.5,6.7.5,1.1,0,2.2,0,3.3-.2,1.2-.1,2.2-.4,3.2-.7,2-.6,3.6-1.6,5-2.8,3.5-3,5.4-7.7,7.2-12.6,1.8-4.7,3.9-8.9,7.2-12.3.7-.7,1.3-1.3,2.1-1.9,1.5-1.2,3.2-2.2,5.1-3,1.9-.8,3.9-1.4,5.9-1.8,1-.2,2-.4,3-.5s2-.3,3.1-.4c1,0,2.1-.2,3.1-.3,1,0,2.1-.1,3.1-.2.5,0,1,0,1.5-.1,1,0,2-.1,3.1-.2.5,0,1,0,1.5-.2,5.8-.6,11.5-1.9,17-3.8.8-.3,1.6-.5,2.4-.8-13.5-1.3-26.8-4.3-39.5-8.8-1.6-.6-3.2-1.2-4.8-1.8-3.1-1.2-6.3-2.5-9.3-4-7.7-3.5-15.1-7.7-22.2-12.3-.1,0-.2-.2-.3-.2-.2-.2-.4-.3-.5-.5-.2-.2-.3-.4-.4-.6-.2-.4-.3-.8-.4-1.2,0,0,0-.2,0-.3,0-.3,0-.6.1-.9.3-1.1,1.3-2.1,2.5-2.4.2,0,.4,0,.6,0,.5,0,1.1,0,1.7.4,1,.4,1.9.9,2.9,1.3,1.9.8,3.9,1.7,5.8,2.5s3.9,1.5,5.8,2.2c2.9,1.1,5.9,2,8.8,2.9,2,.6,4,1.1,6,1.6,2,.5,4,.9,6.1,1.3,4.1.7,8.2,1.2,12.5,1.5,27.5,1.5,55.3-6.6,77-23.7,4.8-3.8,9.2-7.9,13.3-12.3,9-9.8,16.4-21,21.6-33.3,0,0-.2,0-.3,0-.4,0-.8,0-1.2.1-.4,0-.8,0-1.2,0s-.8,0-1.2,0c-.4,0-.8,0-1.1-.1-.7,0-1.5-.2-2.2-.4-.7-.2-1.4-.4-2-.7-.7-.3-1.3-.6-1.9-.9-2.8-1.6-5.2-3.8-7.4-6.5-.5-.6-.9-1.2-1.4-1.8-.4-.6-.9-1.2-1.3-1.9-.8-1.3-1.6-2.6-2.3-3.9-.4-.7-.7-1.3-1-2-.5-1-1-2-1.4-2.9-.4-.9-.8-1.8-1.2-2.8-1.2-2.8-2.3-5.6-3.4-8.4-.4-.9-.7-1.9-1-2.8-.7-1.9-1.3-3.8-1.9-5.7-2.7-8.6-4.8-17.5-6.1-26.4-.7,1.4-1.4,2.8-2.2,4.2s-1.6,2.8-2.5,4.1c-1.2,1.8-2.4,3.5-3.8,5.1-2.1,2.4-4.4,4.5-7,6.2-2.8,1.8-6,2.7-9.1,2.8-1.8,0-3.6-.2-5.3-.8-.5-.2-1-.4-1.4-.6-.2-.1-.5-.2-.7-.3-.5-.2-.9-.5-1.3-.8-.6-.4-1.2-1-1.8-1.5-.4-.4-.7-.8-1.1-1.2-.3-.4-.7-.9-.9-1.4-.1-.2-.3-.5-.4-.8-4.3-8.2-3.2-19-1.9-27.9.5-3.6,1.2-7.1,2.1-10.7-2.5,1.1-5,2.2-7.6,3.2-1.4.6-2.9,1.1-4.4,1.6s-1.5.5-2.2.7c-2.2.7-4.4,1.4-6.7,2-.7.2-1.5.4-2.3.6-1.5.4-3,.7-4.5,1-2.3.5-4.6.9-6.9,1.2-3.1.5-6.1.8-9.2,1-2.3.2-4.6.2-7,.2-.8,0-1.6,0-2.3,0-7-.3-14-1.7-20.3-4.7-1.4-.7-2.8-1.4-4.1-2.2-.7-.4-1.3-.9-2-1.3-.7-.5-1.3-1-2-1.5-1.3-1-2.4-2.2-3.5-3.4-.5-.6-1.1-1.2-1.5-1.8,0-2.2,0-4.5,0-6.7,0-1.5,0-3-.2-4.4-.1-2.2-.3-4.4-.7-6.5-.3-2.2-.8-4.3-1.4-6.4-.4-1.4-.9-2.8-1.5-4.1-.6-1.4-1.2-2.7-2-4-.4-.7-.8-1.3-1.2-1.9-.2-.4-.5-.7-.7-1-.2-.3-.5-.7-.7-1h0c-7.2-9.5-18.8-13.6-30.3-13.3-10.9-.2-21.5,3.9-29.8,11.3-21.4,19.1-19.6,53.6,1.4,72.5,6.8,6.1,15,10.3,23.8,12.4l-12.1,23.6h0s0,0,0,0c-5.1,14-10.2,28.1-15.4,42.1,0,.2-.1.3-.2.5ZM800.5,284.6c1.4-5.3,4-10.1,7.8-14.1.5-.5,1-.8,1.5-1,.2-.2.4-.4.7-.6,2.7-2.3,6.1,0,5.6,3.3-1,6.7-5,12.5-10.7,16.2-2.5,1.6-5.6-1.1-4.9-3.8ZM752.2,272.2c4.7,3.4,9.5,6.7,14.2,10.1,2.4,1.7,4.7,3.4,7.1,5,.3.2.8.6,1.4,1.1-.5-1.6-.9-3.1-1.4-4.7-1.1-3.6-2.2-7.2-3.3-10.8-2.2-7.4-4.5-14.8-6.7-22.2-1.3-4.2,5.2-5.9,6.5-1.8,2.4,7.8,4.7,15.6,7.1,23.4,1.2,3.8,2.3,7.6,3.5,11.4.9,3.1,2.9,6.9,2.8,10.2,0,2.8-2.7,4.9-5.5,4.2-3.2-.8-6.6-4.3-9.3-6.2-6.6-4.7-13.1-9.3-19.7-14-3.5-2.5-.1-8.3,3.4-5.8ZM735.1,244.6c.6-4.1,2.2-7.9,4.5-11.3,0-.4.2-.8.5-1.2,1.6-2.5,3.9-3.9,6.9-3.9,1.7,0,3.5,1.6,3.4,3.4-.6,7-4.3,13.1-10.3,16.8-2.7,1.7-5.3-1.1-4.9-3.8ZM721.4,269c6.1,19.9,24.9,34.8,45.6,36.2,4.3.3,4.3,7,0,6.7-23.8-1.5-45.1-18.2-52.1-41.1-1.3-4.1,5.2-5.9,6.5-1.8ZM663.9,176.5c4.9-7.7,15.2-11,23.6-7.8,4,1.5,2.3,8-1.8,6.5-5.7-2.2-12.6-.6-16,4.7-3.6,5.5-1.9,12.9,2.9,17.1,3.3,2.8-1.5,7.6-4.7,4.7-7.1-6.1-9.1-17.3-4-25.2Z"/>
  <path class="cls-2" d="M398.8,1045.5c-.4-1.2-.7-2.4-1-3.7-.1-.6-.3-1.2-.4-1.9-.4-1.9-.6-3.8-.8-5.7,0-.6-.1-1.3-.1-1.9,0-.6,0-1.3,0-1.9,0-.9,0-1.8,0-2.7,0-1.8.1-3.6.3-5.4.2-2.7.6-5.3,1.1-8,.3-1.8.7-3.5,1.1-5.3,1.6-7,4-13.8,6.5-20.5,1-2.7,2.1-5.4,3.2-8.2.3-.8.6-1.6.9-2.4.8-2,1.6-4,2.3-6.1.3-.8.6-1.6.9-2.5.3-.8.6-1.6.9-2.5,1.5-4.1,2.8-8.3,3.9-12.6.2-.8.4-1.7.6-2.5.2-.8.4-1.7.6-2.5,0-.4.2-.8.3-1.3.9-4.7,1.5-9.3,1.5-14,0-2.1,0-4.2-.3-6.3,0-.8-.2-1.7-.3-2.5,0-.4-.1-.8-.2-1.2-.2-.8-.3-1.7-.5-2.5-.2-.8-.4-1.6-.7-2.5-.4-1.2-.8-2.4-1.3-3.7-.5-1.2-1-2.4-1.6-3.6-.4-.8-.8-1.6-1.3-2.4-2.3,0-4.7,0-7,0-4.7,0-9.3,0-14,0-4.7,0-9.3-.1-14-.2-2.3,0-4.7-.1-7-.2-4.7-.2-9.3-.3-14-.6-.3,37.3.2,74.5,1.6,111.8.5,13,1.1,26,1.7,38.9-.8,1.1-1.6,2.2-2.4,3.4,3.5-2.9,7.3-5.4,11.3-7.6,8.7-4.9,18.3-8.2,28.2-9.8Z"/>
  <path class="cls-2" d="M551.1,1080h3.3c-.4-.8-.8-1.5-1.3-2.3-.6.8-1.3,1.5-2,2.3Z"/>
  <path class="cls-2" d="M352.2,1080h0s0,0,0,0h1.8c-.3-.4-.7-.7-1-1.1-.3.4-.6.7-.9,1.1Z"/>
  <path class="cls-2" d="M879.9,888.8c-1.7.9-3.5,1.9-5.2,2.8-5.2,2.8-10.5,5.5-15.8,8.2-7,3.6-14.2,7-21.3,10.4-.4,7.5-.8,15.1-1.2,22.6-.4,7.5-.7,15.1-1.1,22.6-.7,16.3-1.3,32.6-1.8,48.8-.3,10.9-.6,21.7-.9,32.6-.3,14.4-.5,28.8-.7,43.1h48.3c-.1-56.5-.3-113.1-.4-169.6v-21.6Z"/>
  <path class="cls-2" d="M861,322.1c.4,0,.7,0,1.1,0,1.9-.1,3.7-.7,5.3-1.7.7-.4,1.3-.8,1.9-1.4s1.1-1.1,1.6-1.8c.7-1,1.3-2,1.7-3.1.8-2.2,1-4.5.6-6.8-.2-1.1-.5-2.2-1-3.3-.6-1.4-1.5-2.7-2.7-3.8-.8,1.4-1.7,2.7-2.6,4.1-.9,1.3-1.8,2.7-2.7,4-1.5,2.1-3.1,4.2-4.8,6.2-1.7,2-3.4,4-5.1,5.9,1,.6,2.1,1,3.2,1.3s2.2.4,3.4.4Z"/>
  <path class="cls-2" d="M826,1034c.9-40.2,2.5-80.4,4.7-120.6-1.7.8-3.5,1.6-5.2,2.3-10.7,4.8-21.6,9.3-32.6,13.5-19.2,7.4-38.7,13.9-58.6,19.5-5.7,1.6-11.3,3.1-17.1,4.5-8.6,2.1-17.2,4.1-25.8,5.8-2.9.6-5.9,1.2-8.8,1.7-38.3,7.1-77.3,10.3-116.2,8.8-6-.2-12-.6-17.9-1-1.9-.2-3.9-.3-5.9-.6-2-.2-3.9-.5-5.9-.9-1.3-.3-2.6-.5-3.8-.9-1.3-.3-2.5-.7-3.7-1.2-3.7-1.3-7.1-3.2-10.2-5.8-.7-.6-1.3-1.1-1.9-1.7-.4-.4-.8-.8-1.2-1.3-.2-.2-.4-.4-.5-.7-.4-.4-.7-.9-1-1.4-.2-.2-.3-.5-.5-.7-.5-.7-.9-1.5-1.3-2.2-.9-1.8-1.6-3.6-2.1-5.5-.3-1.4-.5-2.8-.5-4.2,0-.6,0-1.1,0-1.7,0-.3,0-.6,0-.8.2-1.4.5-2.8,1-4.2.5-1.5,1.2-2.8,2-4.1.8-1.3,1.7-2.5,2.7-3.7.7-.8,1.3-1.5,2.1-2.2-4.7-1.1-9.2-2.5-13.4-4.8-.8-.4-1.5-.8-2.2-1.3-1.1-.7-2.2-1.4-3.2-2.2-.5-.4-.9-.8-1.4-1.2-.7-.6-1.3-1.3-1.9-1.9-.6-.7-1.2-1.4-1.7-2.1-1.4-1.9-2.4-4.1-3.1-6.3-2.3.2-4.5.5-6.8.7-.3.9-.7,1.8-1,2.8-.6,1.9-1.2,3.7-1.8,5.6-.5,1.9-1,3.8-1.4,5.7-.2,1-.4,1.9-.6,2.9-1.3,6.7-2,13.5-1.9,20.4,0,1,0,2,0,2.9,0,2,.2,3.9.4,5.9.4,3.9,1,7.8,1.8,11.5,2.3,10.3,6.3,20.2,10.4,30.1.4.9.7,1.8,1.1,2.7.4.8.7,1.7,1.1,2.6.3.9.7,1.8,1,2.6.3.9.7,1.8,1,2.7,1.3,3.6,2.5,7.4,3.6,11.2.3.9.5,1.9.7,2.9.5,1.9.9,3.8,1.2,5.8,1,5.8,1.3,11.5.7,17,2.5,0,5,.3,7.5.6,17.5,2.3,34,11.1,45.3,24.8,3.5,4.2,6.4,8.9,8.8,13.7h263.4c0-1.9,0-3.8,0-5.8.2-13.4.4-26.8.7-40.2Z"/>
  <path class="cls-2" d="M241.3,546.4c18.8,18.1,35.5,38.5,49.5,60.5,31-14.6,60.8-31.8,89-51.3,12.3-12.8,23.3-26.7,33-41.6,2.3-3.6,8.2-.2,5.8,3.4-11.1,17.1-23.9,32.9-38.2,47.2,1.3,31.5,2.6,63,3.9,94.5.2,5.5.5,11.1.7,16.6,2.9-.1,5.8-.2,8.6-.3,8.6-.3,17.3-.3,25.9-.2.2,0,.4,0,.5,0,.2-1.5.6-2.9,1.1-4.3.3-.9.7-1.8,1.1-2.7s.4-.9.7-1.3c.5-.9,1-1.7,1.5-2.5.6-.8,1.1-1.6,1.8-2.4.9-1.1,2-2.2,3.1-3.2.7-.7,1.5-1.3,2.3-1.9.4-.3.8-.6,1.2-.9.2-.1.3-.3.5-.4.2-.2.5-.3.7-.4.3-.1.5-.3.8-.4.3-.2.5-.3.8-.4-4.1-10.4-2.9-22.4,3.5-31.7,2.5-3.6,8.4-.2,5.9,3.4-5.4,7.9-6.6,17.9-2.7,26.6.4,0,.9,0,1.3,0,0,0,.1,0,.2,0,.4,0,.9,0,1.3,0,0,0,.2,0,.2,0,.4,0,.9,0,1.3.2,0,0,0,0,0,0,.4,0,.9.2,1.3.3,0,0,.1,0,.2,0,.4.1.8.2,1.3.3,0,0,.2,0,.2,0,.4.1.8.3,1.2.4,0,0,0,0,.1,0,.4.2.8.3,1.2.5,0,0,0,0,.1,0,.4.2.8.4,1.2.6,0,0,.1,0,.2.1.4.2.8.4,1.1.7,0,0,0,0,.1,0,.4.2.7.5,1,.7,0,0,0,0,.1,0,.4.3.7.5,1,.8,0,0,.1.1.2.2.3.3.6.6,1,.9,0,0,.1.1.2.2.3.3.6.6.9,1,0,0,0,0,0,0,.3.3.6.7.8,1.1,0,0,.1.1.2.2.3.4.5.7.7,1.1,0,0,0,.1.1.2.2.4.5.8.7,1.2.3.5.5,1,.8,1.6,1.4,3.2,2.1,6.6,2.2,10.1,0,.6,0,1.2,0,1.7,2.1-.2,4.1-.4,6.2-.6.5-2.8,1-5.7,1.5-8.5,4.7-25.5,11.3-50.6,19.1-75.4,3.5-11,7.2-21.9,11.1-32.8,2-5.4,4-10.8,6-16.2,14.9-39,32.1-77.1,49.5-115.1,3.6-7.9,7.6-16,13-22.6.7-.8,1.4-1.6,2.1-2.4.4-.4.7-.8,1.1-1.1,1.1-1.1,2.3-2.2,3.5-3.2,1.2-1,2.5-1.9,3.9-2.7,1.4-.8,2.8-1.6,4.3-2.2,2-.9,4.2-1.6,6.5-2.1,2.9-.6,5.9-1,8.9-1.1.6,0,1.2,0,1.8,0,.6,0,1.2,0,1.8,0,.6,0,1.2,0,1.8,0,.6,0,1.2,0,1.8,0,1.2,0,2.4.2,3.6.3,1.8.2,3.6.4,5.5.7s3.6.6,5.4,1c9.1,1.9,18,4.6,26.5,6.7,9,2.2,18,4.5,27.1,6.7.2-.6.4-1.3.6-1.9.3-1,.6-1.9.9-2.9.3-1,.5-2,.7-3,.1-.7.2-1.3.3-2,.2-1.7.3-3.3.1-5,0-.3,0-.7-.1-1-.5-3.5-2.2-5.9-4.5-8-.6-.5-1.2-1-1.8-1.5-1.8-1.4-3.9-2.7-5.8-4.1-8.5-6.3-15.6-14.3-21.1-23.2-1.4-2.2-2.7-4.5-3.9-6.8-.6-1.2-1.2-2.3-1.7-3.5-1.1-2.4-2.2-4.8-3.1-7.3-1.4-3.7-2.6-7.5-3.7-11.3-.3-1.3-.7-2.5-1-3.8-.6-2.6-1.1-5.1-1.6-7.7-.4-2.6-.8-5.2-1.1-7.8-.3-2.6-.5-5.2-.7-7.8,0-1.3-.2-2.6-.2-3.9-.1-2.6-.2-5.2-.2-7.8,0-2.6,0-5.2,0-7.9,0-2.6.2-5.2.3-7.9s.3-5.2.5-7.8c-62-3.9-124.5,5.4-183.9,23.6-72.5,22.2-140.5,56.9-205.4,95.7-42.7,25.6-86.1,53.5-120.9,89.5,8.7,3,17.3,6.5,25.8,10.2,35.2,15.7,67.6,37.7,95.4,64.5Z"/>
  <path class="cls-2" d="M458.3,673.5c-.1-.9-.3-1.7-.5-2.6-.4-1.3-.9-2.6-1.5-3.8-.1-.2-.3-.5-.4-.7-.3-.5-.6-.9-.9-1.3-.3-.4-.7-.8-1-1.2-.7-.8-1.5-1.5-2.4-2.1-.4-.3-.9-.6-1.3-.8-.7-.4-1.4-.7-2.1-1-.5-.2-1-.3-1.5-.4-.7-.2-1.5-.3-2.3-.3-.8,0-1.5,0-2.3,0-.3,0-.5,0-.8.1-.5.1-1,.2-1.6.4-.5.2-1,.4-1.5.6-1.6.9-3.1,2-4.4,3.3-.8.7-1.5,1.5-2.2,2.3-.3.4-.7.8-1,1.2-.5.6-.9,1.3-1.3,1.9-.3.4-.5.9-.7,1.4-.2.5-.4.9-.6,1.4-.3.7-.5,1.5-.7,2.2-.1.5-.2,1-.3,1.5-.3,1.8-.3,3.7,0,5.6.8,4.9,3.6,9,7.5,11.3.5.3.9.5,1.4.7.2.1.5.2.7.3.5.2,1,.4,1.5.5.8.2,1.6.3,2.4.4,1.9.2,3.9,0,5.9-.7,3.5-1.1,6.3-3.4,8.4-6.2,1-1.4,1.9-3,2.5-4.7.2-.6.4-1.1.6-1.7.2-.9.4-1.7.6-2.6.1-.9.2-1.8.2-2.7,0-.6,0-1.2,0-1.8,0-.3,0-.6,0-.9Z"/>
  <path class="cls-2" d="M172.6,717.4c-1.6-2.4-4.6-6.8-8-6.7-3,0-3.2,3.6-2.9,5.8.9,6.7,5.2,13.3,8.2,19.2,7.1,13.8,15.3,27.1,24.5,39.6-.7-5.8-1.9-11.5-3.3-17.1-3.8-14.5-10-28.5-18.5-40.9Z"/>
  <path class="cls-2" d="M259.3,775.8c5.3-.3,10.5-.6,15.8-.9-6.3-5.7-12.5-11.4-18.6-17.2,1.2,6,2.2,12,2.8,18.1Z"/>
  <path class="cls-2" d="M216.5,685c-2.5-3.4-5.4-7.9-9.2-9.9-4.3-2.2-5.4,1.9-4.8,5.4.7,4.4,3.1,8.7,5.2,12.6,2,3.7,4.2,7.2,6.6,10.6,8.5,11.9,18.9,22.4,29.5,32.6-.3-.9-.6-1.8-.9-2.6-6.2-17.4-15.2-33.9-26.3-48.6Z"/>
  <path class="cls-2" d="M322.8,853.3c2.1.3,4.3.6,6.4.9,10.5,1.5,21,2.7,31.5,3.7,7,.7,14,1.3,21.1,1.7,3.5.2,7,.5,10.5.7,7,.4,14.1.7,21.1.9,7,.2,14.1.3,21.1.3,21.1,0,42.3-.8,63.3-2.5,0-1.1,0-2.3.2-3.4,0-.6.2-1.1.3-1.7.2-1.1.6-2.3.9-3.4.6-1.7,1.3-3.3,2.2-4.8,1-1.7,2.2-3.3,3.5-4.8,2.2-2.5,4.7-4.7,7.4-6.7.5-.4,1.1-.8,1.6-1.2,1.1-.8,2.2-1.5,3.3-2.3,1.1-.7,2.3-1.5,3.4-2.2,1.7-1.1,3.4-2.1,5-3.2,3.5-2.2,7-4.5,10.6-6.7-1.2-4.4-1.5-8.9-1.5-13.4,0-3.5.2-7,.4-10.6,0-1.5.1-3,.2-4.5,0-3.5,0-7.1-.7-10.5-.4-2-.9-3.9-1.7-5.7-.4-.9-.9-1.8-1.4-2.7-1-1.7-2.7-3.7-4.8-5.3-.5-.4-1-.8-1.6-1.1-1.8-1.1-3.7-1.7-5.6-1.6-.4,0-.7,0-1.1.2-.7.2-1.5.5-2.1,1.1-.2.1-.3.3-.5.4-.3.3-.6.6-.9,1-.3.3-.5.7-.7,1.1-.1.2-.2.4-.3.6-.2.4-.4.8-.6,1.3-.2.4-.3.9-.5,1.3-.5,1.6-.9,3.2-1.2,4.6-.5,1.9-.9,3.7-1.4,5.6-.4,1.9-.8,3.8-1.2,5.7-1.5,8.1-1.8,16.2-2.6,24.3,0,.4,0,.8-.1,1.2,0,.8-.2,1.6-.4,2.5-.5,2.9-1.3,5.6-2.7,8.1-.8,1.4-1.7,2.8-2.8,4-.6.6-1.2,1.2-1.9,1.7-.3.2-.6.5-.9.7-.6.4-1.3.8-2,1.1-1.3.6-2.8,1-4.2,1.1-.4,0-.7,0-1.1,0-2.9,0-5.8-.8-8.3-2.5-1-.7-2-1.5-2.8-2.4-.6-.6-1.1-1.2-1.6-1.9-.5-.6-1-1.3-1.4-2-.6-1-1.2-2.1-1.7-3.3-.3-.8-.6-1.5-.9-2.3-.3-.8-.5-1.6-.7-2.4-.2-.8-.4-1.6-.5-2.4-.1-.7-.2-1.5-.3-2.3-.2-2-.3-4.1-.4-6.2,0-.9,0-1.7,0-2.6-.2-10.2-.4-21.2-8.6-27.1-.1,0-.2-.2-.3-.2-.5.2-1.1.3-1.6.5-2.4.6-4.8,1.2-7.2,1.7-7.2,1.4-14.6,2.3-22,2.8-2.5.2-5,.3-7.4.4-.8,0-1.7,0-2.5,0-2.8,7.9-3.8,15.9-3.8,24.2,0,1.2,0,2.4,0,3.6,0,2.2.2,4.3.2,6.5,0,1.1,0,2.2,0,3.3,0,1.1,0,2.2-.2,3.2-.2,2.7-.7,5.3-1.5,7.9-.3,1-.7,2.1-1.1,3.1-.2.5-.4,1-.7,1.5-.6,1.1-1.2,2.2-1.9,3.2-.5.7-1,1.3-1.6,1.9-.8.9-1.7,1.8-2.7,2.5-.3.3-.7.5-1,.7-.7.5-1.4.9-2.1,1.3-1.8,1-3.8,1.6-5.9,1.9-1.2.2-2.4.2-3.6.1-1.2-.1-2.3-.3-3.4-.7-.4-.1-.7-.2-1.1-.4-3.2-1.3-5.9-3.6-8-6.5-3.4-4.7-4.5-10.2-5.3-15.8-.3-1.9-.5-3.7-.8-5.6-.5-3-1.2-6.1-2.1-9-.3-1-.6-2-1-2.9-.3-.9-.6-1.7-1-2.6-.3-.9-.7-1.7-1.1-2.6-.2-.4-.4-1-.7-1.6-.4-1-.9-2-1.5-2.7-.2-.3-.5-.5-.8-.6-.6-.3-1.1-.4-1.6-.4-1.9.2-3.3,2.9-4,5-.2.7-.4,1.4-.5,1.9-.2,1.7-.3,3.3-.4,5,0,1.7-.2,3.3-.6,5-.3,1.5-.9,3-1.6,4.4-.2.3-.4.7-.6,1-.1.2-.2.3-.3.5-.2.3-.5.6-.7.9-.1.1-.3.3-.4.4-.3.3-.5.6-.8.8-1.1,1-2.4,1.8-3.8,2.3-.7.2-1.5.4-2.2.4-.4,0-.8,0-1.2,0-.4,0-.8,0-1.2-.2-2.3-.5-4.1-1.5-5.6-2.9-1.2-1.1-2.1-2.5-2.9-4-.2-.4-.4-.8-.6-1.2-.5-1.2-1-2.4-1.4-3.6-.4-1.2-.7-2.5-1-3.7-.2-1-.5-1.9-.7-2.9-1.6-6.8-2.7-13.7-3.4-20.7-.7,1.1-1.4,2.1-2.2,3-.6.6-1.2,1.2-1.8,1.8-.6.6-1.3,1.1-2,1.6-.4.3-.7.5-1.1.7-1.5.9-3,1.7-4.6,2.3-2.6,1.1-5.4,1.8-8.3,2.3,0,7.6.3,15.1.6,22.7,0,0-.2,0-.3,0l1.6,37.2c2.1.3,4.3.7,6.4,1Z"/>
  <path class="cls-2" d="M335,688.5c-2.2.7-4.4,1.5-6.5,2.4-4,1.7-8.3,3.8-11.1,7.2.2.5.4,1,.6,1.4.2.5.5.9.8,1.3.6.8,1.2,1.6,2,2.3,1.5,1.4,3.4,2.4,5.4,3.1,5.9,2.2,12.5,2.7,18.7,3.5,7.4.9,14.7,1.7,22.1,2.4,3.3.3,6.6.6,10,.8,16.6,1.3,33.3,2,50,2.1,6.7,0,13.3,0,20-.2,13.3-.3,26.7-1,40-2,6.7-.5,13.3-1.2,19.9-1.9,6.6-.7,13.3-1.5,19.9-2.5,2.3-.3,4.7-.6,7-1,1.6-.2,3.1-.5,4.6-.7,2.3-.4,4.6-.8,6.9-1.3,3.9-.8,8.2-1.7,12-3.4,1.7-.7,3.4-1.6,4.8-2.8.4-.3.8-.7,1.1-1,.1-.2.3-.4.4-.6,0,0,.1-.1.2-.2.3-.5.5-1.1.5-1.6,0-.3,0-.7-.2-1-.6-1.8-2.9-3.3-5.3-4.1-1.4-.5-2.9-1-4.4-1.4-2.2-.6-4.5-1.1-6.8-1.5-2.3-.4-4.6-.8-6.8-1.2-7.9-1.5-15.9-2.6-23.9-3.3-6.4-.6-12.8-.9-19.3-1-3.2,0-6.4,0-9.7,0-1.6,0-3.2,0-4.8.1-4.8.2-9.6.5-14.5,1-1.6.1-3.2.3-4.8.5-.6,2-1.5,3.9-2.6,5.7-.4.6-.7,1.2-1.2,1.8-2.3,3.2-5.4,5.8-8.8,7.5-.9.4-1.7.8-2.7,1.1-.3.1-.6.2-.9.3-.6.2-1.2.4-1.8.5-.3,0-.6.1-.9.2-.6.1-1.3.2-1.9.3-1,0-1.9.1-2.9,0-1,0-1.9-.2-2.9-.3-.6-.1-1.3-.3-1.9-.5-.6-.2-1.3-.4-1.9-.6-.3-.1-.6-.3-.9-.4-1.3-.6-2.5-1.3-3.6-2.2-.7-.6-1.5-1.2-2.1-1.8-1.7-1.6-3.1-3.6-4.2-5.7-.7-1.3-1.2-2.6-1.7-3.9-.1-.5-.3-.9-.4-1.4-.2-.9-.4-1.8-.6-2.8-.1,0-.3,0-.5,0-1.6,0-3.2,0-4.8,0-9.6,0-19.2.1-28.8.5-1.6,0-3.2.2-4.8.2-3.2.2-6.4.4-9.6.6-9.6.7-19.1,1.6-28.6,2.8-.4,0-.7.2-1.1.3-2.3.6-4.7,1.4-6.9,2.2Z"/>
  <path class="cls-2" d="M345.2,901.3c3,.2,6,.4,9.1.5,9.1.5,18.1.8,27.2,1,9.1.2,18.2.2,27.2.2,24.2-.2,48.4-1.5,72.5-3.8,3-.3,6-.6,9-.9,0-.5.1-1.1.2-1.6,0-.3.1-.5.2-.8,0-.3.1-.5.2-.8.8-2.7,2.1-5.1,3.8-7.3.3-.4.7-.9,1.1-1.3,3.3-3.7,7.6-6.7,11.8-9.2.5-.3.9-.5,1.4-.8-2.4-1.3-4.6-2.9-6.4-5-.4-.5-.8-.9-1.1-1.4-.3-.5-.7-1-.9-1.5-.4-.7-.8-1.5-1.1-2.3-.1-.3-.2-.5-.3-.8-6,.5-12,.9-17.9,1.2-4,.2-8,.4-12,.6-6,.3-12,.4-18,.6-57.5,1.1-115-4.1-171.4-15.5-.7-.1-1.2-.4-1.6-.8-.4-.4-.6-.8-.8-1.3,0-.2,0-.4,0-.6,0-.1,0-.2,0-.3,0-.2,0-.4,0-.6,0-.2,0-.4.2-.6,0-.2.2-.4.3-.6.2-.3.3-.5.6-.8.1-.2.3-.3.5-.4.3-.2.6-.3.9-.4.2,0,.4-.1.7-.1.1,0,.2,0,.4,0,.2,0,.5,0,.8,0,2.3.5,4.6.9,7,1.4,4.6.9,9.3,1.7,14,2.6,2.3.4,4.7.8,7,1.2l-1.5-34.5c-9.4,2.3-18.8,5.1-27.8,8.8-8.2,3.4-16.1,7.4-23.3,12.5-6.4,4.6-13.3,10.7-14.3,19-1,8.2,4.8,14.2,11.5,17.9,8,4.5,16.9,7.9,25.5,11.2,17.4,6.6,35.5,11.4,53.9,14.4,1.9.2,3.9.3,5.8.4s3.9.3,5.8.4Z"/>
  <path class="cls-2" d="M327.2,779.3c.5-.5.9-1.1,1.3-1.6.4-.5.7-1.1,1-1.7.1-.3.3-.6.4-.9.1-.3.2-.6.3-.9,0-.4.2-.9.4-1.2.2-.8.4-1.7.5-2.6,0-.9.1-1.8.1-2.6,0-1.5-.2-3-.4-4.5-.3-1.5-.6-3.1-1-4.6-.3-.9-.5-1.8-.8-2.7-.2-.6-.4-1.2-.6-1.8-.8-2.4-1.7-4.6-2.5-6.8-.3-.8-.6-1.6-.9-2.3-3-8.4-6.4-16.7-9.9-24.9v.3c-2.4-4.3-4.8-8.7-7.2-13-11-19.3-23-38.1-35.9-56.2-6-8.4-12.2-16.7-18.6-24.8-19.3-15.7-39.9-29.8-61.4-42.3-3.7-2.2-.4-8,3.4-5.8,21.9,12.7,42.8,27.2,62.5,43.1,8.1-3.3,16.1-6.7,24-10.3,1-.4,2-.9,3-1.4-4.6-7.2-9.5-14.2-14.6-21-.2-.3-.4-.5-.6-.8-22.9-30-51.2-55.9-82.8-76.3-19.4-12.5-40-22.9-61.6-31-3.4-1.3-6.7-2.5-10.1-3.6-1.2,1.3-2.3,2.5-3.5,3.8-11.5,12.9-21.9,26.9-30.8,42.1-17.2,29.5-28.2,63-28.3,97.4,0,33.5,10.4,66.1,26.7,95.2,8.2,14.6,17.9,28.3,28.5,41.3,10.7,13,22.3,26.3,35.6,36.6,11.5,8.9,27.7,17.3,42.2,10.7,4.3-2,7.6-4.9,10-8.4,0-2.7,0-5.3,0-8-4.8-6.1-9.4-12.3-13.7-18.7-5-7.4-9.6-14.9-13.9-22.7-4.1-7.4-8.3-15.1-11.3-23-2.1-5.5-3.1-13.3,2.3-17.3,7.1-5.3,14.8,1.4,18.9,7.1,14.9,20.9,23,46.4,24.2,72.1.6.7,1.1,1.4,1.7,2.1,9,5.7,20.1,11.8,31,10,8.4-1.3,14.8-7.4,18.4-14.8-.8-11.2-2.7-22.3-5.5-33.2-3.1-3-6.2-6.1-9.3-9.1-14.7-14.6-30.3-29.7-39.1-48.8-2.9-6.4-6.9-17,.5-22.1,8.9-6.1,17.2,5.3,21.8,11.4,14.8,19.3,25.6,41.6,32,65,.3.3.6.6.9.9,12.5,12,25.2,23.7,38.2,35.1,6.8,3.4,14.2,5.9,21.5,3.4,0,.2,0,.4,0,.6,2.1-.4,4.2-1,6.1-1.8,2.6-1.1,4.9-2.6,6.8-4.6Z"/>
  <path class="cls-2" d="M698.3,595.9c-.3.4-.6.8-1.2,1.2-4.1,2.5-3,8,0,11,3,3.2,7.1,2,9.6-1.3,2.3-3,2.7-7.2.2-10.1-2.2-2.6-6-2.9-8.5-.8Z"/>
  <path class="cls-2" d="M611,433.7c-2.5-1.8-6.1-1.2-7.8,1.2,0,.6-.3,1.2-.8,1.7-.2.2-.3.4-.4.6,0,0,0,0,0,0-4.7,7.1,7.1,14.5,11.3,6.5,1.8-3.4.9-7.7-2.3-10Z"/>
  <path class="cls-2" d="M537.2,873.5c1.3-.2,2.6-.3,3.8-.6.6-.1,1.3-.2,1.9-.4,1.3-.3,2.5-.6,3.8-.9,1.9-.5,3.7-1.1,5.6-1.7,2.1-.7,4.7-1.6,7.2-2.6,1.2-.5,2.5-1.1,3.5-1.8,1.1-.7,2-1.5,2.8-2.3.4-.5.6-.8.7-1.1.1-.4-.2-.7-.6-.7-.2,0-.4,0-.6,0-.1,0-.2,0-.4,0-.2,0-.5,0-.8.1-.1,0-.3,0-.4,0-.2,0-.5,0-.7.1-.6.1-1.2.3-1.8.4-1.2.3-2.3.7-3.5,1-.6.2-1.2.4-1.7.5-5.1,1.6-10.2,3.3-15.2,5.2-1,.4-2.1.8-3.1,1.2-2.1.8-4.1,1.7-6.2,2.6-1,.5-2,.9-3.1,1.4,2.2,0,4.4-.2,6.5-.4.7,0,1.4-.1,2.1-.2Z"/>
  <path class="cls-2" d="M569.4,556.1c-2.7-1.3-5.5-.6-7.6,1-.1.5-.4,1.1-1,1.5-3.6,3.2-2.7,8.2.6,11.3,1.6,1.5,4.4,3.2,6.7,2.9,2.3-.3,3.5-2.5,4.4-4.4,2.1-4.4,1.9-10.1-3.1-12.4Z"/>
  <path class="cls-2" d="M838.6,346.7c-1.7-1-3.4-2.1-5-3.3-.8-.6-1.6-1.2-2.4-1.8-1.2,1.9-2.5,3.7-3.9,5.5-2,2.7-4.2,5.2-6.6,7.7-1.5,1.6-3.2,3.2-4.8,4.7-2.5,2.3-5.1,4.4-7.8,6.4-1.8,1.3-3.7,2.6-5.6,3.8-1,.6-1.9,1.2-2.9,1.7-2,1.1-3.9,2.2-6,3.1-1,.5-2,.9-3.1,1.4-2.2.9-4.4,1.8-6.6,2.6-1.1.4-2.2.7-3.4,1.1-4.5,1.4-9.1,2.4-13.8,3-1.2.2-2.3.3-3.5.4-.8,0-1.6.1-2.5.2-.6,0-1.1,0-1.7,0-6,.3-12.7.5-18,3.3-.5.3-1,.6-1.5.9-.9.6-1.8,1.4-2.6,2.2-3,3.2-4.5,7.4-6,11.6-1.2,3.2-2.4,6.5-4.3,9.3-1.5,2.1-3.3,3.9-5.2,5.2-1.2.8-2.5,1.5-3.8,2.1-1.8.7-3.6,1.3-5.6,1.6-1.9.3-3.9.4-6,.4-.6,0-1.1,0-1.7,0-1.1,0-2.3-.2-3.4-.3-2.8-.3-5.6-.9-8.4-1.5-2.2-.5-4.4-1.1-6.6-1.7-2.2-.6-4.4-1.2-6.6-1.7-10.8-2.7-21.6-5.3-32.4-8-1.2-.3-2.5-.6-3.7-.9-6.2-1.6-12.5-3.2-18.7-4.6-2.5-.6-5-1.1-7.6-1.5-1.1-.2-2.3-.4-3.4-.5-3.4-.5-7-.8-10.4-.8-1.2,0-2.3,0-3.5.2-3.5.3-6.9,1-10.2,2.2-8.6,3.3-14.4,10.4-18.8,18.2-4.7,8.3-8.4,17.3-12.3,26-3.2,7-6.3,14-9.5,21-2.1,4.7-4.2,9.4-6.2,14-8.3,18.8-16.3,37.6-23.8,56.7-1.9,4.8-3.7,9.6-5.5,14.3-2.7,7.2-5.3,14.4-7.9,21.7-5.1,14.5-9.7,29.1-13.9,43.9-2.1,7.4-4,14.8-5.9,22.3-1.2,5-2.4,10-3.4,15-1.6,7.5-3.1,15.1-4.4,22.7,2.9-.2,5.8-.3,8.7-.4,2.9,0,5.8-.1,8.7,0,2.9,0,5.8,0,8.7.2,2.9.1,5.8.3,8.7.5,8.2.6,16.4,1.6,24.5,3,4.8.8,9.7,1.5,14.6,2.6,2.9.7,5.8,1.4,8.5,2.4,1.4.5,2.8,1.1,4.1,1.9,1.1.6,2.1,1.3,3,2.1.7.6,1.3,1.3,1.8,2,.7,1,1.2,2.1,1.5,3.3.4,1.7.3,3.3-.2,4.8-.2.6-.4,1.2-.7,1.7-.1.3-.3.5-.5.8,0,4,0,8,.1,11.9,0,8,.2,15.9.4,23.9,0,4,.2,8,.3,11.9.4,11.9.8,23.9,1.4,35.8.2,4,.4,8,.6,11.9,9.3-5.6,18.7-11.1,28.1-16.5,15.7-9.1,31.6-17.9,47.5-26.5-.5-1.1-.8-2.3-1.1-3.5,0-.4-.2-.8-.2-1.2-.2-.9-.2-1.9-.3-2.8,0-2.2.2-4.4.9-6.5.2-.6.4-1.2.6-1.7.3-.7.7-1.5,1.1-2.1.5-.9,1.1-1.7,1.8-2.5.8-.9,1.8-1.7,2.8-2.5,1.3-.9,2.8-1.6,4.5-2.2.5-.2,1-.3,1.5-.4.4,0,.8-.1,1.3-.2,0,0,0,0,.1,0,.7,0,1.4,0,2.2,0,.4,0,.9,0,1.3.1.9.1,1.7.3,2.5.6.4.1.8.3,1.2.4.2,0,.5.2.7.3.5.2.9.4,1.3.7.4.2.9.5,1.3.8.4.3.8.6,1.2.9.4.3.7.6,1.1,1,.2.2.3.3.5.5.2.3.4.5.7.8.4.5.7,1,1,1.5.3.6.6,1.2.9,1.9,0,.2.1.4.2.7.5-.3,1-.5,1.5-.8,1-.5,1.9-1,2.9-1.5,13.6-7,27.3-13.8,41-20.5,13.8-6.7,27.6-13.1,41.5-19.5,4.6-2.1,9.3-4.2,13.9-6.3,4.7-2.1,9.3-4.1,14-6.2-1.6-3.1-3.2-6.2-4.8-9.4-5-10-9.9-20.2-14.6-30.4-.9-1.9-1.7-3.8-2.6-5.8-.2-.4-.3-.7-.3-1.1,0-.1,0-.2,0-.3,0-.3,0-.7.1-1,0-.2.1-.4.2-.6,0-.2.2-.4.3-.5.1-.2.3-.3.4-.5.2-.1.3-.3.5-.4,0,0,.2-.1.3-.2.3-.2.6-.3.9-.4.2,0,.4,0,.6-.1.3,0,.6,0,.9,0,.3,0,.6.2.8.3,0,0,.2.1.2.2.3.3.6.7.8,1.1,5.2,11.7,10.7,23.3,16.5,34.8,1.9,3.8,3.9,7.6,5.8,11.4,3.1-1.3,6.2-2.7,9.3-4,1.2-.5,2.5-1.1,3.7-1.6,1-.4,1.9-.4,2.7,0,.1,0,.2,0,.3.1.6.3,1.1.8,1.5,1.4,0,.1.2.3.3.4.2.4.3.8.3,1.2,0,.3,0,.5,0,.8-.2.8-.7,1.5-1.7,1.9-4.8,2-9.6,4.1-14.4,6.2-4.8,2.1-9.6,4.2-14.4,6.3-18.4,8.1-36.7,16.6-54.8,25.3-5.4,2.6-10.8,5.2-16.2,7.9-5.4,2.7-10.9,5.4-16.3,8.1,4.2,6.2,8.2,12.5,12.1,18.9,3.9,6.4,7.6,12.9,11.1,19.5,1.6,3,3.2,6.1,4.8,9.2.8,1.5,1.6,3.1,2.3,4.6,3.1,6.2,6,12.4,8.7,18.8,1.4,3.2,2.7,6.3,4,9.5,1.3,3.2,2.6,6.4,3.8,9.6,3.7,9.7,7.1,19.4,10.1,29.3.9,2.8,1.7,5.6,2.5,8.5.6,2.1,1.2,4.3,1.8,6.4,1.3,5,2.6,10,3.8,15,3.5,15.1,6.3,30.4,8.2,45.8,14-4.9,27.8-10.3,41.5-16.2,13.6-5.8,27.1-12.1,40.4-18.8,3.8-1.9,7.6-3.8,11.3-5.8,5-2.6,10-5.3,14.9-8.1v-1.1c19.4-13.7,36.7-30.4,51.4-49.1,28.6-36.4,46.9-79.7,55.4-125.1,8.9-47.7,7.4-97.1-2.1-144.5-8.6-42.8-24.1-84.3-45.7-122.2-17.2-30.2-38.4-58.3-63.1-82.8-13,.5-26-2.9-37.2-9.6ZM577.8,572.9c-4.6,8.5-14,8.1-20.7,2.1-4.9-4.3-6.6-11.4-3.9-17,0-.3.1-.5.3-.8,3.4-7.6,13.1-10.8,20.2-6.5,8,4.9,8.3,14.6,4.1,22.2ZM619.1,447.1c-3.8,6.9-12.9,9-19.4,4.4-5.7-4-6.7-11.3-3.7-17.1,2.5-7.3,11.2-10.8,18-6.8,6.7,3.9,8.8,12.8,5.1,19.4ZM710.7,612.3c-5.9,6-14.5,5.8-19.6-1-4.6-6.1-4.5-14.7,1.7-19.4.1-.2.2-.3.4-.4,5.3-5.1,13.8-4.9,18.7.7,5.1,5.9,4.2,14.7-1.1,20.1ZM741.8,482.5c-6,5-15.2,4.5-20.2-1.5-4.6-5.4-4.3-13.4.6-18.3.3-.5.7-1,1.3-1.3,7-3.9,15.2-5.3,20.7,1.9,4.5,5.9,3.1,14.5-2.4,19.2Z"/>
  <path class="cls-2" d="M885.8,274.4c-1.9,1.8-3.9,3.5-6.1,4.9-.5,1.3-1,2.6-1.5,3.9-1.6,3.8-3.3,7.6-5.3,11.3,2.4,2,4.2,4.5,5.5,7.3.1.3.2.5.4.8.2.6.4,1.1.6,1.7,0,.3.2.6.2.9.5,2,.7,4.1.6,6.2-.1,1.8-.5,3.5-1.2,5.3-.2.6-.5,1.1-.8,1.7-.1.3-.3.6-.4.8-.3.6-.7,1.1-1,1.6-1.5,2.2-3.5,4-5.6,5.3-.3.2-.5.3-.8.5-.6.3-1.1.6-1.7.8-1.7.7-3.6,1.2-5.4,1.5-.6,0-1.2.1-1.9.1-4.1.1-8.2-1-11.8-3.5-2.2,2.1-4.4,4.1-6.7,6-2.3,1.9-4.7,3.7-7.1,5.4,2.1,1.7,4.4,3.2,6.7,4.6.5.3.9.5,1.4.8.9.5,1.9,1,2.9,1.5,1,.5,2,.9,3,1.3,1,.4,2,.8,3,1.2,1,.4,2,.7,3.1,1,2.1.6,4.2,1.1,6.3,1.5,1.1.2,2.1.4,3.2.5,1.1.1,2.1.3,3.2.3,2.2.2,4.3.2,6.5.1,2.2,0,4.3-.3,6.5-.6,1.1-.2,2.1-.4,3.2-.6,2-.4,3.9-.9,5.8-1.5.6-.2,1.3-.4,1.9-.6,3.8-2.6,7.2-5.9,10-9.6,11.6-15.3,12.9-37.2,1.4-52.9-3.9-5.4-9-9.8-14.8-12.9-.3.4-.7.8-1.1,1.2-.7.8-1.5,1.6-2.2,2.3Z"/>
  <path class="cls-2" d="M727.7,466.7c-7.5,6.6,2.9,17.2,10,10.4,2.9-2.7,3.5-7.5.6-10.5-3.3-3.3-7.1-1.8-10.6,0Z"/>
  <path class="cls-2" d="M762,909.6c-1.3-7.5-2.8-14.9-4.5-22.4-1.5-6.7-3.2-13.3-5.1-19.9-.9-3.3-1.9-6.6-2.9-9.8-1-3.3-2-6.5-3.1-9.8-1.1-3.2-2.2-6.5-3.3-9.7-.6-1.6-1.2-3.2-1.7-4.8-1.2-3.2-2.4-6.4-3.7-9.6-1.3-3.2-2.5-6.3-3.9-9.5-1.3-3.1-2.7-6.3-4.1-9.4-.7-1.6-1.4-3.1-2.1-4.7-2.9-6.2-5.9-12.3-9-18.4-3.1-6.1-6.4-12-9.9-17.9-1.7-3-3.5-5.9-5.2-8.8-.9-1.5-1.8-2.9-2.7-4.4-2.7-4.3-5.5-8.6-8.4-12.9-3.8,1.9-7.5,3.8-11.3,5.8-3.8,1.9-7.5,3.9-11.2,5.9-4.7,2.5-9.5,5-14.2,7.5-9.4,5.1-18.9,10.2-28.2,15.4-4.7,2.6-9.4,5.2-14,7.9-18.6,10.6-37.1,21.5-55.4,32.7-9.1,5.6-18.1,11.2-27.1,17-2,1.3-4.2,2.6-6.3,3.9-1.1.7-2.2,1.3-3.2,2-2.1,1.4-4.2,2.8-6.2,4.4-1.5,1.2-2.9,2.5-4.1,3.8-.8.9-1.6,1.9-2.4,2.9-.4.5-.7,1-1,1.5-1,1.7-1.8,3.4-2.3,5.2-.4,1.3-.6,2.5-.6,3.8-.1,2.3.3,4.5,1.2,6.5.2.4.4.9.7,1.3.4.6.8,1.3,1.4,1.8,1,1.2,2.3,2.2,3.9,3.1,1.1.6,2.3,1.2,3.5,1.6.4.1.8.3,1.2.4,1-.5,2-1,3-1.5,7-3.4,14.1-6.5,21.4-9.3,5.6-2.1,11.3-4,17-5.6.2,0,.5-.1.8-.2,2.8-.8,6-1.7,8.9-1.1,1.1.2,2.1.6,3,1.3,2.2,1.6,3,3.8,2.8,6.1-.1,1.8-.9,3.5-2.1,5-1.2,1.4-2.7,2.6-4.3,3.6-2.4,1.5-5.1,2.6-7.7,3.7-.3.1-.6.2-.8.3-1.9.8-3.8,1.5-5.8,2.1-.7.2-1.3.4-2,.6-4,1.2-8,2-12.2,2.6-4.1.5-8.3.7-12.4.6-1.4,0-2.9-.2-4.4-.3-1.5-.2-2.9-.4-4.4-.7-1.3.7-2.6,1.4-3.9,2.1-.4.2-.9.5-1.3.7-.6.3-1.2.7-1.9,1.1-.2.1-.4.3-.6.4-1.1.7-2.2,1.4-3.2,2.1-.9.6-1.7,1.2-2.5,1.9-.4.3-.8.7-1.2,1-3.3,3-5.8,6.7-5.8,11.2,0,1.7.3,3.2.9,4.7.2.4.4.8.6,1.2.1.2.2.4.3.6.2.4.5.7.8,1.1.4.5.8,1,1.3,1.5.2.2.3.3.5.5.5.5,1,.9,1.5,1.4,2.3,1.9,5.1,3.4,7.6,4.5,4.4,1.9,9.2,3.1,14,3.9,2.3-1.6,4.6-3,6.9-4.4,1.2-.7,2.5-1.5,3.7-2.2,4.9-2.8,10-5.5,15.1-8,3.9-1.8,7.8-3.6,11.7-5.2,8.9-3.7,18.8-8.3,28.7-8.6,6.8-.2,15.1,2.1,16.5,9.8.2,1.2.2,2.4.1,3.5,0,.5-.2,1.1-.3,1.6-.2.8-.5,1.5-.9,2.2-.2.5-.5.9-.8,1.4-.2.2-.3.4-.5.6-.3.4-.7.8-1.1,1.2s-.8.8-1.2,1.1c-.4.4-.9.7-1.3,1.1-.5.3-.9.7-1.4,1-.5.3-1,.6-1.5.9-.5.3-1,.6-1.5.8-.3.1-.5.3-.8.4-1.3.6-2.6,1.2-3.8,1.7-.5.2-1,.4-1.5.6-1.3.5-2.6,1-3.9,1.5-2.6.9-5.3,1.8-8,2.5-2.7.7-5.4,1.4-8.2,2-2.7.6-5.5,1-8.3,1.4-1.4.2-2.8.4-4.2.5-2.6.3-5.3.5-7.9.6-2.7.1-5.3.1-8,0-2.7,0-5.3-.2-7.9-.4-2.6-.2-5.3-.5-7.9-.9-3.6,2.7-6.7,5.9-8.3,9.8-2.3,5.4-.6,10.9,2.8,15.1.3.4.7.8,1.1,1.2.4.4.8.8,1.2,1.2.6.6,1.2,1.1,1.9,1.6,1.1.8,2.3,1.5,3.4,2.1,1.1.6,2.3,1.1,3.5,1.5.6.2,1.2.4,1.8.6,1.2.4,2.4.7,3.7,1,6.2,1.4,12.7,1.6,19,1.9.6,0,1.2,0,1.9,0,8.1.5,16.3.7,24.4.7,13.6,0,27.1-.4,40.7-1.4,3.5-.3,6.9-.5,10.4-.9,6.9-.7,13.8-1.4,20.7-2.4,3.4-.5,6.9-1,10.3-1.5,5-.8,9.9-1.6,14.9-2.5,10.6-1.9,21.2-4.1,31.7-6.7,6.6-1.6,13.1-3.2,19.6-5,6.5-1.8,13-3.7,19.4-5.7,5.2-1.6,10.4-3.3,15.5-5-.7-5.7-1.5-11.3-2.4-16.9-.3-1.9-.6-3.8-1-5.6Z"/>
  <path class="cls-2" d="M399.5,778.8c-4.9,0-9.8,0-14.7,0-7.3,0-14.7-.1-22-.2-4.9,0-9.8-.2-14.7-.3-2.4,0-4.9,0-7.3-.1,0,0,0,0,0,.1,0,0,0,0,0,.1.2,2.3.5,4.5.7,6.8.9,6.8,2.2,13.5,4.1,20.1.5,1.8,1.4,4.7,3,6.4.5.5,1,.9,1.6,1.2.6.2,1.3.3,2,.2.2,0,.4-.1.6-.2.2,0,.4-.2.5-.3.5-.3.9-.7,1.3-1.2.2-.3.5-.7.6-1.1.5-1,.8-2.1,1-3.1,0-.4.2-.8.2-1.2,0-.4,0-.8.1-1.1.3-3.1.4-6.2,1-9.1,0-.4.2-.7.3-1.1.7-2.5,2-4.8,4.3-6.6.5-.4,1.1-.8,1.7-1.1.3-.2.6-.3.9-.4.6-.3,1.2-.5,1.8-.6,1.2-.3,2.5-.3,3.7-.1,2.1.4,4.1,1.5,5.6,3.5,2.7,3.5,4.6,8.2,5.9,12.7.4,1.2.7,2.5,1,3.7.2.8.4,1.6.6,2.4.4,1.7.7,3.5.9,5.3.4,2.7.7,5.4,1.2,8.1.2.9.4,1.8.6,2.6.4,1.7,1,3.4,1.8,5.1.3.7.7,1.4,1.1,2,.8,1.3,1.8,2.4,3,3.3.6.4,1.2.8,1.8,1.2,2.5,1.3,5.4,1.5,8.5.1,3.9-1.7,6.4-5.1,7.8-8.9.6-1.5,1-3.1,1.3-4.7.2-.8.3-1.6.4-2.4.1-.9.2-1.9.2-2.8,0-.9,0-1.9,0-2.8,0-1.4,0-2.8,0-4.2,0-1.4-.1-2.8-.2-4.2-.1-2.8-.2-5.6-.1-8.4.1-3.2.5-6.3,1-9.4.6-3.1,1.3-6.2,2.3-9.2-2.6,0-5.3,0-7.9,0-2.6,0-5.3,0-7.9,0Z"/>
  <path class="cls-2" d="M471.6,759.7c.2-.4.3-.8.3-1.2,0-.4,0-.9,0-1.3,0-.2,0-.5,0-.7,0-.5-.2-1-.4-1.5-1.4-4.2-5-6.5-9.1-7.9-.5-.2-1-.3-1.6-.5-1.1-.3-2.1-.5-3.2-.7-1.3-.2-2.7-.4-4-.6-.5,0-1-.1-1.5-.2-.8,0-1.5-.2-2.2-.3-39-4.7-78.5-1.9-117.5.9.2.4.3.8.5,1.3.9,2.5,1.8,5.1,2.5,7.7.4,1.3.7,2.6,1,3.9.2.9.4,1.7.5,2.6.3,1.8.5,3.5.6,5.3,0,.4,0,.8,0,1.2,0,.6,0,1.2,0,1.8s0,1.2-.2,1.8c2.6,0,5.3.1,7.9.2,13.2.3,26.4.5,39.5.5,5.3,0,10.5,0,15.8,0,5.9,0,11.8,0,17.7-.2,8.3-.2,16.6-.6,24.8-1.6,4.7-.6,9.3-1.4,14-2.5,1.3-.3,2.8-.7,4.4-1.2.5-.1.9-.3,1.4-.5,1.1-.4,2.3-.9,3.4-1.4.4-.2.8-.5,1.2-.7.6-.4,1.2-.8,1.7-1.2,1-.9,1.8-1.9,2.3-3Z"/>
  <path class="cls-2" d="M545.9,921c6.4,0,12.8-.7,19.1-1.8,1.3-.2,2.5-.5,3.8-.7,2.4-.5,4.8-1.1,7.2-1.7,2.4-.7,4.8-1.4,7.1-2.2,1.1-.4,2.3-.8,3.4-1.2,3.4-1.2,6.8-2.6,9.8-4.6.5-.3,1-.7,1.5-1.2.2-.2.5-.5.7-.7.2-.2.4-.5.6-.8.3-.4.5-.7.7-1.1.1-.2.2-.4.3-.6.2-.4.3-.8.3-1.2,0-.4,0-.8,0-1.2,0-.4-.2-.8-.4-1.2s-.3-.4-.4-.6c-.5-.7-1.3-1.2-2.1-1.5-.3-.1-.7-.3-1-.4-.7-.2-1.4-.3-2.1-.4-.4,0-.8,0-1.1-.1-.5,0-1,0-1.5,0-.5,0-1.1,0-1.6,0-2.2.1-4.3.5-6.5,1-1.6.4-3.2.9-4.8,1.4-4.3,1.4-8.4,3.3-12.3,4.8-9.9,3.9-19.4,8.7-28.6,14-.2.1-.5.3-.7.4-.5.3-.9.5-1.4.8-.2.1-.5.3-.7.4.5,0,1.1,0,1.6,0,.5,0,1.1,0,1.6,0,2.6.1,5.1.2,7.7.1Z"/>
  <path class="cls-2" d="M654,750.3c2.8-1.5,5.5-2.9,8.3-4.4,2.8-1.5,5.5-2.9,8.3-4.4,0-.2,0-.3,0-.5,0-.8-.2-1.6-.5-2.2-.2-.4-.4-.8-.7-1.1-.2-.2-.4-.5-.6-.7-1.2-1-2.8-1.8-4.4-2.1-.5,0-1-.2-1.5-.2-.3,0-.7,0-1,0-.3,0-.7,0-1,.1-.6.1-1.2.3-1.8.6-1.5.7-2.7,1.6-3.6,2.8-1.5,1.9-2.3,4.3-2.4,6.7,0,.7,0,1.4.1,2.2.1,1.1.4,2.1.8,3.2Z"/>
  <path class="cls-2" d="M540,772.9c1.7,4.6,2.2,9.4,2.3,14.2,0,3.1-.1,6.2-.3,9.3,0,.9,0,1.8-.1,2.6,0,.9,0,1.8-.1,2.6,0,.4,0,.9,0,1.3,0,.9,0,1.8,0,2.6,0,.9,0,1.8,0,2.6s.1,1.7.2,2.6c.1,1.3.3,2.6.6,3.9,2.4-1.5,4.7-3,7.1-4.4,2.4-1.5,4.8-2.9,7.1-4.4,3.1-1.9,6.1-3.7,9.2-5.6-.4-7.8-.8-15.6-1.2-23.4-.3-7.8-.6-15.6-.9-23.4-.3-7.8-.5-15.6-.6-23.4-.2-7.8-.3-15.6-.3-23.4-4.3,2.4-9.1,4-14.1,5.1-.8.2-1.7.4-2.5.5-1.7.3-3.4.6-5.1.9-4.2.7-8.5,1.2-12.6,1.7-1.7.2-3.3.4-4.9.6-1.9.3-3.8.5-5.6.7-3.8.5-7.5.9-11.3,1.3-5.7.6-11.3,1.2-17,1.6-3.8.3-7.6.6-11.3.9-3.8.3-7.6.5-11.4.7-3.8.2-7.6.4-11.4.5-1.9,0-3.8.1-5.7.2-5.7.2-11.4.2-17.1.3-5.7,0-11.4,0-17.1-.2-13.3-.3-26.5-.9-39.8-2-3.8-.3-7.6-.6-11.3-1-7.5-.7-15.1-1.6-22.6-2.5-8-1-17.9-1.9-24.7-6.9,1,2.3,2.1,4.6,3.1,7,3,7,6,14,8.7,21.1.3.7.6,1.5.9,2.2.2,0,.4-.2.6-.2.2,0,.5-.1.7-.1,3.1-.2,6.1-.4,9.2-.7,21.5-1.5,43.1-2.9,64.7-2.9,1.4,0,2.7,0,4.1,0,9.6.1,19.2.5,28.8,1.3,2.3.2,4.7.4,7.2.5,1.2,0,2.4.2,3.7.3,6.1.6,12.3,1.5,17.7,3.8.9.4,1.8.8,2.7,1.4.2.1.4.3.6.4.4.3.8.6,1.3.9,2.9,2.1,5.2,5,6.5,8.2.2.5.3.9.5,1.4,0,.2.1.5.2.7.1.5.2,1,.2,1.5,0,.5,0,1,0,1.5,0,1-.2,2-.4,3.1-.4,1.4-.9,2.7-1.7,3.8-.7,1.1-1.6,2.2-2.6,3.1-.6.5-1.2,1.1-1.9,1.5s-1.4.9-2.1,1.3c.7.8,1.4,1.6,2.1,2.4,1.9,2.5,3.3,5.4,4.2,8.5.4,1.4.8,2.8,1,4.2.6,3,.8,6.1.9,9.1,0,1,0,2,.1,3.1,0,1,0,2,0,3.1,0,2,.2,4.1.4,6.1.1,1,.2,2,.4,3,.4,2.1,1.2,5,2.5,7.6.6,1.3,1.4,2.5,2.3,3.6.7.9,1.5,1.6,2.4,2.2.5.3,1.1.6,1.7.8.4.1.8.2,1.2.2.9,0,1.8,0,2.8-.3.7-.2,1.4-.5,2-.9s1.1-.8,1.6-1.2c.5-.5.9-1,1.3-1.5.4-.6.7-1.1,1-1.8,0-.2.2-.4.3-.6.3-.6.5-1.3.7-2,1-3.7,1.2-7.8,1.4-11,.1-2.1.3-4.1.5-6.2.5-5.1,1.2-10.2,2.2-15.3.2-1,.4-2,.6-3,0-.4.2-.8.3-1.2,1.1-5.5,2.3-12,5.5-16.7.5-.7,1-1.4,1.6-2,.3-.3.6-.6.9-.8.6-.5,1.3-1,1.9-1.3,1-.6,2.1-1,3.2-1.2.7-.2,1.5-.3,2.3-.3,1.9-.1,3.9.1,5.8.7,1.1.3,2.2.8,3.3,1.3,1.4.7,2.7,1.6,3.9,2.6.6.5,1.2,1,1.7,1.6,1.9,2,3.4,4.3,4.7,6.7.5,1,1,2.1,1.4,3.2Z"/>
  <path class="cls-2" d="M470.8,948.2c0-1.6-.1-3.1-.2-4.7-.2-12.5,1.8-25.1,6-37.1-4.3.4-8.7.7-13,1.1-4.3.3-8.7.6-13,.9-2.4.1-4.8.3-7.2.4-2.4.1-4.8.2-7.2.3-4.8.2-9.6.4-14.4.5.4.8.8,1.6,1.1,2.4.7,1.6,1.3,3.2,1.8,4.9.3.8.5,1.6.7,2.5.4,1.6.8,3.3,1,5,.5,3.3.7,6.7.7,10,0,4.2-.5,8.4-1.2,12.7-1.3,7.6-3.6,15.2-6.2,22.6-1.4,4.1-3,8.2-4.5,12.2-.9,2.4-1.8,4.7-2.7,7.1-.6,1.6-1.2,3.2-1.8,4.9-1.2,3.3-2.3,6.6-3.3,9.9-.5,1.7-1,3.3-1.4,5-.2.8-.4,1.7-.6,2.5-.4,1.7-.7,3.4-1,5.1-.7,4.3-1.2,8.6-1.1,13,.1,13.1,4.5,26.1,16.6,32.6,2.1,1.1,4.3,2.1,6.5,3,1.5.6,3,1.1,4.6,1.6,1.6.5,3.1.9,4.7,1.3,1.6.4,3.2.7,4.8,1,.8.1,1.6.3,2.4.4,4.9.7,9.7.8,14.5.5,6-.4,12.3-1.9,18-4.6,5.6-2.7,10.6-6.6,14-11.9.7-1,1.2-2.1,1.7-3.1.5-1.1.9-2.2,1.3-3.3.5-1.5.9-3,1.2-4.5.4-1.9.6-3.9.6-5.8,0-.4,0-.8,0-1.2,0-6.3-1.1-12.7-2.8-18.7-1.3-4.7-3-9.2-4.8-13.7-.6-1.5-1.2-3-1.8-4.5-2.5-5.9-5-11.9-7.3-17.9-3.6-9.7-5.7-19.8-6.5-30,0-.8-.1-1.6-.2-2.3Z"/>
  <path class="cls-2" d="M549.1,1072c-.5-.6-1-1.2-1.5-1.8-2.6-3.1-5.6-5.9-8.7-8.5-1.8-1.4-3.7-2.8-5.6-4-1.5-.9-2.9-1.8-4.5-2.6-1-.5-2-1-3.1-1.5-1.6-.7-3.2-1.4-4.8-2-1.6-.6-3.3-1.1-4.9-1.6-1.1-.3-2.2-.6-3.3-.9-.6-.1-1.1-.2-1.7-.4-1.1-.2-2.3-.4-3.4-.6-.6,0-1.1-.2-1.7-.2-2.3-.3-4.6-.4-6.9-.4-.3.9-.5,1.8-.9,2.6s-.7,1.7-1.1,2.6c-.4.8-.8,1.7-1.3,2.5-.2.4-.5.8-.7,1.2-.5.8-1,1.6-1.6,2.4-.3.4-.6.8-.9,1.2-.6.8-1.3,1.5-2,2.2-1.4,1.5-3,2.9-4.7,4.2-.7.5-1.3,1-2,1.4-1.4.9-2.8,1.8-4.2,2.5s-2.9,1.4-4.5,2.1c-1.5.6-3.1,1.2-4.6,1.6-1.6.5-3.2.9-4.8,1.2-4,.8-8.2,1.2-12.3,1.3-1.6,0-3.3,0-4.9-.1-.8,0-1.6-.1-2.4-.2-5.6-.5-11.5-1.5-17.1-3.2-1.6-.5-3.2-1-4.8-1.6s-3.1-1.2-4.6-2c-1.5-.7-2.9-1.5-4.3-2.3-1.4-.8-2.7-1.7-4-2.7-1.7-1.3-3.2-2.6-4.5-4.2-.9-1-1.7-2.1-2.5-3.2-1.1-1.6-2.2-3.4-3-5.2-12.8,1.7-24.6,6.6-34.5,14-3.3,2.4-6.4,5.2-9.3,8.1,1.8,2.2,3.8,4.2,5.9,6.1h177.8c2.9-2.3,5.6-5,7.9-8Z"/>
  <path class="cls-1" d="M667.9,201.8c3.3,2.8,8-1.9,4.7-4.7-4.8-4.2-6.6-11.6-2.9-17.1,3.5-5.3,10.4-6.9,16-4.7,4,1.5,5.8-4.9,1.8-6.5-8.5-3.2-18.8,0-23.6,7.8-5.1,8-3.1,19.2,4,25.2Z"/>
  <path class="cls-1" d="M748.9,278c6.5,4.7,13.1,9.3,19.7,14,2.7,1.9,6.1,5.4,9.3,6.2,2.8.7,5.4-1.3,5.5-4.2.1-3.3-1.8-7.1-2.8-10.2-1.2-3.8-2.3-7.6-3.5-11.4-2.4-7.8-4.7-15.6-7.1-23.4-1.3-4.1-7.7-2.4-6.5,1.8,2.2,7.4,4.5,14.8,6.7,22.2,1.1,3.6,2.2,7.2,3.3,10.8.5,1.6.9,3.1,1.4,4.7-.6-.5-1.1-.9-1.4-1.1-2.4-1.7-4.7-3.4-7.1-5-4.7-3.4-9.5-6.7-14.2-10.1-3.5-2.5-6.9,3.3-3.4,5.8Z"/>
  <path class="cls-1" d="M740,248.4c6.1-3.7,9.7-9.8,10.3-16.8.2-1.8-1.7-3.4-3.4-3.4-3,0-5.3,1.4-6.9,3.9-.3.4-.4.8-.5,1.2-2.4,3.3-3.9,7.1-4.5,11.3-.4,2.7,2.2,5.5,4.9,3.8Z"/>
  <path class="cls-1" d="M805.4,288.4c5.7-3.6,9.7-9.4,10.7-16.2.5-3.3-2.9-5.6-5.6-3.3-.2.2-.4.4-.7.6-.5.1-1.1.4-1.5,1-3.7,4-6.4,8.8-7.8,14.1-.7,2.7,2.4,5.4,4.9,3.8Z"/>
  <path class="cls-1" d="M767,311.9c4.3.3,4.3-6.4,0-6.7-20.8-1.3-39.5-16.3-45.6-36.2-1.3-4.1-7.8-2.4-6.5,1.8,7,22.9,28.3,39.5,52.1,41.1Z"/>
  <path class="cls-1" d="M723.5,461.4c-.6.4-1,.8-1.3,1.3-4.9,4.9-5.2,12.9-.6,18.3,5.1,6,14.3,6.5,20.2,1.5,5.6-4.7,6.9-13.4,2.4-19.2-5.5-7.2-13.7-5.9-20.7-1.9ZM737.8,477.1c-7.1,6.8-17.5-3.8-10-10.4,3.5-1.9,7.4-3.4,10.6,0,2.9,2.9,2.3,7.7-.6,10.5Z"/>
  <path class="cls-1" d="M614,427.6c-6.8-4-15.4-.5-18,6.8-3,5.8-2,13.1,3.7,17.1,6.4,4.5,15.6,2.5,19.4-4.4,3.6-6.7,1.6-15.5-5.1-19.4ZM613.3,443.7c-4.2,8-16,.7-11.3-6.5,0,0,0,0,0,0,.1-.2.3-.4.4-.6.4-.5.7-1.1.8-1.7,1.7-2.4,5.3-3,7.8-1.2,3.2,2.2,4.1,6.6,2.3,10Z"/>
  <path class="cls-1" d="M693.2,591.5c-.1.1-.3.3-.4.4-6.2,4.7-6.3,13.3-1.7,19.4,5.1,6.7,13.8,6.9,19.6,1,5.3-5.4,6.2-14.2,1.1-20.1-4.9-5.6-13.4-5.9-18.7-.7ZM706.6,606.8c-2.5,3.2-6.5,4.4-9.6,1.3-2.9-3-4-8.5,0-11,.5-.3.9-.7,1.2-1.2,2.6-2.1,6.3-1.9,8.5.8,2.5,3,2.1,7.2-.2,10.1Z"/>
  <path class="cls-1" d="M573.6,550.8c-7.2-4.4-16.8-1.1-20.2,6.5-.1.3-.2.5-.3.8-2.6,5.6-.9,12.7,3.9,17,6.7,6,16.1,6.3,20.7-2.1,4.1-7.6,3.9-17.3-4.1-22.2ZM572.5,568.5c-.9,1.9-2,4.1-4.4,4.4-2.3.3-5.1-1.4-6.7-2.9-3.3-3.1-4.1-8.1-.6-11.3.5-.5.8-1,1-1.5,2.1-1.7,4.8-2.3,7.6-1,5,2.3,5.2,8,3.1,12.4Z"/>
  <path class="cls-1" d="M257.8,621.5c-19.7-16-40.6-30.4-62.5-43.1-3.7-2.2-7.1,3.6-3.4,5.8,21.5,12.5,42.1,26.7,61.4,42.3-.6-.8-1.3-1.6-1.9-2.4,2.1-.8,4.3-1.7,6.4-2.6Z"/>
  <path class="cls-1" d="M177.8,713.1c-4.1-5.7-11.7-12.5-18.9-7.1-5.4,4-4.4,11.8-2.3,17.3,3,7.9,7.2,15.6,11.3,23,4.3,7.8,8.9,15.4,13.9,22.7,4.3,6.4,8.9,12.7,13.7,18.7,0,2.7.1,5.3,0,8,2.2-3.2,3.7-6.9,4.6-10.9,1.1.7,2.1,1.4,3.2,2.1.1,0,.2.1.3.2-.6-.7-1.1-1.4-1.7-2.1-1.3-25.7-9.3-51.2-24.2-72.1ZM170,735.7c-3-5.9-7.3-12.5-8.2-19.2-.3-2.3-.2-5.7,2.9-5.8,3.4-.1,6.4,4.2,8,6.7,8.5,12.4,14.7,26.3,18.5,40.9,1.5,5.6,2.6,11.3,3.3,17.1-9.2-12.5-17.4-25.7-24.5-39.6Z"/>
  <path class="cls-1" d="M833.5,1004.3c.5-16.3,1.1-32.6,1.8-48.8.3-7.5.7-15.1,1.1-22.6.4-7.5.8-15.1,1.2-22.6,7.2-3.3,14.3-6.8,21.3-10.4,5.3-2.7,10.5-5.4,15.8-8.2,1.7-.9,3.5-1.9,5.2-2.8v-7.6c-5,2.7-9.9,5.4-15,8.1-3.8,2-7.5,3.9-11.3,5.8-13.3,6.7-26.7,13-40.4,18.8-13.6,5.8-27.5,11.2-41.5,16.2-2-15.4-4.7-30.7-8.2-45.8-1.2-5-2.4-10.1-3.8-15-.6-2.1-1.2-4.3-1.8-6.4-.8-2.8-1.6-5.7-2.5-8.5-3-9.9-6.4-19.7-10.1-29.3-1.2-3.2-2.5-6.4-3.8-9.6-1.3-3.2-2.7-6.4-4-9.5-2.8-6.3-5.7-12.6-8.7-18.8-.8-1.5-1.5-3.1-2.3-4.6-1.6-3.1-3.2-6.1-4.8-9.2-3.5-6.6-7.3-13.1-11.1-19.5-3.9-6.4-7.9-12.7-12.1-18.9,5.4-2.7,10.8-5.4,16.3-8.1,5.4-2.7,10.8-5.3,16.2-7.9,18.1-8.7,36.4-17.1,54.8-25.3,4.8-2.1,9.6-4.2,14.4-6.3,4.8-2.1,9.6-4.1,14.4-6.2,1-.4,1.6-1.1,1.7-1.9,0-.3,0-.5,0-.8,0-.4-.2-.8-.3-1.2,0-.2-.2-.3-.3-.4-.4-.6-.9-1.1-1.5-1.4,0,0-.2,0-.3-.1-.8-.3-1.8-.4-2.7,0-1.2.5-2.5,1.1-3.7,1.6-3.1,1.3-6.2,2.6-9.3,4-2-3.8-3.9-7.6-5.8-11.4-5.7-11.5-11.2-23.1-16.5-34.8-.2-.5-.5-.9-.8-1.1,0,0-.2-.1-.2-.2-.3-.2-.5-.3-.8-.3-.3,0-.6,0-.9,0-.2,0-.4,0-.6.1-.3,0-.6.2-.9.4,0,0-.2.1-.3.2-.2.1-.3.3-.5.4-.2.1-.3.3-.4.5-.1.2-.2.4-.3.5,0,.2-.2.4-.2.6,0,.3-.1.6-.1,1,0,.1,0,.2,0,.3,0,.4.1.7.3,1.1.9,1.9,1.7,3.8,2.6,5.8,4.7,10.2,9.5,20.3,14.6,30.4,1.6,3.1,3.2,6.3,4.8,9.4-4.7,2-9.3,4.1-14,6.2-4.7,2.1-9.3,4.2-13.9,6.3-13.9,6.3-27.7,12.8-41.5,19.5-13.8,6.7-27.4,13.5-41,20.5-1,.5-1.9,1-2.9,1.5-.5.3-1,.5-1.5.8,0-.2-.1-.4-.2-.7-.2-.7-.5-1.3-.9-1.9-.3-.5-.6-1-1-1.5-.2-.3-.4-.5-.7-.8-.2-.2-.3-.4-.5-.5-.3-.3-.7-.7-1.1-1-.4-.3-.8-.6-1.2-.9-.4-.3-.8-.5-1.3-.8-.4-.2-.9-.5-1.3-.7-.2-.1-.5-.2-.7-.3-.4-.2-.8-.3-1.2-.4-.8-.3-1.7-.5-2.5-.6-.4,0-.9-.1-1.3-.1-.7,0-1.4,0-2.2,0,0,0,0,0-.1,0-.4,0-.8,0-1.3.2-.5,0-1,.2-1.5.4-1.7.5-3.2,1.3-4.5,2.2-1.1.7-2,1.5-2.8,2.5-.7.8-1.3,1.6-1.8,2.5-.4.7-.8,1.4-1.1,2.1-.2.6-.4,1.1-.6,1.7-.6,2.1-.9,4.2-.9,6.5,0,.9.1,1.9.3,2.8,0,.4.1.8.2,1.2.3,1.2.6,2.3,1.1,3.5-16,8.6-31.8,17.4-47.5,26.5-9.4,5.4-18.8,10.9-28.1,16.5-.2-4-.4-8-.6-11.9-.6-11.9-1-23.9-1.4-35.8-.1-4-.2-8-.3-11.9-.2-8-.3-15.9-.4-23.9,0-4,0-8-.1-11.9.2-.3.3-.5.5-.8.3-.6.5-1.1.7-1.7.5-1.5.6-3.1.2-4.8-.3-1.2-.8-2.3-1.5-3.3-.5-.7-1.1-1.4-1.8-2-.9-.8-1.9-1.5-3-2.1-1.3-.8-2.7-1.4-4.1-1.9-2.7-1-5.6-1.8-8.5-2.4-4.8-1.1-9.8-1.8-14.6-2.6-8.1-1.3-16.3-2.3-24.5-3-2.9-.2-5.8-.4-8.7-.5-2.9-.1-5.8-.2-8.7-.2-2.9,0-5.8,0-8.7,0-2.9,0-5.8.2-8.7.4,1.3-7.6,2.8-15.1,4.4-22.7,1.1-5,2.2-10,3.4-15,1.8-7.5,3.8-14.9,5.9-22.3,4.2-14.8,8.8-29.4,13.9-43.9,2.5-7.2,5.2-14.5,7.9-21.7,1.8-4.8,3.6-9.6,5.5-14.3,7.5-19.1,15.5-38,23.8-56.7,2.1-4.7,4.1-9.4,6.2-14,3.1-7,6.3-14,9.5-21,4-8.7,7.6-17.7,12.3-26,4.4-7.8,10.2-14.9,18.8-18.2,3.3-1.3,6.7-1.9,10.2-2.2,1.2,0,2.3-.1,3.5-.2,3.5,0,7,.3,10.4.8,1.1.2,2.3.3,3.4.5,2.5.4,5,1,7.6,1.5,6.3,1.4,12.5,3,18.7,4.6,1.2.3,2.5.6,3.7.9,10.8,2.7,21.6,5.3,32.4,8,2.2.5,4.4,1.1,6.6,1.7,2.2.6,4.4,1.1,6.6,1.7,2.8.6,5.6,1.2,8.4,1.5,1.1.1,2.3.2,3.4.3.6,0,1.1,0,1.7,0,2,0,4,0,6-.4,1.9-.3,3.8-.8,5.6-1.6,1.3-.6,2.6-1.2,3.8-2.1,2-1.4,3.8-3.1,5.2-5.2,1.9-2.8,3.1-6,4.3-9.3,1.5-4.2,3-8.4,6-11.6.8-.9,1.7-1.6,2.6-2.2.5-.3,1-.6,1.5-.9,5.2-2.8,11.9-3,18-3.3.6,0,1.1,0,1.7,0,.8,0,1.7-.1,2.5-.2,1.2-.1,2.4-.3,3.5-.4,4.7-.6,9.3-1.6,13.8-3,1.1-.3,2.2-.7,3.4-1.1,2.2-.8,4.4-1.6,6.6-2.6,1-.4,2.1-.9,3.1-1.4,2-1,4-2,6-3.1,1-.6,1.9-1.1,2.9-1.7,1.9-1.2,3.8-2.4,5.6-3.8,2.7-2,5.3-4.1,7.8-6.4,1.7-1.5,3.3-3.1,4.8-4.7,2.3-2.4,4.5-5,6.6-7.7,1.4-1.8,2.7-3.6,3.9-5.5.8.6,1.6,1.2,2.4,1.8,1.6,1.2,3.3,2.3,5,3.3,11.2,6.7,24.1,10.1,37.2,9.6-.7-.7-1.4-1.4-2-2,6.7-1.3,13.1-4,18.7-7.9-.6.2-1.2.4-1.9.6-1.9.6-3.8,1.1-5.8,1.5-1.1.2-2.1.4-3.2.6-2.1.3-4.3.5-6.5.6-2.2,0-4.3,0-6.5-.1-1.1,0-2.2-.2-3.2-.3-1.1-.1-2.1-.3-3.2-.5-2.1-.4-4.2-.9-6.3-1.5-1-.3-2.1-.7-3.1-1-1-.4-2-.8-3-1.2-1-.4-2-.9-3-1.3-1-.5-1.9-1-2.9-1.5-.5-.3-.9-.5-1.4-.8-2.3-1.4-4.6-2.9-6.7-4.6,2.4-1.7,4.8-3.5,7.1-5.4,2.3-1.9,4.5-3.9,6.7-6,3.6,2.5,7.7,3.6,11.8,3.5.6,0,1.3,0,1.9-.1,1.9-.2,3.7-.7,5.4-1.5.6-.2,1.1-.5,1.7-.8.3-.2.5-.3.8-.5,2.2-1.3,4.1-3.1,5.6-5.3.4-.5.7-1.1,1-1.6.2-.3.3-.6.4-.8.3-.6.5-1.1.8-1.7.7-1.7,1-3.5,1.2-5.3.2-2.1,0-4.1-.6-6.2,0-.3-.2-.6-.2-.9-.2-.6-.4-1.1-.6-1.7-.1-.3-.2-.6-.4-.8-1.2-2.7-3.1-5.2-5.5-7.3,2-3.7,3.7-7.4,5.3-11.3.5-1.3,1-2.6,1.5-3.9,2.2-1.4,4.2-3,6.1-4.9.8-.7,1.5-1.5,2.2-2.3.4-.4.7-.8,1.1-1.2-.3-.1-.5-.3-.8-.4,1.9-5.3,3.4-10.8,4.6-16.4.7-3.4,1.3-6.8,1.7-10.2,2.9-23.8-1.9-48-13.1-69.2-8.2-15.5-19.8-29.4-33.9-40,6.4-4.6,12.7-9.4,18.7-14.6,10-8.8,24.7-21.8,18.8-36.9-4.8-12.3-20.3-16.3-32.3-15.4-13.8,1.1-26.7,7.7-36.9,16.9-9.5,8.6-16.7,19.3-23.2,30.3-12.3,0-24.4,2.8-36,6.8-13.3,4.6-26.8,10.2-39.1,17.1-4.9,2.8-9.6,5.9-13.9,9.4-1.4,1.2-2.8,2.4-4.1,3.7h0c.3.3.5.7.7,1,.2.3.5.7.7,1,.4.6.8,1.3,1.2,1.9.7,1.3,1.4,2.6,2,4,.6,1.4,1.1,2.7,1.5,4.1.6,2.1,1.1,4.2,1.4,6.4.3,2.2.6,4.3.7,6.5,0,1.5.1,2.9.2,4.4,0,2.2,0,4.5,0,6.7.5.6,1,1.2,1.5,1.8,1.1,1.2,2.2,2.3,3.5,3.4.6.5,1.3,1,2,1.5.6.5,1.3.9,2,1.3,1.3.8,2.7,1.6,4.1,2.2,6.3,3,13.3,4.4,20.3,4.7.8,0,1.6,0,2.3,0,2.3,0,4.7,0,7-.2,3.1-.2,6.2-.6,9.2-1,2.3-.3,4.6-.7,6.9-1.2,1.5-.3,3-.6,4.5-1,.8-.2,1.5-.4,2.3-.6,2.2-.6,4.5-1.2,6.7-2,.7-.2,1.5-.5,2.2-.7,1.5-.5,2.9-1,4.4-1.6,2.6-1,5.1-2.1,7.6-3.2-.9,3.5-1.6,7.1-2.1,10.7-1.3,8.8-2.4,19.6,1.9,27.9.1.3.3.5.4.8.3.5.6,1,.9,1.4.3.4.7.8,1.1,1.2.6.6,1.2,1.1,1.8,1.5.4.3.9.6,1.3.8.2.1.5.2.7.3.5.2.9.4,1.4.6,1.7.6,3.5.9,5.3.8,3.1,0,6.3-1,9.1-2.8,2.6-1.7,4.9-3.8,7-6.2,1.4-1.6,2.6-3.3,3.8-5.1.9-1.3,1.7-2.7,2.5-4.1s1.5-2.8,2.2-4.2c1.4,8.9,3.4,17.8,6.1,26.4.6,1.9,1.2,3.8,1.9,5.7.3.9.7,1.9,1,2.8,1.1,2.8,2.2,5.6,3.4,8.4.4.9.8,1.8,1.2,2.8.4,1,.9,1.9,1.4,2.9.3.7.7,1.3,1,2,.7,1.3,1.5,2.6,2.3,3.9.4.6.8,1.3,1.3,1.9.4.6.9,1.2,1.4,1.8,2.1,2.6,4.5,4.9,7.4,6.5.6.3,1.3.7,1.9.9.7.3,1.3.5,2,.7.7.2,1.4.3,2.2.4.4,0,.7,0,1.1.1.4,0,.8,0,1.2,0s.8,0,1.2,0c.4,0,.8,0,1.2-.1,0,0,.2,0,.3,0-5.3,12.2-12.6,23.5-21.6,33.3-4.1,4.4-8.6,8.6-13.3,12.3-21.7,17.1-49.5,25.3-77,23.7-4.3-.2-8.4-.7-12.5-1.5-2-.4-4.1-.8-6.1-1.3-2-.5-4-1-6-1.6-3-.9-5.9-1.8-8.8-2.9-1.9-.7-3.9-1.5-5.8-2.2s-3.9-1.6-5.8-2.5c-1-.4-1.9-.9-2.9-1.3-.6-.3-1.2-.4-1.7-.4-.2,0-.4,0-.6,0-1.2.3-2.2,1.3-2.5,2.4,0,.3-.1.6-.1.9,0,0,0,.2,0,.3,0,.4.2.8.4,1.2.1.2.2.4.4.6.2.2.3.3.5.5.1,0,.2.2.3.2,7.1,4.7,14.5,8.8,22.2,12.3,3.1,1.4,6.2,2.7,9.3,4,1.6.6,3.2,1.2,4.8,1.8,12.7,4.5,26,7.5,39.5,8.8-.8.3-1.6.6-2.4.8-5.5,1.9-11.3,3.2-17,3.8-.5,0-1,.1-1.5.2-1,0-2,.2-3.1.2-.5,0-1,0-1.5.1-1,0-2.1.1-3.1.2-1,0-2.1.2-3.1.3-1,0-2,.2-3.1.4s-2,.3-3,.5c-2,.4-4,1-5.9,1.8-1.9.8-3.6,1.8-5.1,3-.7.6-1.4,1.2-2.1,1.9-3.3,3.3-5.4,7.6-7.2,12.3-1.9,4.9-3.8,9.6-7.2,12.6-1.4,1.2-3,2.2-5,2.8-1,.3-2.1.5-3.2.7-1.1.1-2.2.2-3.3.2-2.2,0-4.4-.2-6.7-.5-1.1-.2-2.2-.4-3.3-.6-3.3-.7-6.6-1.6-9.9-2.5-1.1-.3-2.1-.6-3.2-.8,0-.3.2-.6.3-.9.2-.6.4-1.1.5-1.7.3-1.2.7-2.3.9-3.5.3-1.2.5-2.4.7-3.6.1-.9.2-1.8.3-2.7,0-.6,0-1.2,0-1.8,0-3-.3-5.9-1.4-8.7-.3-.8-.7-1.6-1.2-2.4-.4-.8-1-1.6-1.6-2.3-.4-.5-.9-1.1-1.4-1.5-.5-.5-1-1-1.5-1.4-.5-.4-1-.9-1.6-1.3-1.6-1.3-3.4-2.4-5.1-3.6-1.1-.8-2.3-1.6-3.3-2.4-1-.8-2.1-1.7-3.1-2.6-3-2.7-5.8-5.6-8.3-8.7-.4-.5-.8-1-1.2-1.5-4-5.2-7.4-10.8-10.1-16.7-.3-.6-.5-1.2-.8-1.8-.5-1.2-1-2.4-1.5-3.6-.2-.6-.5-1.2-.7-1.8-.5-1.2-.9-2.5-1.3-3.7-2.1-6.2-3.6-12.6-4.6-19.1-.5-3.2-.9-6.5-1.2-9.7,0-.2.2-.3.2-.5,5.1-14,10.2-28.1,15.4-42.1l-3,5.9c-2-.2-4-.4-6-.6-2.1-.2-4.3-.4-6.4-.6-2.2-.2-4.5-.3-6.7-.5-.2,2.6-.4,5.2-.5,7.8s-.2,5.2-.3,7.9c0,2.6,0,5.2,0,7.9,0,2.6,0,5.2.2,7.8,0,1.3.1,2.6.2,3.9.2,2.6.4,5.2.7,7.8.3,2.6.7,5.2,1.1,7.8.4,2.6,1,5.1,1.6,7.7.3,1.3.6,2.5,1,3.8,1,3.8,2.2,7.6,3.7,11.3.9,2.5,2,4.9,3.1,7.3.6,1.2,1.1,2.4,1.7,3.5,1.2,2.3,2.5,4.6,3.9,6.8,5.6,8.9,12.6,16.9,21.1,23.2,1.9,1.4,4,2.7,5.8,4.1.6.5,1.2,1,1.8,1.5,2.2,2.1,4,4.5,4.5,8,0,.3,0,.7.1,1,.2,1.7,0,3.3-.1,5,0,.7-.2,1.3-.3,2-.2,1-.4,2-.7,3-.3,1-.6,2-.9,2.9-.2.6-.4,1.3-.6,1.9-9-2.2-18-4.5-27.1-6.7-8.5-2.1-17.5-4.8-26.5-6.7-1.8-.4-3.6-.7-5.4-1s-3.6-.6-5.5-.7c-1.2-.1-2.4-.2-3.6-.3-.6,0-1.2,0-1.8,0-.6,0-1.2,0-1.8,0-.6,0-1.2,0-1.8,0-.6,0-1.2,0-1.8,0-3,.1-6,.5-8.9,1.1-2.3.5-4.5,1.2-6.5,2.1-1.5.6-3,1.4-4.3,2.2-1.4.8-2.7,1.7-3.9,2.7-1.2,1-2.4,2-3.5,3.2-.4.4-.7.8-1.1,1.1-.7.8-1.4,1.6-2.1,2.4-5.4,6.6-9.4,14.6-13,22.6-17.4,38-34.5,76.1-49.5,115.1-2.1,5.4-4.1,10.8-6,16.2-3.9,10.8-7.7,21.8-11.1,32.8-7.8,24.7-14.4,49.9-19.1,75.4-.5,2.8-1,5.7-1.5,8.5-2.1.2-4.1.4-6.2.6,0-.6,0-1.2,0-1.7,0-3.5-.8-6.9-2.2-10.1-.2-.5-.5-1.1-.8-1.6-.2-.4-.5-.8-.7-1.2,0,0,0-.1-.1-.2-.2-.4-.5-.7-.7-1.1,0,0-.1-.1-.2-.2-.3-.4-.5-.7-.8-1.1,0,0,0,0,0,0-.3-.3-.6-.6-.9-1,0,0-.1-.1-.2-.2-.3-.3-.6-.6-1-.9,0,0-.1-.1-.2-.2-.3-.3-.7-.6-1-.8,0,0,0,0-.1,0-.3-.3-.7-.5-1-.7,0,0,0,0-.1,0-.4-.2-.7-.5-1.1-.7,0,0-.1,0-.2-.1-.4-.2-.8-.4-1.2-.6,0,0,0,0-.1,0-.4-.2-.8-.3-1.2-.5,0,0,0,0-.1,0-.4-.2-.8-.3-1.2-.4,0,0-.2,0-.2,0-.4-.1-.8-.2-1.3-.3,0,0-.1,0-.2,0-.4,0-.8-.2-1.3-.3,0,0,0,0,0,0-.4,0-.9-.1-1.3-.2,0,0-.2,0-.2,0-.4,0-.9,0-1.3,0,0,0-.1,0-.2,0-.4,0-.9,0-1.3,0-3.8-8.7-2.7-18.7,2.7-26.6,2.5-3.6-3.4-7-5.9-3.4-6.4,9.3-7.6,21.3-3.5,31.7-.3.1-.5.3-.8.4-.3.1-.5.3-.8.4-.2.1-.5.3-.7.4-.2.1-.4.3-.5.4-.4.3-.8.6-1.2.9-.8.6-1.6,1.2-2.3,1.9-1.1,1-2.1,2.1-3.1,3.2-.6.8-1.2,1.5-1.8,2.4-.6.8-1.1,1.7-1.5,2.5-.2.4-.5.9-.7,1.3-.4.9-.8,1.8-1.1,2.7-.5,1.4-.8,2.9-1.1,4.3-.2,0-.3,0-.5,0-8.6-.1-17.3,0-25.9.2-2.9,0-5.8.2-8.6.3,0,.9,0,1.8.1,2.8-14.2,1.7-28.4,3.9-42.1,7.6,9.5-1.2,19.1-2.1,28.6-2.8s6.4-.4,9.6-.6c1.6,0,3.2-.2,4.8-.2,9.6-.4,19.2-.6,28.8-.5,1.6,0,3.2,0,4.8,0,.2,0,.3,0,.5,0,.1.9.3,1.9.6,2.8.1.5.3.9.4,1.4.4,1.4,1,2.7,1.7,3.9,1.1,2.1,2.5,4,4.2,5.7.7.7,1.4,1.3,2.1,1.8,1.1.8,2.3,1.6,3.6,2.2.3.1.6.3.9.4.6.2,1.2.5,1.9.6.6.2,1.3.3,1.9.5,1,.2,1.9.3,2.9.3,1,0,1.9,0,2.9,0,.6,0,1.3-.1,1.9-.3.3,0,.6-.1.9-.2.6-.1,1.2-.3,1.8-.5.3,0,.6-.2.9-.3.9-.3,1.8-.7,2.7-1.1,3.4-1.7,6.5-4.3,8.8-7.5.4-.6.8-1.2,1.2-1.8,1.1-1.8,1.9-3.7,2.6-5.7,1.6-.2,3.2-.3,4.8-.5,4.8-.4,9.6-.8,14.5-1,1.6,0,3.2-.1,4.8-.1,3.2,0,6.4,0,9.7,0,6.4,0,12.9.4,19.3,1,8,.7,16,1.8,23.9,3.3,2.2.4,4.5.8,6.8,1.2,2.3.4,4.6.9,6.8,1.5,1.5.4,3,.9,4.4,1.4,2.4.9,4.7,2.4,5.3,4.1.1.3.2.7.2,1,0,.5-.2,1-.5,1.6,0,0-.1.1-.2.2-.2.2-.3.4-.4.6-.3.3-.7.7-1.1,1-1.5,1.1-3.1,2-4.8,2.8-3.8,1.6-8.1,2.6-12,3.4-2.3.5-4.6.9-6.9,1.3-1.5.3-3.1.5-4.6.7-2.3.3-4.7.7-7,1-6.6.9-13.2,1.7-19.9,2.5-6.6.7-13.3,1.4-19.9,1.9-13.3,1.1-26.6,1.7-40,2-6.7.1-13.3.2-20,.2-16.7-.1-33.4-.8-50-2.1-3.3-.3-6.6-.5-10-.8-7.4-.7-14.8-1.5-22.1-2.4-6.2-.8-12.8-1.3-18.7-3.5-2-.7-3.8-1.8-5.4-3.1-.8-.7-1.4-1.4-2-2.3-.3-.4-.5-.8-.8-1.3-.2-.5-.4-.9-.6-1.4-.7.9-1.3,1.8-1.8,2.8-.3.4-.6.9-.7,1.5,0,0,0,0,0,.1-.4.5-.7,1.2-.6,2.1l.8,15.6c3.5,8.2,6.9,16.5,9.9,24.9.3.7.6,1.5.9,2.3.8,2.1,1.7,4.4,2.5,6.8.2.6.4,1.2.6,1.8.3.9.6,1.8.8,2.7.4,1.5.8,3.1,1,4.6.3,1.5.4,3,.4,4.5,0,.9,0,1.8-.1,2.6,0,.9-.3,1.7-.5,2.6-.2.4-.3.8-.4,1.2-.1.3-.2.6-.3.9-.1.3-.3.6-.4.9-.3.6-.6,1.1-1,1.7-.4.6-.8,1.1-1.3,1.6-1.9,2-4.2,3.5-6.8,4.6-1.9.8-4,1.4-6.1,1.8,0,2.3,0,4.5,0,6.8,2.8-.5,5.6-1.2,8.3-2.3,1.6-.6,3.1-1.4,4.6-2.3.4-.2.7-.5,1.1-.7.7-.5,1.4-1.1,2-1.6.6-.6,1.2-1.2,1.8-1.8.8-1,1.6-2,2.2-3,.7,7,1.8,13.9,3.4,20.7.2,1,.5,1.9.7,2.9.3,1.2.6,2.4,1,3.7.4,1.2.8,2.5,1.4,3.6.2.4.4.8.6,1.2.8,1.5,1.7,2.9,2.9,4,1.5,1.4,3.3,2.5,5.6,2.9.4,0,.8.1,1.2.2.4,0,.8,0,1.2,0,.8,0,1.5-.2,2.2-.4,1.4-.5,2.7-1.3,3.8-2.3.3-.3.5-.5.8-.8.1-.1.3-.3.4-.4.2-.3.5-.6.7-.9.1-.2.2-.3.3-.5.2-.3.4-.7.6-1,.8-1.4,1.3-2.9,1.6-4.4.4-1.6.5-3.3.6-5,0-1.7.1-3.3.4-5,0-.5.2-1.2.5-1.9.7-2.1,2.1-4.8,4-5,.5,0,1,0,1.6.4.3.2.5.4.8.6.6.7,1.1,1.8,1.5,2.7.3.6.5,1.2.7,1.6.4.8.8,1.7,1.1,2.6.3.9.7,1.7,1,2.6.3,1,.7,1.9,1,2.9.9,3,1.6,6,2.1,9,.3,1.8.6,3.7.8,5.6.9,5.6,2,11.1,5.3,15.8,2.1,2.9,4.9,5.2,8,6.5.4.1.7.3,1.1.4,1.1.4,2.2.6,3.4.7,1.2.1,2.4,0,3.6-.1,2.1-.3,4.1-1,5.9-1.9.7-.4,1.4-.8,2.1-1.3.3-.2.7-.5,1-.7,1-.8,1.9-1.6,2.7-2.5.6-.6,1.1-1.3,1.6-1.9.7-1,1.4-2.1,1.9-3.2.2-.5.5-1,.7-1.5.4-1,.8-2,1.1-3.1.8-2.6,1.2-5.2,1.5-7.9,0-1.1.2-2.2.2-3.2,0-1.1,0-2.2,0-3.3,0-2.2,0-4.3-.2-6.5,0-1.2,0-2.4,0-3.6,0-8.3.9-16.2,3.8-24.2.8,0,1.7,0,2.5,0,2.5,0,5-.2,7.4-.4,7.4-.5,14.8-1.3,22-2.8,2.4-.5,4.8-1,7.2-1.7.5-.1,1.1-.3,1.6-.5,0,0,.2.2.3.2,8.2,5.9,8.4,17,8.6,27.1,0,.9,0,1.8,0,2.6,0,2.2.2,4.3.4,6.2,0,.8.2,1.6.3,2.3.1.8.3,1.6.5,2.4.2.8.4,1.6.7,2.4.3.8.5,1.6.9,2.3.5,1.1,1,2.2,1.7,3.3.4.7.9,1.4,1.4,2,.5.6,1,1.3,1.6,1.9.9.9,1.8,1.7,2.8,2.4,2.6,1.8,5.5,2.6,8.3,2.5.4,0,.7,0,1.1,0,1.4-.2,2.8-.5,4.2-1.1.7-.3,1.3-.7,2-1.1.3-.2.6-.4.9-.7.7-.5,1.3-1.1,1.9-1.7,1.1-1.2,2.1-2.5,2.8-4,1.3-2.5,2.2-5.3,2.7-8.1.1-.8.3-1.6.4-2.5,0-.4,0-.8.1-1.2.8-8.2,1.1-16.2,2.6-24.3.4-1.9.7-3.8,1.2-5.7.4-1.9.9-3.8,1.4-5.6.4-1.4.7-3,1.2-4.6.1-.4.3-.9.5-1.3.2-.4.4-.9.6-1.3.1-.2.2-.4.3-.6.2-.4.5-.8.7-1.1.3-.3.6-.7.9-1,.2-.1.3-.3.5-.4.7-.5,1.4-.9,2.1-1.1.4,0,.7-.2,1.1-.2,1.9-.2,3.8.5,5.6,1.6.5.3,1.1.7,1.6,1.1,2,1.6,3.7,3.5,4.8,5.3.5.9,1,1.8,1.4,2.7.8,1.8,1.3,3.8,1.7,5.7.6,3.4.7,7,.7,10.5,0,1.5-.1,3-.2,4.5-.2,3.5-.4,7-.4,10.6,0,4.5.3,9,1.5,13.4-3.5,2.2-7.1,4.4-10.6,6.7-1.6,1.1-3.3,2.1-5,3.2-1.1.7-2.3,1.4-3.4,2.2-1.1.7-2.2,1.5-3.3,2.3-.5.4-1.1.8-1.6,1.2-2.7,2-5.2,4.2-7.4,6.7-1.3,1.5-2.5,3.1-3.5,4.8-.9,1.5-1.7,3.1-2.2,4.8-.4,1.1-.7,2.2-.9,3.4-.1.6-.2,1.1-.3,1.7-.2,1.1-.2,2.3-.2,3.4-21.1,1.7-42.2,2.5-63.3,2.5-7,0-14.1-.1-21.1-.3-7-.2-14.1-.5-21.1-.9-3.5-.2-7-.4-10.5-.7-7-.5-14.1-1.1-21.1-1.7-10.5-1-21-2.2-31.5-3.7-2.1-.3-4.3-.6-6.4-.9-2.1-.3-4.3-.6-6.4-1l-1.6-37.2c-2.2.5-4.4,1-6.6,1.6l1.5,34.5c-2.3-.4-4.7-.8-7-1.2-4.7-.8-9.3-1.7-14-2.6-2.3-.4-4.6-.9-7-1.4-.3,0-.5,0-.8,0-.1,0-.2,0-.4,0-.2,0-.5,0-.7.1-.3.1-.6.3-.9.4-.2.1-.3.3-.5.4-.2.2-.4.5-.6.8-.1.2-.2.4-.3.6,0,.2-.1.4-.2.6,0,.2,0,.4,0,.6,0,.1,0,.2,0,.3,0,.2,0,.4,0,.6.1.5.4.9.8,1.3.4.4.9.6,1.6.8,56.3,11.4,113.9,16.6,171.4,15.5,6-.1,12-.3,18-.6,4-.2,8-.4,12-.6,6-.3,12-.8,17.9-1.2,0,.3.2.5.3.8.3.8.7,1.5,1.1,2.3.3.5.6,1,.9,1.5.3.5.7.9,1.1,1.4,1.8,2.1,4,3.7,6.4,5-.5.3-.9.5-1.4.8-4.2,2.5-8.5,5.5-11.8,9.2-.4.4-.7.8-1.1,1.3-1.7,2.2-3,4.6-3.8,7.3,0,.3-.1.5-.2.8,0,.3-.1.5-.2.8-.1.5-.2,1.1-.2,1.6-3,.3-6,.6-9,.9-24.1,2.3-48.3,3.5-72.5,3.8-9.1,0-18.2,0-27.2-.2-9.1-.2-18.1-.5-27.2-1-3-.2-6-.3-9.1-.5-1.9-.1-3.9-.3-5.8-.4s-3.9-.3-5.8-.4c.8.1,1.5.2,2.3.4,7.5,1.2,15,2,22.5,2.6,0,1.8,0,3.6,0,5.3,4.7.2,9.3.4,14,.6,2.3,0,4.7.1,7,.2,4.7.1,9.3.2,14,.2,4.7,0,9.3,0,14,0,2.3,0,4.7,0,7,0,.5.8.9,1.6,1.3,2.4.6,1.2,1.1,2.4,1.6,3.6.5,1.2.9,2.4,1.3,3.7.2.8.5,1.6.7,2.5.2.8.4,1.6.5,2.5,0,.4.1.8.2,1.2.1.8.2,1.7.3,2.5.2,2.1.3,4.2.3,6.3,0,4.6-.6,9.3-1.5,14,0,.4-.2.8-.3,1.3-.2.8-.4,1.7-.6,2.5-.2.8-.4,1.7-.6,2.5-1.1,4.2-2.5,8.4-3.9,12.6-.3.8-.6,1.7-.9,2.5-.3.8-.6,1.6-.9,2.5-.8,2-1.5,4.1-2.3,6.1-.3.8-.6,1.6-.9,2.4-1.1,2.8-2.2,5.5-3.2,8.2-2.5,6.7-4.8,13.5-6.5,20.5-.4,1.7-.8,3.5-1.1,5.3-.5,2.6-.8,5.3-1.1,8-.2,1.8-.2,3.6-.3,5.4,0,.9,0,1.8,0,2.7,0,.6,0,1.3,0,1.9,0,.6,0,1.3.1,1.9.2,1.9.4,3.8.8,5.7.1.6.2,1.3.4,1.9.3,1.2.6,2.5,1,3.7-9.9,1.6-19.5,4.9-28.2,9.8-4,2.2-7.7,4.8-11.3,7.6-3.5,5.4-6.2,11.1-7.3,17.1h.1c.3-.4.6-.8.9-1.1.3.4.7.7,1,1.1h9.4c-2.1-1.9-4.1-4-5.9-6.1,2.9-2.9,6-5.6,9.3-8.1,9.9-7.3,21.7-12.3,34.5-14,.9,1.8,1.9,3.6,3,5.2.8,1.1,1.6,2.2,2.5,3.2,1.3,1.5,2.8,2.9,4.5,4.2,1.3,1,2.6,1.9,4,2.7,1.4.8,2.9,1.6,4.3,2.3,1.5.7,3,1.4,4.6,2s3.2,1.1,4.8,1.6c5.6,1.7,11.5,2.7,17.1,3.2.8,0,1.6.1,2.4.2,1.6.1,3.3.2,4.9.1,4.1,0,8.2-.4,12.3-1.3,1.6-.3,3.2-.7,4.8-1.2,1.6-.5,3.1-1,4.6-1.6,1.5-.6,3-1.3,4.5-2.1s2.9-1.6,4.2-2.5c.7-.5,1.4-.9,2-1.4,1.7-1.3,3.3-2.7,4.7-4.2.7-.7,1.4-1.5,2-2.2.3-.4.6-.8.9-1.2.6-.8,1.1-1.6,1.6-2.4.2-.4.5-.8.7-1.2.5-.8.9-1.6,1.3-2.5.4-.8.7-1.7,1.1-2.6s.6-1.7.9-2.6c2.3,0,4.6.2,6.9.4.6,0,1.1.1,1.7.2,1.1.2,2.3.4,3.4.6.6.1,1.1.2,1.7.4,1.1.3,2.2.5,3.3.9,1.7.5,3.3,1,4.9,1.6,1.6.6,3.2,1.3,4.8,2,1,.5,2.1,1,3.1,1.5,1.5.8,3,1.7,4.5,2.6,1.9,1.2,3.8,2.6,5.6,4,3.2,2.5,6.1,5.3,8.7,8.5.5.6,1,1.2,1.5,1.8-2.3,3-5,5.7-7.9,8h9.8c.7-.7,1.4-1.5,2-2.3.4.7.9,1.5,1.3,2.3h7.5c-2.4-4.9-5.3-9.5-8.8-13.7-11.2-13.7-27.8-22.5-45.3-24.8-2.5-.3-5-.5-7.5-.6.6-5.5.3-11.3-.7-17-.3-1.9-.7-3.8-1.2-5.8-.2-1-.5-1.9-.7-2.9-1-3.8-2.2-7.5-3.6-11.2-.3-.9-.7-1.8-1-2.7-.3-.9-.7-1.8-1-2.6-.3-.9-.7-1.7-1.1-2.6-.4-.9-.7-1.8-1.1-2.7-4.1-9.9-8-19.7-10.4-30.1-.8-3.8-1.5-7.6-1.8-11.5-.2-2-.3-3.9-.4-5.9,0-1,0-2,0-2.9,0-6.9.6-13.7,1.9-20.4.2-1,.4-1.9.6-2.9.4-1.9.9-3.8,1.4-5.7.5-1.9,1.1-3.8,1.8-5.6.3-.9.7-1.9,1-2.8,2.3-.2,4.5-.4,6.8-.7.6,2.2,1.7,4.4,3.1,6.3.5.7,1.1,1.4,1.7,2.1.6.7,1.2,1.3,1.9,1.9.5.4.9.8,1.4,1.2,1,.8,2.1,1.6,3.2,2.2.7.5,1.5.9,2.2,1.3,4.2,2.2,8.8,3.7,13.4,4.8-.7.7-1.4,1.4-2.1,2.2-1,1.2-1.9,2.4-2.7,3.7-.8,1.3-1.4,2.7-2,4.1-.5,1.4-.8,2.8-1,4.2,0,.3,0,.6,0,.8,0,.6,0,1.1,0,1.7,0,1.4.2,2.8.5,4.2.4,1.9,1.1,3.8,2.1,5.5.4.8.8,1.5,1.3,2.2.2.2.3.5.5.7.3.5.7.9,1,1.4.2.2.4.4.5.7.4.4.8.9,1.2,1.3.6.6,1.2,1.2,1.9,1.7,3.1,2.6,6.6,4.5,10.2,5.8,1.2.4,2.5.8,3.7,1.2,1.3.3,2.5.6,3.8.9,1.9.4,3.9.7,5.9.9,2,.2,3.9.4,5.9.6,6,.5,11.9.8,17.9,1,38.9,1.5,78-1.8,116.2-8.8,2.9-.5,5.9-1.1,8.8-1.7,8.7-1.7,17.3-3.7,25.8-5.8,5.7-1.4,11.4-2.9,17.1-4.5,19.8-5.5,39.4-12.1,58.6-19.5,11-4.2,21.8-8.8,32.6-13.5,1.7-.8,3.5-1.6,5.2-2.3-2.2,40.2-3.8,80.4-4.7,120.6-.3,13.4-.5,26.8-.7,40.2,0,1.9,0,3.8,0,5.8h6.7c.1-14.4.4-28.8.7-43.1.2-10.9.5-21.7.9-32.6ZM859.5,314.5c1.7-2,3.2-4.1,4.8-6.2.9-1.3,1.8-2.6,2.7-4,.9-1.3,1.7-2.7,2.6-4.1,1.1,1.1,2,2.4,2.7,3.8.5,1,.8,2.1,1,3.3.4,2.2.2,4.6-.6,6.8-.4,1.1-1,2.1-1.7,3.1-.5.7-1.1,1.3-1.6,1.8s-1.2,1-1.9,1.4c-1.6,1-3.4,1.5-5.3,1.7-.4,0-.7,0-1.1,0-1.1,0-2.3-.2-3.4-.4s-2.2-.7-3.2-1.3c1.8-1.9,3.5-3.8,5.1-5.9ZM458.2,678.8c-.1.9-.3,1.7-.6,2.6-.2.6-.3,1.1-.6,1.7-.6,1.7-1.5,3.2-2.5,4.7-2.1,2.8-4.9,5.1-8.4,6.2-2,.7-4,.9-5.9.7-.8,0-1.6-.2-2.4-.4-.5-.1-1-.3-1.5-.5-.2,0-.5-.2-.7-.3-.5-.2-.9-.5-1.4-.7-3.8-2.3-6.6-6.4-7.5-11.3-.3-1.9-.3-3.8,0-5.6,0-.5.2-1,.3-1.5.2-.7.4-1.5.7-2.2.2-.5.4-.9.6-1.4.2-.5.5-.9.7-1.4.4-.7.8-1.3,1.3-1.9.3-.4.6-.8,1-1.2.7-.8,1.4-1.6,2.2-2.3,1.4-1.2,2.9-2.3,4.4-3.3.5-.3,1-.5,1.5-.6.5-.2,1-.3,1.6-.4.3,0,.5,0,.8-.1.8-.1,1.6-.1,2.3,0,.8,0,1.5.2,2.3.3.5.1,1,.3,1.5.4.7.3,1.4.6,2.1,1,.4.3.9.5,1.3.8.8.6,1.6,1.3,2.4,2.1.4.4.7.8,1,1.2.3.4.6.9.9,1.3.1.2.3.5.4.7.7,1.2,1.2,2.4,1.5,3.8.2.9.4,1.7.5,2.6,0,.3,0,.6,0,.9,0,.6,0,1.2,0,1.8,0,.9,0,1.8-.2,2.7ZM477.5,980.5c2.2,6,4.8,11.9,7.3,17.9.6,1.5,1.2,3,1.8,4.5,1.8,4.5,3.4,9,4.8,13.7,1.7,5.9,2.9,12.4,2.8,18.7,0,.4,0,.8,0,1.2,0,2-.3,3.9-.6,5.8-.3,1.5-.7,3-1.2,4.5-.4,1.1-.8,2.2-1.3,3.3-.5,1.1-1.1,2.1-1.7,3.1-3.4,5.3-8.4,9.2-14,11.9-5.6,2.7-12,4.2-18,4.6-4.7.3-9.6.2-14.5-.5-.8-.1-1.6-.2-2.4-.4-1.6-.3-3.2-.6-4.8-1-1.6-.4-3.2-.8-4.7-1.3-1.6-.5-3.1-1-4.6-1.6-2.3-.9-4.4-1.9-6.5-3-12.1-6.5-16.5-19.4-16.6-32.6,0-4.4.4-8.7,1.1-13,.3-1.7.6-3.4,1-5.1.2-.8.4-1.7.6-2.5.4-1.7.9-3.4,1.4-5,1-3.3,2.1-6.6,3.3-9.9.6-1.6,1.2-3.3,1.8-4.9.9-2.3,1.8-4.7,2.7-7.1,1.5-4,3.1-8,4.5-12.2,2.6-7.4,4.9-15,6.2-22.6.7-4.2,1.2-8.4,1.2-12.7,0-3.4-.2-6.7-.7-10-.3-1.7-.6-3.3-1-5-.2-.8-.4-1.6-.7-2.5-.5-1.6-1.1-3.3-1.8-4.9-.3-.8-.7-1.6-1.1-2.4,4.8-.1,9.6-.3,14.4-.5,2.4,0,4.8-.2,7.2-.3,2.4-.1,4.8-.2,7.2-.4,4.4-.3,8.7-.5,13-.9,4.3-.3,8.7-.7,13-1.1-4.2,12-6.2,24.6-6,37.1,0,1.6,0,3.1.2,4.7,0,.8,0,1.6.2,2.3.8,10.2,3,20.3,6.5,30ZM655.5,738.2c.9-1.1,2.1-2.1,3.6-2.8.6-.3,1.2-.4,1.8-.6.3,0,.6,0,1-.1.3,0,.7,0,1,0,.5,0,1,0,1.5.2,1.7.3,3.3,1,4.4,2.1.2.2.4.4.6.7.3.4.5.7.7,1.1.3.7.5,1.4.5,2.2,0,.2,0,.3,0,.5-2.8,1.4-5.5,2.9-8.3,4.4-2.8,1.5-5.5,2.9-8.3,4.4-.4-1-.7-2.1-.8-3.2,0-.7-.1-1.4-.1-2.2,0-2.5.9-4.9,2.4-6.7ZM413,787.9c-.6,3.1-.9,6.3-1,9.4-.1,2.8,0,5.6.1,8.4,0,1.4.1,2.8.2,4.2,0,1.4,0,2.8,0,4.2,0,.9,0,1.9,0,2.8,0,.9-.1,1.9-.2,2.8,0,.8-.2,1.6-.4,2.4-.3,1.6-.8,3.2-1.3,4.7-1.5,3.8-4,7.1-7.8,8.9-3.1,1.4-6.1,1.2-8.5-.1-.6-.3-1.2-.7-1.8-1.2-1.1-.9-2.1-2-3-3.3-.4-.6-.8-1.3-1.1-2-.8-1.6-1.3-3.3-1.8-5.1-.2-.9-.4-1.8-.6-2.6-.5-2.7-.8-5.4-1.2-8.1-.3-1.8-.5-3.6-.9-5.3-.2-.8-.4-1.6-.6-2.4-.3-1.2-.6-2.5-1-3.7-1.4-4.6-3.2-9.2-5.9-12.7-1.5-2-3.5-3.2-5.6-3.5-1.2-.2-2.5-.2-3.7.1-.6.1-1.2.4-1.8.6-.3.1-.6.3-.9.4-.6.3-1.1.7-1.7,1.1-2.3,1.9-3.5,4.1-4.3,6.6-.1.4-.2.7-.3,1.1-.7,2.9-.7,6.1-1,9.1,0,.3,0,.7-.1,1.1,0,.4-.1.8-.2,1.2-.2,1-.5,2.1-1,3.1-.2.4-.4.7-.6,1.1-.4.5-.8.9-1.3,1.2s-.3.2-.5.3c-.2,0-.4.1-.6.2-.8.2-1.4,0-2-.2-.6-.2-1.2-.7-1.6-1.2-1.6-1.7-2.5-4.6-3-6.4-1.9-6.6-3.2-13.3-4.1-20.1-.3-2.3-.5-4.5-.7-6.8,0,0,0,0,0-.1,0,0,0,0,0-.1,2.4,0,4.9,0,7.3.1,4.9,0,9.8.2,14.7.3,7.3.1,14.7.2,22,.2,4.9,0,9.8,0,14.7,0,2.6,0,5.2,0,7.9,0,2.6,0,5.3,0,7.9,0-1,3-1.8,6.1-2.3,9.2ZM467.7,764c-.4.2-.8.5-1.2.7-1.1.6-2.2,1-3.4,1.4-.5.2-.9.3-1.4.5-1.6.5-3.1.9-4.4,1.2-4.6,1.1-9.3,1.9-14,2.5-8.2,1-16.5,1.4-24.8,1.6-5.9.1-11.9.1-17.7.2-5.3,0-10.5,0-15.8,0-13.2,0-26.4-.3-39.5-.5-2.6,0-5.3-.1-7.9-.2,0-.6.1-1.2.2-1.8s0-1.2,0-1.8c0-.4,0-.8,0-1.2-.1-1.8-.3-3.5-.6-5.3-.2-.9-.3-1.7-.5-2.6-.3-1.3-.6-2.6-1-3.9-.7-2.6-1.6-5.2-2.5-7.7-.2-.4-.3-.8-.5-1.3,39.1-2.9,78.5-5.7,117.5-.9.7,0,1.4.2,2.2.3.5,0,1,.1,1.5.2,1.3.2,2.6.4,4,.6,1.1.2,2.2.4,3.2.7.5.1,1,.3,1.6.5,4.1,1.4,7.6,3.7,9.1,7.9.2.5.3,1,.4,1.5,0,.2,0,.5,0,.7,0,.5,0,.9,0,1.3,0,.4-.2.8-.3,1.2-.5,1.2-1.2,2.2-2.3,3-.5.4-1.1.8-1.7,1.2ZM534,763c-.5-.6-1.1-1.1-1.7-1.6-1.2-1-2.5-1.9-3.9-2.6-1-.5-2.1-1-3.3-1.3-1.9-.6-3.9-.8-5.8-.7-.8,0-1.5.2-2.3.3-1.1.3-2.2.7-3.2,1.2-.7.4-1.3.8-1.9,1.3-.3.3-.6.5-.9.8-.6.6-1.1,1.3-1.6,2-3.2,4.7-4.4,11.2-5.5,16.7,0,.4-.2.8-.3,1.2-.2,1-.4,2-.6,3-1,5.1-1.7,10.2-2.2,15.3-.2,2-.4,4.1-.5,6.2-.2,3.2-.3,7.4-1.4,11-.2.7-.4,1.4-.7,2,0,.2-.2.4-.3.6-.3.6-.6,1.2-1,1.8-.4.6-.8,1.1-1.3,1.5-.5.5-1,.9-1.6,1.2s-1.2.6-2,.9c-1,.3-1.9.4-2.8.3-.4,0-.8-.1-1.2-.2-.6-.2-1.2-.4-1.7-.8-.9-.6-1.7-1.3-2.4-2.2-.9-1.1-1.6-2.3-2.3-3.6-1.3-2.6-2.1-5.4-2.5-7.6-.2-1-.3-2-.4-3-.2-2-.3-4.1-.4-6.1,0-1,0-2,0-3.1,0-1,0-2-.1-3.1-.1-3.1-.3-6.1-.9-9.1-.3-1.4-.6-2.9-1-4.2-1-3.1-2.3-6-4.2-8.5-.6-.8-1.3-1.7-2.1-2.4.7-.4,1.4-.8,2.1-1.3s1.3-1,1.9-1.5c1-.9,1.9-1.9,2.6-3.1.7-1.1,1.3-2.4,1.7-3.8.3-1,.4-2.1.4-3.1,0-.5,0-1,0-1.5,0-.5-.1-1-.2-1.5,0-.2-.1-.5-.2-.7-.1-.5-.3-.9-.5-1.4-1.2-3.2-3.6-6.1-6.5-8.2-.4-.3-.8-.6-1.3-.9-.2-.1-.4-.3-.6-.4-.9-.5-1.8-1-2.7-1.4-5.4-2.3-11.6-3.3-17.7-3.8-1.2-.1-2.4-.2-3.7-.3-2.4-.2-4.8-.3-7.2-.5-9.6-.8-19.2-1.2-28.8-1.3-1.4,0-2.7,0-4.1,0-21.6,0-43.1,1.3-64.7,2.9-3.1.2-6.2.4-9.2.7-.3,0-.5,0-.7.1-.2,0-.4.1-.6.2-.3-.7-.6-1.5-.9-2.2-2.7-7.1-5.6-14.2-8.7-21.1-1-2.3-2-4.6-3.1-7,6.8,5,16.7,5.8,24.7,6.9,7.5,1,15.1,1.8,22.6,2.5,3.8.4,7.6.7,11.3,1,13.2,1,26.5,1.7,39.8,2,5.7.1,11.4.2,17.1.2,5.7,0,11.4,0,17.1-.3,1.9,0,3.8-.1,5.7-.2,3.8-.1,7.6-.3,11.4-.5,3.8-.2,7.6-.4,11.4-.7,3.8-.3,7.6-.5,11.3-.9,5.7-.5,11.3-1,17-1.6,3.8-.4,7.5-.8,11.3-1.3,1.9-.2,3.8-.5,5.6-.7,1.6-.2,3.2-.4,4.9-.6,4.1-.5,8.4-1,12.6-1.7,1.7-.3,3.4-.6,5.1-.9.8-.2,1.7-.4,2.5-.5,5-1.2,9.8-2.8,14.1-5.1,0,7.8.2,15.6.3,23.4.2,7.8.4,15.6.6,23.4.3,7.8.6,15.6.9,23.4.3,7.8.7,15.6,1.2,23.4-3.1,1.9-6.1,3.7-9.2,5.6-2.4,1.5-4.8,2.9-7.1,4.4-2.4,1.5-4.8,3-7.1,4.4-.3-1.3-.4-2.6-.6-3.9,0-.9-.1-1.7-.2-2.6s0-1.7,0-2.6c0-.9,0-1.8,0-2.6,0-.4,0-.9,0-1.3,0-.9,0-1.8.1-2.6,0-.9,0-1.8.1-2.6.2-3.1.3-6.2.3-9.3,0-4.8-.5-9.6-2.3-14.2-.4-1.1-.9-2.2-1.4-3.2-1.2-2.4-2.8-4.8-4.7-6.7ZM749.8,937.2c-6.4,2-12.9,3.9-19.4,5.7-6.5,1.8-13,3.5-19.6,5-10.5,2.5-21.1,4.7-31.7,6.7-4.9.9-9.9,1.7-14.9,2.5-3.4.5-6.9,1-10.3,1.5-6.9.9-13.8,1.7-20.7,2.4-3.5.3-6.9.6-10.4.9-13.5,1-27.1,1.5-40.7,1.4-8.1,0-16.3-.3-24.4-.7-.6,0-1.2,0-1.9,0-6.2-.3-12.8-.5-19-1.9-1.2-.3-2.5-.6-3.7-1-.6-.2-1.2-.4-1.8-.6-1.2-.4-2.3-.9-3.5-1.5-1.2-.6-2.3-1.3-3.4-2.1-.7-.5-1.3-1-1.9-1.6-.4-.4-.8-.8-1.2-1.2-.4-.4-.7-.8-1.1-1.2-3.4-4.2-5.1-9.7-2.8-15.1,1.7-4,4.8-7.1,8.3-9.8,2.6.4,5.3.7,7.9.9,2.6.2,5.3.4,7.9.4,2.7,0,5.3,0,8,0,2.7-.1,5.3-.3,7.9-.6,1.4-.2,2.8-.3,4.2-.5,2.8-.4,5.5-.9,8.3-1.4,2.7-.6,5.5-1.2,8.2-2,2.7-.7,5.4-1.6,8-2.5,1.3-.5,2.6-1,3.9-1.5.5-.2,1-.4,1.5-.6,1.2-.5,2.5-1.1,3.8-1.7.3-.1.5-.3.8-.4.5-.3,1-.5,1.5-.8.5-.3,1-.6,1.5-.9.5-.3,1-.6,1.4-1,.5-.3.9-.7,1.3-1.1.4-.4.8-.7,1.2-1.1s.7-.8,1.1-1.2c.2-.2.3-.4.5-.6.3-.4.6-.9.8-1.4.4-.7.7-1.4.9-2.2.1-.5.3-1,.3-1.6.1-1.1.1-2.3-.1-3.5-1.4-7.7-9.7-10-16.5-9.8-9.8.3-19.7,4.9-28.7,8.6-4,1.6-7.9,3.4-11.7,5.2-5.1,2.5-10.2,5.1-15.1,8-1.2.7-2.5,1.4-3.7,2.2-2.3,1.4-4.6,2.8-6.9,4.4-4.8-.8-9.6-2-14-3.9-2.6-1.1-5.3-2.6-7.6-4.5-.5-.4-1.1-.9-1.5-1.4-.2-.2-.3-.3-.5-.5-.5-.5-.9-1-1.3-1.5-.3-.4-.5-.7-.8-1.1-.1-.2-.2-.4-.3-.6-.2-.4-.4-.8-.6-1.2-.6-1.4-.9-3-.9-4.7,0-4.5,2.5-8.2,5.8-11.2.4-.4.8-.7,1.2-1,.8-.7,1.7-1.3,2.5-1.9,1.1-.8,2.2-1.5,3.2-2.1.2-.1.4-.3.6-.4.6-.4,1.3-.7,1.9-1.1.4-.2.9-.5,1.3-.7,1.3-.7,2.6-1.4,3.9-2.1,1.5.3,2.9.6,4.4.7,1.5.2,2.9.3,4.4.3,4.1.1,8.3,0,12.4-.6,4.1-.5,8.2-1.4,12.2-2.6.7-.2,1.3-.4,2-.6,2-.6,3.9-1.3,5.8-2.1.3-.1.6-.2.8-.3,2.5-1,5.3-2.2,7.7-3.7,1.6-1,3.1-2.2,4.3-3.6,1.2-1.5,2-3.3,2.1-5,.2-2.3-.7-4.5-2.8-6.1-.9-.7-1.9-1.1-3-1.3-2.9-.6-6.1.3-8.9,1.1-.3,0-.5.1-.8.2-5.7,1.6-11.4,3.5-17,5.6-7.3,2.7-14.4,5.8-21.4,9.3-1,.5-2,1-3,1.5-.4-.1-.8-.3-1.2-.4-1.2-.4-2.4-1-3.5-1.6-1.6-.9-2.8-1.9-3.9-3.1-.5-.6-1-1.2-1.4-1.8-.3-.4-.5-.9-.7-1.3-.9-2-1.3-4.2-1.2-6.5,0-1.3.3-2.5.6-3.8.5-1.8,1.3-3.5,2.3-5.2.3-.5.7-1,1-1.5.7-1,1.5-1.9,2.4-2.9,1.3-1.4,2.7-2.6,4.1-3.8,2-1.6,4.1-3,6.2-4.4,1.1-.7,2.1-1.4,3.2-2,2.2-1.3,4.3-2.6,6.3-3.9,9-5.7,18-11.4,27.1-17,18.3-11.2,36.7-22.1,55.4-32.7,4.7-2.7,9.3-5.3,14-7.9,9.4-5.2,18.8-10.4,28.2-15.4,4.7-2.5,9.5-5,14.2-7.5,3.7-2,7.5-3.9,11.2-5.9,3.8-1.9,7.5-3.9,11.3-5.8,2.9,4.2,5.7,8.5,8.4,12.9.9,1.4,1.8,2.9,2.7,4.4,1.8,2.9,3.5,5.8,5.2,8.8,3.4,5.9,6.7,11.9,9.9,17.9,3.1,6.1,6.2,12.2,9,18.4.7,1.5,1.4,3.1,2.1,4.7,1.4,3.1,2.8,6.2,4.1,9.4,1.3,3.1,2.6,6.3,3.9,9.5,1.3,3.2,2.5,6.4,3.7,9.6.6,1.6,1.2,3.2,1.7,4.8,1.1,3.2,2.3,6.4,3.3,9.7,1.1,3.2,2.1,6.5,3.1,9.8,1,3.3,2,6.5,2.9,9.8,1.8,6.6,3.5,13.2,5.1,19.9,1.7,7.4,3.2,14.9,4.5,22.4.3,1.9.6,3.7,1,5.6.9,5.6,1.7,11.3,2.4,16.9-5.1,1.7-10.3,3.4-15.5,5ZM535,920.7h0c.2-.1.5-.3.7-.4.5-.3.9-.5,1.4-.8.2-.1.5-.3.7-.4,9.2-5.3,18.8-10,28.6-14,3.9-1.6,8.1-3.4,12.3-4.8,1.6-.5,3.2-1,4.8-1.4,2.2-.5,4.3-.9,6.5-1,.5,0,1.1,0,1.6,0,.5,0,1,0,1.5,0,.4,0,.8,0,1.1.1.7,0,1.4.2,2.1.4.4.1.7.2,1,.4.8.4,1.5.9,2.1,1.5.2.2.3.4.4.6.2.4.4.8.4,1.2,0,.4,0,.8,0,1.2,0,.4-.2.8-.3,1.2,0,.2-.2.4-.3.6-.2.4-.5.7-.7,1.1-.2.3-.4.5-.6.8-.2.2-.5.5-.7.7-.5.4-1,.8-1.5,1.2-2.9,2-6.4,3.4-9.8,4.6-1.1.4-2.3.8-3.4,1.2-2.4.8-4.7,1.5-7.1,2.2-2.4.7-4.8,1.2-7.2,1.7-1.3.3-2.5.5-3.8.7-6.3,1.1-12.7,1.7-19.1,1.8-2.6,0-5.1,0-7.7-.1-.5,0-1.1,0-1.6,0-.5,0-1.1,0-1.6,0ZM528.6,874.1c1-.5,2-.9,3.1-1.4,2-.9,4.1-1.8,6.2-2.6,1-.4,2.1-.8,3.1-1.2,5-1.9,10.1-3.7,15.2-5.2.6-.2,1.1-.4,1.7-.5,1.2-.4,2.3-.7,3.5-1,.6-.2,1.2-.3,1.8-.4.2,0,.4,0,.7-.1.1,0,.2,0,.4,0,.3,0,.5,0,.8-.1.1,0,.2,0,.4,0,.2,0,.4,0,.6,0,.5,0,.7.3.6.7,0,.3-.3.6-.7,1.1-.7.9-1.7,1.6-2.8,2.3-1.1.7-2.3,1.3-3.5,1.8-2.5,1.1-5.1,1.9-7.2,2.6-1.8.6-3.7,1.2-5.6,1.7-1.3.3-2.5.6-3.8.9-.6.1-1.3.3-1.9.4-1.3.2-2.6.4-3.8.6-.7,0-1.4.2-2.1.2-2.1.2-4.3.3-6.5.4Z"/>
  <polygon class="cls-1" points="652.4 258.7 652.4 258.7 652.4 258.7 652.4 258.7"/>
  <path class="cls-1" d="M253.6,745.7c-6.4-23.4-17.2-45.7-32-65-4.7-6.1-12.9-17.5-21.8-11.4-7.4,5.1-3.5,15.7-.5,22.1,8.8,19.1,24.4,34.2,39.1,48.8,3.1,3.1,6.2,6.1,9.3,9.1,2.8,10.9,4.7,22,5.5,33.2.5-1,.9-2,1.3-3,.4-1.1.8-2.3,1.1-3.5,1.3,0,2.5-.1,3.8-.2-.6-6.1-1.6-12.1-2.8-18.1,6.1,5.8,12.3,11.5,18.6,17.2,1.8,0,3.6-.2,5.4-.3,1.5.9,2.9,1.8,4.4,2.7,2.5,1.4,5.1,3,7.9,4.4-13-11.4-25.8-23.1-38.2-35.1-.3-.3-.6-.6-.9-.9ZM214.2,703.6c-2.4-3.4-4.7-6.9-6.6-10.6-2.1-3.9-4.5-8.1-5.2-12.6-.5-3.5.5-7.6,4.8-5.4,3.8,2,6.7,6.5,9.2,9.9,11.2,14.7,20.1,31.2,26.3,48.6.3.9.6,1.8.9,2.6-10.6-10.2-21-20.8-29.5-32.6Z"/>
  <path class="cls-1" d="M380.5,564.6c14.3-14.3,27.1-30.1,38.2-47.2,2.4-3.6-3.5-7-5.8-3.4-9.7,14.9-20.7,28.8-33,41.6,0,0,.1-.1.2-.2.1,3,.2,6,.4,9.1Z"/>
  <path class="cls-1" d="M186.7,511.8c31.7,20.4,60,46.3,82.8,76.3.2.3.4.5.6.8,5.2,6.8,10,13.8,14.6,21,1.1-.5,2.2-1,3.3-1.5.9-.4,1.9-.9,2.8-1.3-14-22-30.7-42.4-49.5-60.5-27.8-26.7-60.2-48.7-95.4-64.5-8.5-3.8-17.1-7.2-25.8-10.2-1.3,1.3-2.6,2.7-3.9,4.1-.4.4-.8.9-1.2,1.3,3.4,1.1,6.8,2.4,10.1,3.6,21.5,8.1,42.2,18.5,61.6,31Z"/>
  <polygon class="cls-3" points="352.2 1080 352.2 1080 352.2 1080 352.2 1080 352.2 1080"/>
</svg>