<?xml version="1.0" encoding="UTF-8"?>
<svg id="Capa_1" data-name="Capa 1" xmlns="http://www.w3.org/2000/svg" viewBox="0 0 1080 1080">
  <defs>
    <style>
      .cls-1 {
        fill: #8b9f80;
      }

      .cls-2 {
        fill: #fcfcfb;
      }
    </style>
  </defs>
  <path class="cls-2" d="M157.1,528.4c6.1-2.3,13.3-2.5,18.9,1.3,4.5,3,7.3,7.8,9.2,12.8,2.3,6.1,3.1,12.6,3.9,19,1.1,8.2,1.8,16.4,2.2,24.6.3,6.8.4,13.6.2,20.4,7.2-7.7,15-14.7,23.5-21,5.5-4.1,11.6-8.7,18.8-9.3,6-.5,11.2,2.6,14.5,7.5,2.9,4.3,4.3,9.5,5.3,14.7,0,0,0,0,0,0,8.7-2.7,23.2-7.6,21.7-19.4-1.3-9.6-14.6-13.8-22-17.4-8.4-4.1-16.5-8.7-23-15.5-6.4-6.7-11.5-14.8-18.8-20.7-12.4-9.9-29-12.3-41.3-22.2-6.8-5.5-10.6-13-13.4-21.1-3.1-8.9-6.3-17.3-11.3-25.4-4.5-7.3-9.7-14.2-14.7-21.2-2.2-2-4.4-3.9-6.7-5.9-6.6-5.6-14.2-11.2-23.1-11.6-16.8-.8-26,17.4-24.3,32.1,1.1,9.5,5.2,18.2,9.6,26.5,5,9.5,10.2,19,15.3,28.5,8.4,15.6,16.7,31.1,25.1,46.7,8-9.8,18.6-19,30.5-23.5Z"/>
  <path class="cls-2" d="M426.1,478.7c1.6-1.4,3.2-2.9,4.7-4.4,0,0,0,0,0,0,.7-.7,1.5-1.4,2.2-2.2,0,0,0,0,.1-.1.7-.7,1.4-1.4,2.1-2.2,0,0,0,0,0-.1.7-.7,1.4-1.5,2.1-2.3,0,0,0,0,0,0,.7-.8,1.4-1.6,2.1-2.4,0,0,0,0,0,0,.7-.8,1.4-1.6,2.1-2.4,0,0,0,0,0,0,.7-.8,1.4-1.7,2-2.5,0,0,0,0,0,0-10.2,0-18.7,8.3-17.7,18.7Z"/>
  <path class="cls-2" d="M417.9,485.8c.2-.2.5-.4.7-.6,1.1-.9,2.1-1.8,3.1-2.6-.3-.3-.6-.8-.7-1.4-2.2-14.6,9.4-28,24.5-26.5.7,0,1.3.4,1.7.8.3-.5.6-.9.9-1.4,1.1-1.7,2.3-3.5,3.3-5.4-10.9-3.1-23.2,0-30.9,8.4-7.6,8.2-9.8,20.9-5.8,31.3,1-.8,2.1-1.7,3.1-2.5Z"/>
  <path class="cls-2" d="M151.7,776c26.8,4.8,53.7,9.5,80.5,14.3,42.5,7.6,85.1,15.1,127.6,22.7,3.8-29.2,7.6-58.4,11.4-87.6,0,0,0,0,0,0-3.1-4.1-6-8.2-8.9-12.5-8.1-11.9-17.7-25-18.5-39.9-.7-12.8,6.1-24.4,18.7-28.3,3.2-1,6.5-1.5,9.8-1.7-4.7-4.8-9.2-9.7-13.6-14.8-.1.2-.3.3-.5.5-4.7,3.6-9.2,7.5-13.3,11.7-1.3,1.4-2.6,2.8-3.8,4.2.2,4.7,0,9.4-.5,13.9-.8,7.3-2.2,15.1-5.5,21.8-2.5,5.1-8.5,9.6-14.3,6.6-5.5-2.8-5.3-9.6-3.5-14.6,2.2-6.3,5.9-12.4,9.6-18,2.6-4,5.5-7.8,8.5-11.4-.4-4.7-1.1-9.3-2.3-13.8-2.9-10.8-9-21.2-20.5-24.3-23.9-6.4-43.2,15.6-56.8,32.3-.9,10.4-2.9,20.7-6,30.6-2.2,6.9-4.9,13.7-8.2,20.3-1.4,2.8-3.3,5.8-6.8,5.9-2.8.1-5.3-1.7-6.6-4.1-1.6-3-1.1-6.6-.7-9.9.5-3.5,1.3-7,2.4-10.4,2.2-6.7,5.4-13.1,9.2-19.1,3.4-5.4,7.3-10.7,11.4-15.7.8-12.1,0-24.4-2.5-36.3-1-4.9-2.4-10.3-6-14-4.7-4.7-11.1-2.8-16.2.1-10.1,5.8-19.3,14.1-27.4,22.4-2.5,2.6-5,5.2-7.3,7.9-.4,6.7-1.1,13.4-2,20.1-1.1,7.7-2.5,15.4-4.4,22.9-1.6,6.1-4.3,12.5-10.5,15.2-5.7,2.5-12.1.6-14.7-5.2-3-6.5,0-13.4,3-19.3,6.3-12.9,14.3-24.9,23.5-35.8.2-3.4.3-6.8.3-10.3.2-14.2-.7-28.4-2.6-42.5-1.2-8.9-2.6-21.6-11.4-26.5-5.5-3-11.9-1.1-17.1,1.6-5.2,2.7-10,6.2-14.4,10-4.1,3.6-7.9,7.6-11.2,11.9.1.2.2.4.3.6-11.4,20.3-18.5,43.3-24.9,65.5-11.8,41-22.4,82.5-28.5,124.7-2,13.7-3.5,27.4-4.4,41.2,25.9-4.5,51.9-8.9,77.8-13.4.7-.1,1.4,0,1.9.3Z"/>
  <path class="cls-2" d="M260.7,536c-10.7-7.2-23.9-7.6-36.2-4.9.7.8,1.3,1.6,2,2.4.9,1.1,1.7,2.1,2.6,3.2,0,0,0,0,0,0,1.6-1.4,3.9-2.1,6.1-2.2,4.5-.3,9.1,1.4,12.7,4,5.7,4,14.4,12.1,11.4,20,.5.2,1,.5,1.5.7.1,0,.2.1.3.2.4.2.8.4,1.2.6.2,0,.3.2.5.2.4.2.7.4,1.1.5.2,0,.4.2.5.3.3.2.7.4,1,.5.2.1.4.2.6.3.3.2.6.4,1,.5.2.1.4.2.6.3.3.2.6.4.9.6.2.1.4.2.6.3.3.2.7.4,1,.6.2.1.3.2.5.3.5.3,1,.7,1.4,1,3.6-11.1-1.7-22.9-11.3-29.4Z"/>
  <path class="cls-2" d="M246.8,544.2c-2.2-1.9-4.8-3.4-7.6-4.1-1.4-.4-5.4-1-6.5.6,0,0,0,0,0,0,.5.6,1,1.1,1.6,1.7.1.1.2.2.3.3.6.6,1.1,1.1,1.7,1.7,3.6,3.4,7.7,6.1,12,8.5.5.3,1,.5,1.5.8.1,0,.2.1.4.2.4.2.8.4,1.2.6.1,0,.2.1.3.2.4.2.8.4,1.2.6,0,0,.1,0,.2,0,.5.2.9.4,1.4.7.8-4.5-4.6-9.2-7.7-11.8Z"/>
  <path class="cls-2" d="M167.5,650.2c-2.3,4.6-6.6,12.2-2.4,17,4.2,4.8,10.4-.9,12.3-4.9,2.7-5.6,3.6-12.4,4.7-18.5,1.3-7.1,2.3-14.3,3-21.6-3.1,4-6,8.1-8.7,12.3-3.2,5-6.2,10.3-8.9,15.6Z"/>
  <path class="cls-2" d="M323.6,682.3c6.2,2.2,8.7-9.5,9.6-13.2,1.5-5.8,2.3-11.8,2.5-17.8-4.2,5.6-8,11.7-11.1,18-1.3,2.7-5.8,11.3-1,13Z"/>
  <path class="cls-2" d="M334.3,602.6c-10.7-14.5-15.9-36.1-4.1-51.7,1.6-2.1,3.3-3.8,5.1-5.3-18.4,12.4-36.7,24.9-55,37.3-.3,1.8-.9,3.7-1.9,5.5-4.7,8.8-14.5,12.2-23.5,15-.2,0-.4,0-.6.1,1.1,6.7,1.7,13.4,1.7,20.2,0,1.4,0,2.8,0,4.2,3.2-3.6,6.5-7.1,9.8-10.4,9.8-9.8,21.7-18,35.9-19.1,13.3-1,25.1,5.2,31.6,16.9,3.7,6.7,5.9,14.2,6.9,22,4.5-4.7,9.5-9.1,14.7-13.1-7.4-6.7-14.8-13.6-20.7-21.7Z"/>
  <path class="cls-2" d="M233,679.6c-.3,2.1-1.5,7,.7,8.5,2.1,1.4,4.2-4.8,4.9-6.2,1.3-2.8,2.5-5.6,3.6-8.5,3.4-9.1,5.9-18.6,7.3-28.3-5.8,7.7-10.9,16-14,25-1,3.1-1.9,6.2-2.4,9.4Z"/>
  <path class="cls-2" d="M375.6,543.8c-2-8.2-2.5-16.8,0-24.4-12.3,7.9-24.6,15.9-36.7,24.1,10.8-6.1,24.7-4.1,36.8.4Z"/>
  <path class="cls-2" d="M407.6,316.3c-.6-25.6,5.6-51.3,18.3-73.5,0,0-.1,0-.2,0-.2.4-.5.8-.7,1.3-6.5-6.7-15-11.5-24.2-13.5-12.2-2.6-25,0-35.3,7-10.6,7.1-17.9,18.2-19.9,30.9-2,12.6,1,25.7,8.9,35.9,3.5,4.5,7.7,8.2,12.5,11.2,12.9,5,27.4,5.4,40.6.9ZM384.2,290.7c-9.3-3.6-14.8-13.9-11.1-23.6,3.9-10.2,15.4-14.4,25.2-10,3.2,1.4.4,6.1-2.7,4.7-6.9-3.1-15,.4-17.5,7.5-2.2,6.5,1.2,13.7,7.6,16.2,3.2,1.2,1.8,6.5-1.4,5.2Z"/>
  <path class="cls-2" d="M165.4,489c4,7.7,10.8,12.6,18.4,16.3,7.5,3.7,15.4,6.4,22.7,10.4,5.4,2.9,9.8,6.6,13.9,10.8.2-.1.4-.2.7-.3,14.6-3.5,31.1-3.2,43.6,6,11,8.2,17.2,22.8,11.8,36-.1.3-.3.6-.5.8,2,2.3,3.3,4.9,4,7.6,33.1-22.4,65.9-45.2,99.7-66.4.3-.2.5-.3.8-.3.6-.7,1.2-1.4,1.8-2.1,5.3-5.4,11.7-7.9,18.6-8.6.1-.2.3-.3.5-.5,3-2.3,5.9-4.6,8.9-6.9-5.3-12.6-3.3-27.6,5.8-38,9-10.3,24.1-14.2,37.1-10.3.2-1,.2-2,.2-3-.4-4.1-3.9-6.2-7.5-7.1-4.4-1.1-9-.8-13.5-.9-5.6,0-11.1-.1-16.7-.1-22.2-.1-44.5,0-66.7.4-28.7.5-57.3,1.3-86,2.6,0,0,0,0,0,0,1,10.4-2.1,20.9-8.4,29.2-11.6,15.4-32.6,20.3-50.1,12.5-15.6-6.9-24.8-23.7-24-40.4-3.1-.2-6.3-.3-9.4-.5-10.9-.6-22-.9-32.9.3,5.9,8.2,11.9,16.5,16.5,25.6,4.3,8.6,6.2,18.2,10.6,26.7ZM368.5,449.1c2.3,6.1,4.2,12.4,5.6,18.8,3.5-6.2,8.3-11.5,14.2-15.7,2.8-2,5.5,2.7,2.7,4.7-7.1,5.1-12.5,12.3-15.5,20.5-.8,2.2-4.8,2.9-5.2,0-1.4-9.2-3.8-18.1-7-26.8-1.2-3.3,4-4.7,5.2-1.4ZM295.6,459.8l5.7-2.3c8.4-2.3,17.3-2.8,26-1.5,8.9,1.3,18.7,4.4,24.8,11.4,10.6,12.1,7.4,30-2.7,41.2-11.1,12.4-29.5,18.6-45.8,15.1-15.4-3.3-28-16.1-29.1-32-1-14,8.1-27.1,21.1-31.8ZM225.2,497c6.9,2.3,13.7,5,20.4,7.9-1.7-5.5-2.7-11.2-2.9-17.1-.1-3.5,5.3-3.5,5.4,0,.2,7.2,1.7,14.2,4.5,20.8,1.1,2.5-1.1,4.9-3.7,3.7-8.2-3.8-16.6-7.2-25.1-10.1-3.3-1.1-1.9-6.3,1.4-5.2Z"/>
  <path class="cls-2" d="M992,674.7c-4.7-10.4-9.5-20.7-14.5-30.9-3.3,2-6.6,3.9-9.8,5.9-58,34.9-115.1,71.3-171.3,109,13.8,13.3,27.5,26.8,41.1,40.3,34.8,34.7,69,70,102.5,106,2.5,2.5,5.1,4.9,7.6,7.4.2.2.4.5.5.7.7.6,1.3,1.2,2,1.9,43.3,7.6,86.5,15,129.9,22.2h0c-10.7-42.2-22.4-84.2-35.8-125.6-15-46.5-32.1-92.3-52.2-136.9Z"/>
  <path class="cls-2" d="M647.3,280.5c-10.2-12.9-12.7-29.5-9.1-45.1-14.5,9.7-30.7,16.6-47.5,21.1-37.5,10-77.8,8.5-115.8,2.7-15-2.3-30.6-6.5-44.3-13.7-15.5,27.3-20.9,59.9-15.7,90.9,4.6,27.3,17.5,52.5,37.2,72,18.6,18.4,42.3,31.5,67.8,37.3,52.9,11.8,110.4-11.8,140.8-56.5.9-1.3,2.3-1.4,3.4-1,.6,0,1.2.3,1.7.9,6.8,8.4,17,12.8,27.5,14.2,18.8,2.5,38.8-3.8,52.6-17,6.9-6.6,12.1-14.9,15.3-23.9.3-9.7-1.6-19.5-5.6-28.4-8.2-18.3-25.9-30.8-45.6-33.9-3.7-.6-7.4-.9-11-.8-8.5,3.1-16.4,7.9-23,14.1-2.5,2.4-6.4-1.4-3.8-3.8,5.2-4.9,11.1-8.9,17.4-12.1,0,0,0,0,0,0-15.9,2.8-32.2-4.3-42.3-17ZM466.2,296.6c.5-2.9,1.5-5.7,2.8-8.4.6-1.9,1.6-3.6,3.6-4.1,3.1-.8,5,2,5.4,4.6.6,3.7-.2,7.7-1.2,11.2-.8,2.8-1.6,7.2-4.3,8.9-2.4,1.5-5.3.1-6.3-2.4-1.1-3-.4-6.8.1-9.8ZM492,353.5c-11-7.4-22.5-14.2-34.2-20.4-2-1.1-1.6-4.4.6-4.9,18.5-4.1,36.9-8.3,55.4-12.4,3.4-.8,4.8,4.4,1.4,5.2-16.2,3.6-32.3,7.2-48.5,10.9,9.6,5.2,18.9,10.9,27.9,17,2.9,1.9.2,6.6-2.7,4.7ZM531.5,352.4c-12.7,11.2-18.7,29-15.1,45.6.7,3.4-4.5,4.8-5.2,1.4-1.2-5.3-1.5-10.8-1-16.1-.1,0-.3,0-.4-.1-4.3-1.7-8.6-3.3-12.9-5-2.8-1.1-2.1-5.3.4-5.4.4-.3.9-.5,1.5-.5,4.6-.2,9.2-.5,13.8-.7,0,0,.1,0,.2,0,2.9-8.8,8-16.8,15-23,2.6-2.3,6.4,1.5,3.8,3.8ZM575,316.5c-1,3.7-6.8,19-12.6,12.3-2.2-2.5-1.2-6.8-.7-9.8.7-4.4,2.1-8.6,4.1-12.6.2-.5.6-.9.9-1.1.6-1.1,1.3-2,2.1-2.6,2.7-2.1,6.2-.7,7.1,2.5,1,3.5,0,8-.9,11.4ZM693.1,374.4c11.2,1.4,21.8-6.4,22.5-17.9.7-11.4-8.5-20.9-19.9-20.8-3.5,0-3.5-5.4,0-5.4,14.2,0,26.1,11.9,25.3,26.2-.9,14.2-13.7,25.1-27.9,23.3-3.4-.4-3.4-5.8,0-5.4Z"/>
  <path class="cls-2" d="M437.8,427.3c7.5.1,17,1.3,20.2,9.3,3.7,9.2-4.2,19.3-9.5,26.1-10.9,14.2-24.8,25.6-38.9,36.5,5.4.5,10.8,1.8,15.9,3.6-1.1-6-.8-12.1,2.7-17.2,5.1-7.5,14.9-9.2,23.4-8.3,21.7,2.2,41.5,15.1,58.3,28,18.9,14.5,37,30,55.2,45.3,18.8,15.8,37.5,31.7,56.1,47.8,37.3,32.3,74,65.2,110.1,98.7,20.6,19.1,41,38.4,61.2,57.9,0,0,.2-.1.3-.2,15.9-10.7,32-21.3,48-31.8,44.3-28.8,89.1-56.8,134.4-84-9.6-19.5-19.8-38.6-30.7-57.4-1.1-1.8-2.1-3.7-3.2-5.5-4.7-7.9-9.5-15.8-14.4-23.6-23.3-36.9-49.4-72.1-78.4-104.8-12.5-14.1-25.6-27.8-39.3-40.8-1.7-1.6-3.3-3.2-5-4.7-12.7-11.9-25.8-23.2-39.3-34.1,0,0,0,0,0,0-8.2,19.5-25.3,33.7-45.8,38.9-18.5,4.7-42.1,2.5-55.6-12.4-1.4,2-2.9,3.9-4.4,5.8-17.4,21.9-41.6,38.2-68.2,46.8-26.5,8.6-55.1,9.2-81.8,1.2-26.2-7.8-50.1-23.2-68-43.9-18.9-21.8-30.2-49.1-32.9-77.8-.1-1.6-.3-3.2-.4-4.8-13.1,4.1-27.3,3.9-40.2-.5-41,23-78.8,51.8-111.8,85.4-7.8,8-15.4,16.3-22.7,24.8,20.7-1.1,41.4-2,62.1-2.7,47.5-1.6,95-2.3,142.5-1.5Z"/>
  <path class="cls-2" d="M308.6,507.7c1.8,0,1.5-1.1,1-2.6-.5-1.3-1.2-2.6-1.9-3.9-1.4-2.7-2.9-5.3-4.5-7.8-1.2-1.9-8.4-13.5-11.2-8.1,0,.1-.2.3-.2.4-1,5.3.4,10.8,3.9,14.9,2.9,3.4,8.2,7.2,12.9,7.1Z"/>
  <path class="cls-2" d="M311.8,519.2c14,.4,29.2-6.6,36.9-18.5,7.2-11.1,6.3-26.8-5.8-34.1-11.9-7.2-27.6-7.4-40.8-3.7l-5.2,2.2s0,0,0,0c-12.9,5-20,19.4-15.6,33,4.2,12.9,17.4,20.7,30.5,21.1ZM315.9,471.2c.5-2.9,2.6-5.5,5.4-6.4.6-.6,1.4-.9,2.4-.6,8.7,1.9,15.6,8.7,17.7,17.4,1.4,5.6,1.9,18.5-5.9,19.9-4.3.8-7-3.3-9.1-6.3-2.8-3.8-5.2-7.9-7.3-12.2-1.8-3.6-3.9-7.7-3.2-11.8ZM287,482.6c.3-1,.9-1.5,1.7-1.8,2.1-2,5.3-2.7,8.2-1.7,4,1.4,6.5,5.2,8.9,8.4,2.7,3.9,5.2,7.9,7.3,12.2,1.6,3.3,3.9,7.6,1.2,11-4.9,6.2-16-.4-20.3-4.3-6.6-6-9.4-15.3-6.9-23.9Z"/>
  <path class="cls-2" d="M330.2,491.2c.8,1.2,1.6,2.4,2.6,3.5,1,1.2,1.8,2,2.7.4,2.3-4.1,1.5-10.5-.1-14.7-2-5.1-6.2-8.9-11.3-10.5-.1,0-.3,0-.4,0-6-.1.8,11.7,1.8,13.7,1.4,2.6,3,5.2,4.7,7.7Z"/>
  <path class="cls-2" d="M191.6,459.1c8.9,14.3,27.1,19.9,42.9,14.3,15.3-5.4,24.7-21.8,23.2-37.7-9.7.4-19.5.9-29.2,1.5v-.2c-1.9.1-3.9.2-5.9.3-2.9.2-5.9.3-8.8.3-9.3.2-18.6,0-27.9-.5-.4,7.7,1.6,15.4,5.7,21.9ZM200.4,451.5c1.2-4.2,6-4.8,9.7-5.4,4.7-.8,9.4-1.1,14.2-1.1,4,0,8.6,0,12,2.4,2.4,1.8,3.8,4.8,3.3,7.7.2.7.2,1.6-.5,2.4-5.5,7-14.8,10.1-23.5,8.1-5.6-1.3-17.4-6.5-15.2-14.1Z"/>
  <path class="cls-2" d="M219.3,460.8c5.4.5,10.7-1.5,14.5-5.4,0-.1.1-.3.2-.4,2.8-5.3-10.8-4.5-13.1-4.5-3,.1-6,.4-9,.8-1.4.2-2.9.4-4.3.8-1.5.4-2.6.8-1.5,2.3,2.6,3.9,8.8,6,13.2,6.4Z"/>
  <path class="cls-2" d="M513.9,712.4c-1.1,2.8-.4,5.5,1,7.8,2.7-2.5,5.8-4.3,9.2-5.5-.5-3.7-1-7.3-1.6-11-3.5,2.1-7.2,4.8-8.7,8.6Z"/>
  <path class="cls-2" d="M936.5,909c0,0-.2-.2-.3-.3l-1.4-1.4c-.2-.2-.4-.5-.5-.7-6.7-7.1-13.3-14.3-20.1-21.3-30.7-32.5-62.1-64.4-93.9-95.8-32-31.5-64.5-62.5-97.4-93-32.7-30.2-65.9-59.9-99.5-89.2-33.9-29.4-68.2-58.4-102.9-86.8-15.7-12.9-32.1-26-51.3-33.3-8.3-3.2-18.2-6.3-27.2-4.4-4.1.9-7.8,2.8-9.9,6.6-2.5,4.4-2,9.8-.9,14.5,0,.4.2.7.3,1.1,1.7.7,3.3,1.4,4.9,2.1,9.8,4.6,19.1,10.3,27.7,17,8.1,6.3,16.8,13.5,22.5,22,4,5.9,7.6,15.4,2.8,21.9-6.6,8.8-17.9,2.8-24.4-2.6-16.3-13.5-28.8-31.5-36.2-51.2-.6-1.7-1.2-3.4-1.8-5.2-14.7-5.6-34.9-8.6-44.1,6.9-5.4,9.2-4.5,20.2-1.2,30.5.6.3,1.3.6,1.9.9,10.2,5,19.8,11.4,29.1,18,9.6,6.8,18.9,14.2,27.6,22.2,6.3,5.8,12.5,15.7,4.7,23.1-7.3,7-17.8,4.1-25-1.4-8.5-6.4-15.8-14.9-22.3-23.3-6.7-8.6-12.7-18-17.2-28-1.1-2.4-2.1-5-3.1-7.7-5.3-2.3-10.8-4.2-16.5-5-9-1.4-18.5.3-24.9,7.1-5.6,6-7.5,14.5-7.1,22.5,1.1,19.7,17.1,34.1,30.8,46.5.1.1.2.2.3.3,0,0,.1.1.2.2,6.3,7.4,12.9,14.5,19.8,21.3,7.3.7,14.6,2.7,21.3,4.9,6.7,2.2,13.3,5.1,19.6,8.4,6.2,3.3,12.9,7.2,18.1,12.1,4.5,4.2,7.1,11.7,2,16.6-4.9,4.6-12,2.8-17.1-.2-12.6-7.4-24.4-16.9-35.4-26.6-3.6-3.2-7.2-6.5-10.6-9.8-9.6-.6-20.2,1.3-25.4,10-6.9,11.5-1.7,25.4,4.4,35.9,13.8,23.7,31.6,45.2,50.1,65.4,18.4,20.1,38.1,39,57.8,57.8l16.6,15.3c.2.2.4.4.5.6.1,0,.3.2.4.3.3.4.6.7.9,1.1,11.9,2.1,23.8,4.2,35.7,6.3.3,0,.6.1.8.3.1,0,.2,0,.4,0-.4-4.1-.8-8.3-1.2-12.4-3.6-37.2-7.3-74.3-10.9-111.5,0-.4,0-.8.1-1.1-.8-8.3,6.8-14.6,13.7-18.6-2.2-15.6-4.4-31.3-6.7-46.9,0-.2,0-.3,0-.5-.1-.4-.1-.9,0-1.5,1.4-5.3,7.2-7.5,12.1-8.4,5.2-.9,10.5.1,14.2,4,.7.7.9,1.6.7,2.3,0,.2.1.4.1.6l5.4,41c29-3.6,58.6-5.3,87.4.8,11.9,2.5,23.7,6.3,34.6,11.9,3.3,1.7,6.7,3.8,9.1,6.8,1.9,2.1,3.4,4.5,4.5,7.1.2.4.3.9.3,1.3,0,.3.1.6.1,1-1.8,21.1-3.6,42.2-5.4,63.4l-7,81.6c31.4,6.2,62.9,12.4,94.3,18.4,56.5,10.8,113.2,21.2,169.8,31.3,1.8.3,3.7.7,5.5,1-1.3-1.3-2.7-2.6-4-4-.1,0-.2-.2-.4-.3Z"/>
  <path class="cls-2" d="M462,822.4c-.3-.3-.7-.7-1-1-.4-.4-.9-.8-1.3-1.2-.1-.1-.2-.2-.3-.4-24-23-48-46.1-69.6-71.4-4.8-5.6-9.4-11.3-13.9-17.1-3.6,27.5-7.2,55-10.8,82.6l10.5,1.9c32.8,5.8,65.6,11.6,98.3,17.5-3.8-3.5-7.7-7.1-11.5-10.6-.1,0-.2-.2-.3-.3Z"/>
  <path class="cls-2" d="M520,725.5c1.9,1.4,4,2.7,6.2,3.8-.4-3-.9-6-1.3-9-2.4.9-4.5,2.3-6.4,4,.5.4,1,.8,1.5,1.2Z"/>
  <path class="cls-2" d="M612.9,705.3c-21-2-42.2,0-62.4,5.8l3.5,26.7c22.9,4.3,46.5,5.2,69.7,2.8,11.2-1.1,22.7-2.7,33.3-6.4,3.1-1.1,6.2-2.4,9.1-4,0,0-.2-.2-.3-.3-12.3-16.5-33.3-22.7-52.9-24.6Z"/>
  <path class="cls-2" d="M410.2,669.1c3.1,2.3,6.2,4.5,9.3,6.6,3,2,6.1,4.4,9.4,5.9,2.5,1.1,6.3,1.9,8.5-.4,2.3-2.5.3-6.1-1.6-8.1-4.4-4.5-10.5-7.9-15.9-10.9-10.2-5.7-21.4-10.1-32.8-12.3,1.7,1.6,3.5,3.2,5.3,4.8,5.8,5.1,11.7,10,17.9,14.6Z"/>
  <path class="cls-2" d="M670.5,727.2c.2-.1.3-.3.5-.4,3.4-3,6.8-7.5,5.2-12.3-.3-.9-.8-1.7-1.3-2.4-.5-.6-1.1-1.2-1.6-1.7-.1-.1-.2-.3-.3-.4-2-1.7-4.5-3-6.7-4.1-5-2.5-10.3-4.6-15.6-6.4-10.6-3.5-21.6-5.9-32.7-7.2-23.2-2.7-46.5-1-69.6,1.8l1.5,11.6c9.1-2.5,18.3-4.3,27.7-5.4,17.4-2,35.7-1.6,52.8,2.4,15.7,3.7,30.4,11.4,40.2,24.5,0,0,0,0,0,0Z"/>
  <path class="cls-2" d="M484.6,565.5c5.3-5-1.1-15.3-4.7-19.4-12.7-14.5-28.8-26.2-46.3-34.3,5.4,15.6,15.3,30.3,26.7,41.8,4.6,4.7,17.2,18.7,24.3,11.9Z"/>
  <path class="cls-2" d="M418,600.4c3.7,3.5,7.7,7.2,12.7,8.6,3.7,1,8.4.4,11-2.7,3.3-3.9.6-8.7-2.2-11.9-3.5-3.9-7.7-7.3-11.7-10.6-4.2-3.5-8.5-6.9-12.9-10.2-8.7-6.5-17.8-12.5-27.2-18-1-.6-2.1-1.2-3.1-1.7,1.6,3.7,3.4,7.2,5.2,10.4,5.1,9,11,17.5,17.8,25.3,3.3,3.8,6.8,7.4,10.4,10.9Z"/>
  <path class="cls-2" d="M549.7,759.8c41.9,13,87.9,8.1,126.1-13.3.5-6.1,1.1-12.2,1.6-18.3-6.6,7.7-17.6,11.5-27.1,13.8-12.4,3-25.3,4.4-38,5.1-13.2.7-26.5.4-39.6-1-12.4-1.3-24.9-3.2-36.8-7-7-2.3-15.7-5.5-21.5-10.9.5,5.6,1.1,11.2,1.6,16.8,10.7,6.2,21.9,11.3,33.7,15Z"/>
  <path class="cls-2" d="M576.8,864.5s0,0,0,0c-4.9-12.7-21.1-16-31-7.1.8,11.1,1.5,22.1,2.3,33.2,3,42.2,5.9,84.5,8.9,126.7,1.4.6,2.7,1.2,4.1,1.7,7.6,2.8,15.6,4.4,23.7,5.1-.7-11.5-1.3-23.1-1.9-34.6-2.2-41.6-4.3-83.2-6.1-124.8Z"/>
  <path class="cls-2" d="M607.3,846c-10.9,1.1-20.5,8.4-25.2,18.1.5,11.3,1,22.5,1.5,33.8,2,42.1,4.1,84.3,6.5,126.4,14.1.3,28.4-2.4,41.6-7.5.6-11.6,1.1-23.1,1.6-34.7,1.7-40.7,2.8-81.4,3.4-122.1-6.4-9.5-18-15.1-29.4-14Z"/>
  <path class="cls-2" d="M642.1,858.8c-.2,11.1-.3,22.1-.6,33.2-.9,40.8-2.3,81.6-4.3,122.4,5.7-2.6,11.2-5.6,16.3-9.1,1.8-21.1,3.6-42.1,5.4-63.2l8.8-102.1c-10.8,2.4-20.1,9.2-25.6,18.8Z"/>
  <path class="cls-2" d="M643.9,765.7c-42.5,12.5-88.8,7.2-127.4-14.3,1,9.8,1.9,19.7,2.9,29.5l5.4,55.6c0,0,.1,0,.2,0,8.5,1.6,15.6,7.4,19.2,15.1,5.8-4.2,13.1-5.9,20.2-4.2,6.2,1.4,11.4,5.4,14.9,10.6,6-9.7,16.5-16.3,28-17.4,11.9-1.2,23.7,4.2,31.4,13.1.1,0,.2,0,.3,0,6.6-10,17.2-17,29-19.1,0,0,.1,0,.2,0l.4-4.5c2.2-25.7,4.4-51.4,6.6-77.1-10,5.3-20.5,9.6-31.3,12.8Z"/>
  <path class="cls-2" d="M528.6,646c-2.4.4-6.2,1.2-7.8,3.4,5,2.3,10.6,1.3,14.6-2.4-2-1.1-4.4-1.4-6.9-1Z"/>
  <path class="cls-2" d="M540.3,856c-2.3-6.9-7.9-12-14.8-13.9,1.6,16.8,3.3,33.5,4.9,50.3,3.6,37.2,7.3,74.3,10.9,111.5,0,.3,0,.5,0,.7,2.7,3.9,6.2,7.1,10.1,9.6-.8-10.8-1.5-21.5-2.3-32.3-2.9-42-5.9-83.9-8.8-125.9Z"/>
  <path class="cls-2" d="M531.4,731.7c5.5,2.2,11.3,3.7,17,5l-11.1-84.3c-4.7,3.5-10.8,4.5-16.4,2.8,3.5,24.9,7.1,49.9,10.6,74.8,0,.6,0,1.1-.2,1.6Z"/>
  <path class="cls-1" d="M407.9,321.9c0,1.6.2,3.2.4,4.8,2.7,28.7,14,56,32.9,77.8,17.9,20.6,41.8,36,68,43.9,26.7,8,55.4,7.4,81.8-1.2,26.5-8.6,50.8-24.9,68.2-46.8,1.5-1.9,3-3.8,4.4-5.8,13.5,14.9,37.1,17.1,55.6,12.4,20.4-5.2,37.6-19.4,45.8-38.9,0,0,0,0,0,0-1.2-1-2.5-2-3.7-3,0-.9,0-1.7.1-2.6-3.2,9-8.4,17.3-15.3,23.9-13.8,13.1-33.7,19.5-52.6,17-10.5-1.4-20.8-5.8-27.5-14.2-.5-.6-1.1-.9-1.7-.9-1.1-.5-2.5-.3-3.4,1-30.4,44.6-87.9,68.3-140.8,56.5-25.5-5.7-49.3-18.8-67.8-37.3-19.7-19.5-32.6-44.7-37.2-72-5.2-30.9.2-63.6,15.7-90.9,13.7,7.2,29.3,11.4,44.3,13.7,38,5.8,78.4,7.3,115.8-2.7,16.8-4.5,33-11.4,47.5-21.1-3.6,15.5-1,32.2,9.1,45.1,10.1,12.8,26.4,19.9,42.3,17,0-1.8,0-3.7-.1-5.5-.8-21.6-4.1-43.2-12.3-63.3-5.2-12.8-12.2-24.9-21.3-35.4-8.4-9.7-18.5-17.8-29.4-24.5-22.1-13.6-47.2-21.5-72.3-27.5-30.4-7.3-62.1-13.4-93.5-12.1-7.6.3-15.5,1.5-21.9,5.9-5.5,3.8-9.6,9.4-10.1,16.2-.8,10.8,5.7,18.6,13.8,24.6-13.2,2-25.3,9.2-29.7,22.8-2.8,8.7-.5,18,4.4,25.5,3.3,5.1,7.6,9.3,12.4,13-.3.4-.6.8-.9,1.2-1,1.4-2,2.9-2.9,4.4,0,0,.1,0,.2,0-12.6,22.3-18.8,48-18.3,73.5-13.3,4.5-27.7,4.1-40.6-.9,1.9,1.2,3.9,2.2,5.9,3.1-1.8,1-3.5,1.9-5.3,2.9,12.9,4.4,27.2,4.6,40.2.5Z"/>
  <path class="cls-1" d="M676,313.4c6.7-6.2,14.6-11,23-14.1-3.1,0-6.3.3-9.4.8,0-.9,0-1.7,0-2.6-6.3,3.2-12.2,7.2-17.4,12.1-2.5,2.4,1.3,6.2,3.8,3.8Z"/>
  <polygon class="cls-1" points="689.7 297.5 689.6 297.5 689.6 297.5 689.7 297.5"/>
  <path class="cls-1" d="M693.1,379.8c14.2,1.8,27.1-9.1,27.9-23.3.9-14.3-11.1-26.3-25.3-26.2-3.5,0-3.5,5.4,0,5.4,11.4,0,20.5,9.4,19.9,20.8-.7,11.5-11.4,19.3-22.5,17.9-3.4-.4-3.4,5,0,5.4Z"/>
  <path class="cls-1" d="M385.7,285.5c-6.4-2.5-9.8-9.7-7.6-16.2,2.5-7.1,10.6-10.6,17.5-7.5,3.1,1.4,5.9-3.2,2.7-4.7-9.8-4.4-21.3-.2-25.2,10-3.7,9.7,1.7,20,11.1,23.6,3.2,1.3,4.6-4,1.4-5.2Z"/>
  <path class="cls-1" d="M472.4,308.8c2.7-1.7,3.5-6.1,4.3-8.9,1-3.5,1.8-7.5,1.2-11.2-.4-2.7-2.3-5.4-5.4-4.6-2,.5-3,2.2-3.6,4.1-1.3,2.7-2.2,5.5-2.8,8.4-.5,3-1.2,6.9-.1,9.8,1,2.5,3.8,3.9,6.3,2.4Z"/>
  <path class="cls-1" d="M568.8,302.7c-.8.6-1.5,1.6-2.1,2.6-.4.2-.7.6-.9,1.1-2,4-3.4,8.2-4.1,12.6-.5,3-1.4,7.3.7,9.8,5.8,6.7,11.6-8.6,12.6-12.3.9-3.4,1.8-7.9.9-11.4-.9-3.2-4.4-4.5-7.1-2.5Z"/>
  <path class="cls-1" d="M494.8,348.9c-9.1-6.1-18.4-11.7-27.9-17,16.2-3.6,32.3-7.2,48.5-10.9,3.4-.8,2-6-1.4-5.2-18.5,4.1-36.9,8.3-55.4,12.4-2.2.5-2.7,3.9-.6,4.9,11.8,6.2,23.2,13,34.2,20.4,2.9,1.9,5.6-2.7,2.7-4.7Z"/>
  <path class="cls-1" d="M527.6,348.6c-7.1,6.2-12.2,14.3-15,23,0,0-.1,0-.2,0-4.6.2-9.2.5-13.8.7-.6,0-1.1.2-1.5.5-2.4.1-3.2,4.3-.4,5.4,4.3,1.7,8.6,3.3,12.9,5,.1,0,.3,0,.4.1-.5,5.4-.2,10.8,1,16.1.7,3.4,6,2,5.2-1.4-3.6-16.6,2.4-34.4,15.1-45.6,2.6-2.3-1.2-6.1-3.8-3.8Z"/>
  <path class="cls-1" d="M303.7,523.6c16.3,3.5,34.7-2.7,45.8-15.1,10.1-11.2,13.3-29.1,2.7-41.2-6.1-7-15.9-10.1-24.8-11.4-8.7-1.3-17.5-.7-26,1.5l-5.7,2.3c-13,4.7-22.1,17.8-21.1,31.8,1.2,16,13.8,28.7,29.1,32ZM296.9,465.1s0,0,0,0l5.2-2.2c13.2-3.7,29-3.4,40.8,3.7,12,7.3,12.9,23,5.8,34.1-7.7,11.9-22.9,18.9-36.9,18.5-13.1-.4-26.3-8.2-30.5-21.1-4.4-13.6,2.7-28,15.6-33Z"/>
  <path class="cls-1" d="M223.8,502.2c8.6,2.9,16.9,6.3,25.1,10.1,2.6,1.2,4.8-1.2,3.7-3.7-2.8-6.6-4.3-13.6-4.5-20.8-.1-3.5-5.5-3.5-5.4,0,.2,5.9,1.1,11.6,2.9,17.1-6.7-2.9-13.5-5.6-20.4-7.9-3.3-1.1-4.7,4.1-1.4,5.2Z"/>
  <path class="cls-1" d="M370.3,477.3c.4,2.9,4.4,2.2,5.2,0,3-8.2,8.4-15.4,15.5-20.5,2.8-2,.1-6.7-2.7-4.7-5.9,4.2-10.7,9.5-14.2,15.7-1.4-6.4-3.2-12.7-5.6-18.8-1.2-3.2-6.4-1.8-5.2,1.4,3.3,8.7,5.6,17.6,7,26.8Z"/>
  <path class="cls-1" d="M948.2,913.1c-.1-.3-.3-.5-.5-.7-2.5-2.5-5.1-4.9-7.6-7.4-33.5-36-67.7-71.3-102.5-106-13.6-13.5-27.3-27-41.1-40.3,56.2-37.7,113.3-74,171.3-109,3.3-2,6.6-3.9,9.8-5.9-.8-1.6-1.6-3.2-2.4-4.9-45.3,27.1-90.1,55.1-134.4,84-16.1,10.5-32.1,21.1-48,31.8,0,0-.2.1-.3.2-20.2-19.5-40.6-38.8-61.2-57.9-36.1-33.5-72.9-66.4-110.1-98.7-18.6-16.1-37.2-32-56.1-47.8-18.2-15.3-36.3-30.8-55.2-45.3-16.8-12.9-36.7-25.9-58.3-28-8.5-.9-18.2.8-23.4,8.3-3.5,5.1-3.8,11.3-2.7,17.2-5.1-1.7-10.5-3.1-15.9-3.6,14.1-10.9,27.9-22.3,38.9-36.5,5.3-6.9,13.2-16.9,9.5-26.1-3.2-8-12.6-9.2-20.2-9.3-47.5-.8-95.1,0-142.5,1.5-20.7.7-41.4,1.6-62.1,2.7-1.5,1.8-3.1,3.6-4.6,5.5v.2c9.7-.5,19.4-1,29.1-1.5,1.4,15.9-7.9,32.3-23.2,37.7-15.7,5.6-33.9,0-42.9-14.3-4.1-6.5-6.1-14.2-5.7-21.9-1.8,0-3.6-.2-5.3-.2-.8,16.7,8.3,33.4,24,40.4,17.5,7.8,38.5,2.8,50.1-12.5,6.3-8.3,9.4-18.9,8.4-29.2,0,0,0,0,0,0,28.6-1.3,57.3-2.1,86-2.6,22.2-.4,44.5-.5,66.7-.4,5.6,0,11.1,0,16.7.1,4.5,0,9.1-.2,13.5.9,3.7.9,7.2,3,7.5,7.1,0,1,0,2-.2,3-13-3.9-28.1,0-37.1,10.3-9.1,10.4-11.1,25.4-5.8,38-3,2.3-5.9,4.6-8.9,6.9-.2.1-.4.3-.5.5-6.8.7-13.3,3.3-18.6,8.6-.7.7-1.3,1.4-1.8,2.1-.3,0-.5.2-.8.3-33.8,21.2-66.6,44.1-99.7,66.4-.7-2.7-2-5.3-4-7.6.2-.2.3-.5.5-.8,5.4-13.3-.8-27.9-11.8-36-12.5-9.3-29-9.5-43.6-6-.3,0-.5.2-.7.3-4.1-4.2-8.6-7.9-13.9-10.8-7.3-4-15.2-6.7-22.7-10.4-7.6-3.8-14.4-8.7-18.4-16.3-4.5-8.5-6.3-18.1-10.6-26.7-4.6-9.1-10.5-17.3-16.5-25.6-1.8.2-3.6.4-5.3.7-.7-.7-1.5-1.3-2.2-2,5,7,10.2,13.9,14.7,21.2,5,8.1,8.2,16.5,11.3,25.4,2.8,8.1,6.6,15.6,13.4,21.1,12.3,10,29,12.3,41.3,22.2,7.3,5.9,12.3,13.9,18.8,20.7,6.5,6.8,14.6,11.4,23,15.5,7.4,3.6,20.7,7.8,22,17.4,1.6,11.8-13,16.8-21.7,19.4,0,0,0,0,0,0-1-5.1-2.4-10.3-5.3-14.7-3.3-4.9-8.5-8-14.5-7.5-7.1.6-13.2,5.2-18.8,9.3-8.4,6.3-16.3,13.3-23.5,21,.2-6.8.1-13.6-.2-20.4-.4-8.2-1.1-16.5-2.2-24.6-.8-6.4-1.6-12.9-3.9-19-1.9-5-4.7-9.7-9.2-12.8-5.6-3.8-12.7-3.6-18.9-1.3-11.9,4.4-22.5,13.7-30.5,23.5.9,1.7,1.9,3.5,2.8,5.2,3.4-4.3,7.1-8.3,11.2-11.9,4.4-3.8,9.2-7.3,14.4-10,5.2-2.7,11.6-4.6,17.1-1.6,8.8,4.8,10.2,17.6,11.4,26.5,1.9,14.1,2.8,28.3,2.6,42.5,0,3.4-.2,6.8-.3,10.3-9.3,10.9-17.2,22.9-23.5,35.8-2.9,6-6,12.8-3,19.3,2.7,5.8,9.1,7.6,14.7,5.2,6.2-2.7,8.9-9,10.5-15.2,2-7.5,3.4-15.2,4.4-22.9.9-6.7,1.6-13.4,2-20.1,2.4-2.7,4.8-5.4,7.3-7.9,8.1-8.3,17.3-16.6,27.4-22.4,5.1-3,11.5-4.8,16.2-.1,3.6,3.6,5,9.1,6,14,2.5,11.9,3.3,24.2,2.5,36.3-4.1,5.1-7.9,10.3-11.4,15.7-3.8,6-7,12.3-9.2,19.1-1.1,3.4-1.9,6.8-2.4,10.4-.5,3.2-1,6.9.7,9.9,1.3,2.4,3.8,4.2,6.6,4.1,3.5-.1,5.4-3.1,6.8-5.9,3.3-6.5,6-13.3,8.2-20.3,3.1-9.9,5.1-20.2,6-30.6,13.7-16.7,33-38.7,56.8-32.3,11.5,3.1,17.6,13.5,20.5,24.3,1.2,4.5,2,9.1,2.3,13.8-3.1,3.6-5.9,7.4-8.5,11.4-3.7,5.6-7.3,11.7-9.6,18-1.8,5-2,11.8,3.5,14.6,5.8,2.9,11.8-1.6,14.3-6.6,3.3-6.6,4.6-14.5,5.5-21.8.5-4.5.7-9.2.5-13.9,1.2-1.4,2.5-2.8,3.8-4.2,4.1-4.3,8.6-8.2,13.3-11.7.2-.2.4-.3.5-.5,4.4,5,8.9,10,13.6,14.8-3.3.2-6.6.7-9.8,1.7-12.5,3.9-19.3,15.5-18.7,28.3.8,14.9,10.3,28,18.5,39.9,2.9,4.2,5.9,8.4,8.9,12.5,0,0,0,0,0,0-3.8,29.2-7.6,58.4-11.4,87.6-42.5-7.6-85.1-15.1-127.6-22.7-26.8-4.8-53.7-9.5-80.5-14.3-.5-.3-1.2-.4-1.9-.3-25.9,4.5-51.9,8.9-77.8,13.4-.1,1.8-.2,3.7-.3,5.5,26.1-4.5,52.2-9,78.2-13.4,0,0,.1,0,.2,0,47.8,8.5,95.6,17,143.3,25.5,47.8,8.5,95.6,17,143.3,25.5,26.7,4.7,53.4,9.5,80.1,14.2.2.1.4.2.7.3,1,.2,1.9.3,2.9.5,0,0,0,0,0,0,3,31.2,6.1,62.4,9.1,93.6,2.1,21.1,4.1,42.2,6.2,63.2,0,.2,0,.3,0,.5-.3.7-.3,1.5.2,2.4,9.1,14,26,19.6,41.8,21.7,17.7,2.4,35.9.5,52.7-5.5,9.5-3.4,18.5-8,26.8-13.8,1-.7,1.3-1.7,1.2-2.6.2-.3.3-.7.3-1.1,3.2-37.4,6.4-74.8,9.6-112.2l2.2-25.2c56,11.1,112.1,21.8,168.2,32.2,56.6,10.5,113.3,20.6,170,30.3,23.7,4.1,47.4,8.1,71.1,12v-5.5c-43.3-7.2-86.6-14.6-129.9-22.2-.7-.6-1.3-1.2-2-1.9ZM443.8,460c-.7.8-1.3,1.7-2,2.5,0,0,0,0,0,0-.7.8-1.4,1.6-2.1,2.4,0,0,0,0,0,0-.7.8-1.4,1.6-2.1,2.4,0,0,0,0,0,0-.7.8-1.4,1.5-2.1,2.3,0,0,0,0,0,.1-.7.7-1.4,1.5-2.1,2.2,0,0,0,0-.1.1-.7.7-1.5,1.5-2.2,2.2,0,0,0,0,0,0-1.5,1.5-3.1,3-4.7,4.4-1-10.4,7.5-18.8,17.7-18.7,0,0,0,0,0,0ZM420.5,457.1c7.8-8.4,20-11.6,30.9-8.4-1,1.9-2.2,3.7-3.3,5.4-.3.5-.6.9-.9,1.4-.4-.4-1-.7-1.7-.8-15.1-1.5-26.7,11.9-24.5,26.5,0,.6.4,1.1.7,1.4-1,.9-2.1,1.8-3.1,2.6-.2.2-.5.4-.7.6-1,.9-2.1,1.7-3.1,2.5-4-10.4-1.8-23.1,5.8-31.3ZM254.4,556c-.5-.2-.9-.4-1.4-.7,0,0-.1,0-.2,0-.4-.2-.8-.4-1.2-.6-.1,0-.2-.1-.3-.2-.4-.2-.8-.4-1.2-.6-.1,0-.2-.1-.4-.2-.5-.3-1-.5-1.5-.8-4.3-2.4-8.4-5.1-12-8.5-.6-.5-1.1-1.1-1.7-1.7-.1-.1-.2-.2-.3-.3-.5-.5-1.1-1.1-1.6-1.7,0,0,0,0,0,0,1.2-1.6,5.1-.9,6.5-.6,2.8.7,5.4,2.2,7.6,4.1,3.1,2.6,8.5,7.3,7.7,11.8ZM272,565.4c-.5-.3-.9-.7-1.4-1-.2-.1-.3-.2-.5-.3-.3-.2-.7-.4-1-.6-.2-.1-.4-.2-.6-.3-.3-.2-.6-.4-.9-.6-.2-.1-.4-.2-.6-.3-.3-.2-.6-.4-1-.5-.2-.1-.4-.2-.6-.3-.3-.2-.7-.4-1-.5-.2,0-.4-.2-.5-.3-.4-.2-.7-.4-1.1-.5-.2,0-.3-.2-.5-.2-.4-.2-.8-.4-1.2-.6-.1,0-.2-.1-.3-.2-.5-.2-1-.5-1.5-.7,3-7.8-5.7-15.9-11.4-20-3.7-2.6-8.2-4.2-12.7-4-2.2.1-4.5.8-6.1,2.2,0,0,0,0,0,0-.9-1-1.7-2.1-2.6-3.2-.7-.8-1.3-1.6-2-2.4,12.2-2.6,25.4-2.2,36.2,4.9,9.6,6.4,14.9,18.2,11.3,29.4ZM182.2,643.8c-1.1,6.1-2,12.8-4.7,18.5-1.9,4-8.1,9.7-12.3,4.9-4.2-4.8,0-12.4,2.4-17,2.7-5.4,5.6-10.6,8.9-15.6,2.7-4.2,5.6-8.4,8.7-12.3-.7,7.2-1.6,14.4-3,21.6ZM242.1,673.4c-1.1,2.9-2.3,5.7-3.6,8.5-.7,1.5-2.7,7.7-4.9,6.2-2.2-1.4-1-6.4-.7-8.5.5-3.2,1.4-6.4,2.4-9.4,3.1-9.1,8.2-17.4,14-25-1.4,9.6-3.9,19.1-7.3,28.3ZM375.6,519.3c-2.4,7.7-1.9,16.3,0,24.4-12.1-4.5-25.9-6.5-36.8-.4,12.2-8.2,24.4-16.2,36.7-24.1ZM333.2,669.1c-.9,3.7-3.4,15.4-9.6,13.2-4.9-1.7-.4-10.4,1-13,3.1-6.3,6.9-12.4,11.1-18-.2,6-1,12-2.5,17.8ZM340.4,637.4c-1-7.7-3.2-15.3-6.9-22-6.4-11.7-18.3-17.9-31.6-16.9-14.2,1.1-26.1,9.3-35.9,19.1-3.4,3.3-6.6,6.8-9.8,10.4,0-1.4,0-2.8,0-4.2,0-6.8-.7-13.5-1.7-20.2.2,0,.4,0,.6-.1,9-2.8,18.8-6.1,23.5-15,1-1.8,1.6-3.7,1.9-5.5,18.4-12.4,36.6-25,55-37.3-1.8,1.5-3.6,3.2-5.1,5.3-11.8,15.6-6.6,37.1,4.1,51.7,6,8.1,13.3,15,20.7,21.7-5.3,4-10.2,8.3-14.7,13.1ZM375.5,815.8l-10.5-1.9c3.6-27.5,7.2-55,10.8-82.6,4.5,5.8,9.1,11.5,13.9,17.1,21.6,25.3,45.6,48.4,69.6,71.4,0,.1.2.2.3.4.4.4.9.8,1.3,1.2.3.3.7.7,1,1,.1.1.2.2.3.3,3.8,3.5,7.7,7.1,11.5,10.6-32.8-5.8-65.6-11.6-98.3-17.5ZM541.2,1004.6c0-.2,0-.5,0-.7-3.6-37.2-7.3-74.3-10.9-111.5-1.6-16.8-3.3-33.5-4.9-50.3,6.9,1.9,12.5,7,14.8,13.9,2.9,42,5.9,83.9,8.8,125.9.8,10.8,1.5,21.5,2.3,32.3-3.9-2.5-7.4-5.7-10.1-9.6ZM561.1,1019c-1.4-.5-2.8-1.1-4.1-1.7-3-42.2-5.9-84.5-8.9-126.7-.8-11.1-1.5-22.1-2.3-33.2,9.8-8.9,26.1-5.6,31,7.1,0,0,0,0,0,0,1.8,41.6,3.8,83.2,6.1,124.8.6,11.5,1.3,23.1,1.9,34.6-8.1-.6-16.1-2.3-23.7-5.1ZM633.3,982c-.5,11.6-1,23.1-1.6,34.7-13.2,5.1-27.5,7.8-41.6,7.5-2.4-42.1-4.6-84.2-6.5-126.4-.5-11.3-1-22.5-1.5-33.8,4.7-9.7,14.3-17,25.2-18.1,11.4-1.2,23,4.4,29.4,14-.6,40.7-1.7,81.4-3.4,122.1ZM658.9,942.2c-1.8,21.1-3.6,42.1-5.4,63.2-5.1,3.5-10.5,6.5-16.3,9.1,2-40.8,3.4-81.5,4.3-122.4.2-11.1.4-22.1.6-33.2,5.5-9.6,14.8-16.4,25.6-18.8l-8.8,102.1ZM668.6,829.9l-.4,4.5c0,0-.1,0-.2,0-11.8,2.1-22.4,9.2-29,19.1-.1,0-.2,0-.3,0-7.7-9-19.5-14.3-31.4-13.1-11.4,1.1-22,7.7-28,17.4-3.4-5.2-8.6-9.2-14.9-10.6-7-1.6-14.4,0-20.2,4.2-3.6-7.7-10.8-13.5-19.2-15.1,0,0-.1,0-.2,0l-5.4-55.6c-1-9.8-1.9-19.7-2.9-29.5,38.6,21.4,84.9,26.8,127.4,14.3,10.8-3.2,21.3-7.5,31.3-12.8-2.2,25.7-4.4,51.4-6.6,77.1ZM537.4,652.4l11.1,84.3c-5.7-1.2-11.6-2.8-17-5,.2-.5.3-1,.2-1.6-3.5-24.9-7.1-49.9-10.6-74.8,5.6,1.7,11.7.6,16.4-2.8ZM520.8,649.4c1.6-2.2,5.4-3.1,7.8-3.4,2.4-.4,4.8-.1,6.9,1-4.1,3.7-9.6,4.7-14.6,2.4ZM630.3,702.7c-17.1-4-35.4-4.4-52.8-2.4-9.4,1.1-18.6,2.9-27.7,5.4l-1.5-11.6c23.1-2.8,46.4-4.5,69.6-1.8,11.1,1.3,22.1,3.6,32.7,7.2,5.3,1.8,10.6,3.9,15.6,6.4,2.2,1.1,4.7,2.4,6.7,4.1,0,.1.2.3.3.4.6.6,1.1,1.1,1.6,1.7.5.7,1,1.6,1.3,2.4,1.6,4.7-1.8,9.3-5.2,12.3-.2.1-.3.3-.5.4,0,0,0,0,0,0-9.8-13.1-24.5-20.8-40.2-24.5ZM666.1,730.2c-2.9,1.7-6.1,2.9-9.1,4-10.6,3.7-22.1,5.3-33.3,6.4-23.2,2.3-46.7,1.4-69.7-2.8l-3.5-26.7c20.3-5.8,41.4-7.8,62.4-5.8,19.6,1.9,40.6,8.1,52.9,24.6,0,.1.2.2.3.3ZM526.1,729.3c-2.1-1.1-4.2-2.4-6.2-3.8-.5-.4-1-.8-1.5-1.2,1.9-1.8,4-3.1,6.4-4,.4,3,.9,6,1.3,9ZM524.1,714.8c-3.4,1.2-6.5,3-9.2,5.5-1.4-2.3-2.1-5-1-7.8,1.5-3.8,5.1-6.5,8.7-8.6.5,3.7,1,7.3,1.6,11ZM535.8,738.9c11.9,3.8,24.4,5.7,36.8,7,13.2,1.4,26.4,1.7,39.6,1,12.7-.7,25.6-2.1,38-5.1,9.5-2.3,20.5-6,27.1-13.8-.5,6.1-1.1,12.2-1.6,18.3-38.3,21.4-84.2,26.4-126.1,13.3-11.8-3.7-23.1-8.7-33.7-15-.5-5.6-1.1-11.2-1.6-16.8,5.9,5.4,14.5,8.7,21.5,10.9ZM935.3,912.3c-56.7-10.1-113.3-20.5-169.8-31.3-31.5-6-62.9-12.1-94.3-18.4l7-81.6c1.8-21.1,3.6-42.2,5.4-63.4,0-.4,0-.7-.1-1,0-.4-.1-.9-.3-1.3-1.1-2.6-2.7-5-4.5-7.1-2.4-2.9-5.8-5.1-9.1-6.8-10.9-5.5-22.7-9.4-34.6-11.9-28.8-6.1-58.4-4.4-87.4-.8l-5.4-41c0-.2,0-.4-.1-.6.2-.8,0-1.6-.7-2.3-3.7-3.9-9.1-4.9-14.2-4-4.9.9-10.7,3.1-12.1,8.4-.1.5-.1,1,0,1.5,0,.2,0,.3,0,.5,2.2,15.6,4.4,31.3,6.7,46.9-6.9,4-14.5,10.3-13.7,18.6-.1.3-.1.7-.1,1.1,3.6,37.2,7.3,74.3,10.9,111.5.4,4.1.8,8.3,1.2,12.4-.1,0-.2,0-.4,0-.2-.1-.5-.2-.8-.3-11.9-2.1-23.8-4.2-35.7-6.3-.3-.4-.6-.7-.9-1.1-.1-.1-.2-.2-.4-.3-.1-.2-.3-.4-.5-.6l-16.6-15.3c-19.7-18.8-39.4-37.7-57.8-57.8-18.5-20.2-36.3-41.7-50.1-65.4-6.1-10.5-11.4-24.4-4.4-35.9,5.3-8.7,15.8-10.6,25.4-10,3.5,3.4,7,6.7,10.6,9.8,11,9.7,22.7,19.2,35.4,26.6,5.1,3,12.3,4.8,17.1.2,5.2-4.9,2.5-12.4-2-16.6-5.2-4.9-11.8-8.7-18.1-12.1-6.3-3.4-12.8-6.2-19.6-8.4-6.7-2.2-14-4.2-21.3-4.9-6.9-6.8-13.5-13.9-19.8-21.3,0,0-.1-.2-.2-.2,0-.1-.2-.2-.3-.3-13.7-12.3-29.7-26.7-30.8-46.5-.4-8,1.5-16.5,7.1-22.5,6.4-6.8,16-8.5,24.9-7.1,5.7.9,11.2,2.7,16.5,5,.9,2.7,1.9,5.3,3.1,7.7,4.5,10,10.6,19.3,17.2,28,6.5,8.4,13.8,16.8,22.3,23.3,7.2,5.5,17.7,8.4,25,1.4,7.8-7.4,1.6-17.3-4.7-23.1-8.7-8-18-15.4-27.6-22.2-9.2-6.6-18.9-13-29.1-18-.6-.3-1.2-.6-1.9-.9-3.3-10.3-4.2-21.3,1.2-30.5,9.2-15.5,29.3-12.6,44.1-6.9.6,1.8,1.2,3.5,1.8,5.2,7.4,19.8,19.9,37.7,36.2,51.2,6.5,5.4,17.8,11.4,24.4,2.6,4.9-6.5,1.2-15.9-2.8-21.9-5.7-8.6-14.5-15.8-22.5-22-8.6-6.6-17.9-12.4-27.7-17-1.6-.7-3.2-1.5-4.9-2.1,0-.4-.2-.7-.3-1.1-1.1-4.7-1.6-10.1.9-14.5,2.1-3.7,5.9-5.7,9.9-6.6,9-1.9,18.8,1.2,27.2,4.4,19.2,7.3,35.6,20.4,51.3,33.3,34.7,28.4,69,57.4,102.9,86.8,33.6,29.2,66.8,58.9,99.5,89.2,33,30.5,65.5,61.5,97.4,93,31.8,31.4,63.1,63.3,93.9,95.8,6.7,7.1,13.4,14.2,20.1,21.3.1.2.3.5.5.7l1.4,1.4c0,0,.2.2.3.3.1.1.2.2.4.3,1.3,1.3,2.7,2.6,4,4-1.8-.3-3.7-.7-5.5-1ZM387.1,649.8c11.5,2.3,22.7,6.6,32.8,12.3,5.4,3,11.5,6.4,15.9,10.9,2,2,4,5.6,1.6,8.1-2.2,2.3-6,1.6-8.5.4-3.3-1.5-6.4-3.8-9.4-5.9-3.1-2.1-6.3-4.3-9.3-6.6-6.2-4.6-12.2-9.5-17.9-14.6-1.8-1.6-3.5-3.2-5.3-4.8ZM384.6,553.8c1,.6,2.1,1.1,3.1,1.7,9.4,5.4,18.5,11.5,27.2,18,4.4,3.3,8.7,6.7,12.9,10.2,4,3.4,8.2,6.7,11.7,10.6,2.9,3.2,5.6,8.1,2.2,11.9-2.7,3.1-7.3,3.7-11,2.7-5-1.4-9.1-5.1-12.7-8.6-3.6-3.5-7.1-7.1-10.4-10.9-6.8-7.8-12.7-16.3-17.8-25.3-1.8-3.2-3.6-6.7-5.2-10.4ZM433.6,511.8c17.5,8.1,33.6,19.8,46.3,34.3,3.6,4.1,9.9,14.4,4.7,19.4-7.2,6.9-19.7-7.2-24.3-11.9-11.3-11.6-21.3-26.2-26.7-41.8Z"/>
  <path class="cls-1" d="M293.9,506.5c4.3,3.9,15.4,10.5,20.3,4.3,2.7-3.4.4-7.7-1.2-11-2.1-4.3-4.5-8.3-7.3-12.2-2.3-3.3-4.9-7.1-8.9-8.4-2.8-1-6.1-.3-8.2,1.7-.8.2-1.4.8-1.7,1.8-2.5,8.6.3,17.9,6.9,23.9ZM291.8,485.7c0-.1.2-.2.2-.4,2.8-5.4,9.9,6.2,11.2,8.1,1.6,2.5,3.1,5.1,4.5,7.8.6,1.3,1.3,2.6,1.9,3.9.5,1.4.9,2.5-1,2.6-4.7,0-10-3.7-12.9-7.1-3.5-4.1-4.9-9.7-3.9-14.9Z"/>
  <path class="cls-1" d="M326.4,495.2c2.2,3,4.9,7,9.1,6.3,7.8-1.4,7.2-14.3,5.9-19.9-2.1-8.6-9-15.5-17.7-17.4-1-.2-1.8,0-2.4.6-2.8.9-4.9,3.4-5.4,6.4-.7,4.2,1.4,8.2,3.2,11.8,2.1,4.2,4.5,8.3,7.3,12.2ZM323.6,469.9c.2,0,.3,0,.4,0,5.1,1.6,9.3,5.5,11.3,10.5,1.6,4.2,2.4,10.6.1,14.7-.9,1.6-1.7.8-2.7-.4-.9-1.1-1.8-2.3-2.6-3.5-1.7-2.5-3.3-5-4.7-7.7-1.1-2-7.9-13.8-1.8-13.7Z"/>
  <path class="cls-1" d="M215.6,465.6c8.7,2,17.9-1.1,23.5-8.1.6-.8.7-1.7.5-2.4.5-2.9-.9-5.9-3.3-7.7-3.4-2.5-8-2.4-12-2.4-4.7,0-9.5.3-14.2,1.1-3.6.6-8.4,1.2-9.7,5.4-2.2,7.6,9.6,12.8,15.2,14.1ZM207.6,452c1.4-.4,2.9-.5,4.3-.8,3-.4,6-.7,9-.8,2.2,0,15.9-.9,13.1,4.5,0,.1-.1.3-.2.4-3.7,3.9-9,5.9-14.5,5.4-4.4-.4-10.6-2.6-13.2-6.4-1-1.5,0-1.9,1.5-2.3Z"/>
</svg>